<svg width="40" height="40" viewBox="0 0 40 40" fill="none" xmlns="http://www.w3.org/2000/svg">
<path d="M0 20C0 8.95431 8.95431 0 20 0V0C31.0457 0 40 8.95431 40 20V20C40 31.0457 31.0457 40 20 40V40C8.95431 40 0 31.0457 0 20V20Z" fill="#0A0A0A"/>
<path d="M29.0971 15.0087C30.5903 15.8721 31.7775 17.0292 32.2668 18.4606C32.8221 20.0856 32.3568 21.6919 31.2279 22.984C30.1374 24.2318 28.4519 25.1833 26.4983 25.8201C24.5253 26.4632 22.2545 26.7938 19.9594 26.7898C17.6644 26.7858 15.3969 26.4474 13.4314 25.797C11.4856 25.1531 9.80955 24.1937 8.73301 22.9379C7.61633 21.6351 7.17574 20.0237 7.75238 18.405C8.25294 16.9999 9.42601 15.8617 10.9004 15.0087L9.87505 13.2102L13.742 14.9422L13.2645 19.1523L12.2785 17.4243C11.1492 18.0798 10.571 18.7734 10.3701 19.3368C10.1865 19.8522 10.251 20.4402 10.8421 21.1299C11.4735 21.8664 12.6341 22.6064 14.3035 23.1589C15.9532 23.7049 17.9232 24.0085 19.9635 24.0121C22.0036 24.0156 23.9783 23.7198 25.637 23.1793C27.3154 22.6322 28.491 21.8942 29.1364 21.1556C29.7429 20.4614 29.8131 19.8701 29.6382 19.3585C29.4446 18.7923 28.8671 18.0902 27.719 17.4243L26.7343 19.1523L26.2582 14.9422L30.1238 13.2102L29.0971 15.0087Z" fill="white"/>
</svg>
