<svg width="48" height="48" viewBox="0 0 48 48" fill="none" xmlns="http://www.w3.org/2000/svg">
<g id="chat-bubble-help">
<path id="fill1" fill-rule="evenodd" clip-rule="evenodd" d="M24 44C35.0457 44 44 35.0457 44 24C44 12.9543 35.0457 4 24 4C12.9543 4 4 12.9543 4 24C4 29.3247 6.08084 34.1634 9.47371 37.7473L6 44H24Z" fill="black"/>
<g id="stroke1">
<path fill-rule="evenodd" clip-rule="evenodd" d="M24 44C35.0457 44 44 35.0457 44 24C44 12.9543 35.0457 4 24 4C12.9543 4 4 12.9543 4 24C4 29.3247 6.08084 34.1634 9.47371 37.7473L6 44H24Z" stroke="white" stroke-width="4" stroke-linecap="square"/>
</g>
<path id="stroke2" d="M24.0004 29.5V29C24.0004 26.7909 25.9753 25.0828 27.7106 23.7156C29.1051 22.617 30.0004 20.913 30.0004 19C30.0004 15.6863 27.3141 13 24.0004 13C21.3879 13 19.2133 14.5372 18.3418 17M24 35.5H24.0078V35.5078H24V35.5Z" stroke="white" stroke-width="4" stroke-linecap="square"/>
</g>
</svg>
