<svg width="133" height="118" viewBox="0 0 133 118" fill="none" xmlns="http://www.w3.org/2000/svg">
<g clip-path="url(#clip0_5081_1128)">
<path d="M112.007 58.9466H111.241C111.245 58.9754 111.167 50.631 111.151 50.0752C111.151 50.0711 111.151 50.067 111.151 50.0629V49.5853C111.188 49.4701 111.241 49.3836 111.295 49.3177C111.493 49.0666 111.682 48.8073 111.863 48.5438C111.941 48.4327 111.999 48.3215 112.073 48.2104C112.728 47.2224 113.28 46.2591 113.724 45.2793C114.103 44.4436 114.494 43.5338 114.774 42.5705L114.939 42.0148C115.124 41.3973 115.314 40.7551 115.45 40.1211C115.717 38.8697 115.812 37.9064 115.767 36.9925C115.767 36.9266 115.763 36.869 115.759 36.8113L115.676 36.8895C115.351 37.1818 115.026 37.4782 114.717 37.7911L114.293 38.2192C113.621 38.8985 112.93 39.6024 112.131 40.187C112.114 40.1993 112.094 40.2117 112.077 40.224C111.781 40.4422 111.472 40.6522 111.155 40.8539V9.89659C108.734 8.77685 106.271 7.73122 103.747 6.81321C93.4979 3.07528 82.4293 1.0293 70.8831 1.0293C59.3368 1.0293 48.2435 3.07528 37.982 6.82556C35.4702 7.74357 33.0201 8.78097 30.6112 9.89659V40.8827C30.1624 40.5986 29.7547 40.2981 29.3718 39.9894C29.2441 39.8865 29.1124 39.7877 28.9929 39.6806C28.3588 39.1125 27.7453 38.5074 27.1523 37.9187C26.8599 37.6305 26.5717 37.3424 26.2752 37.0583C26.1764 36.9636 26.0899 36.8813 25.9911 36.8031C25.987 36.8854 25.9828 36.9678 25.9828 37.046C25.9705 38.3263 26.1599 39.6889 26.5634 41.2038C26.8764 42.3894 27.2799 43.5626 27.7658 44.6906C28.1859 45.6745 28.7047 46.5431 29.2524 47.4611C29.2894 47.5188 29.3347 47.5929 29.3759 47.6587C29.7383 48.2515 30.2571 49.0213 30.5659 49.5112C30.5824 49.54 30.5659 58.9507 30.5659 58.9384H17.3437L1.7168 87.6933H37.8914C43.2404 96.5276 52.3984 107.301 67.9389 115.39C68.0047 115.423 68.0665 115.456 68.1324 115.493C69.0301 115.958 69.9401 116.415 70.8789 116.864C71.8178 116.415 72.7278 115.958 73.6255 115.493C73.6914 115.46 73.7531 115.427 73.819 115.39C89.5325 107.21 98.7151 96.5894 104.039 87.6933H126.436L131.756 58.9466H112.011H112.007Z" fill="black"/>
<path d="M47.375 95.4077C47.375 95.4077 54.5852 106.646 70.8422 113.216V110.141C70.8422 110.141 57.2165 105.16 47.375 95.4077Z" fill="#D70C18"/>
<path d="M73.984 10.1062C73.881 9.73163 73.7698 9.35701 73.6751 8.97828C73.4198 7.99028 72.8269 7.28633 71.8921 6.88701C70.9862 6.50005 70.0391 6.3889 69.0591 6.45476C66.4196 6.63178 64.0807 7.59096 61.9642 9.13883C61.3753 9.57108 60.8771 10.1021 60.453 10.7032C59.7818 11.6541 58.847 12.2675 57.7764 12.6709C56.537 13.1361 55.2522 13.3461 53.9263 13.3131C53.2633 13.2967 52.6045 13.2925 51.9539 13.4819C51.1715 13.7083 50.4632 14.0624 49.7797 14.6799C50.4097 14.6469 50.9533 14.6881 51.5586 14.8281C51.9539 14.9186 53.0245 15.3426 53.4363 15.4991C52.7651 15.5773 52.2627 15.7461 51.888 15.8984C50.9574 16.2812 50.1503 16.8452 49.4997 17.615C48.8944 18.3354 48.4949 19.1629 48.2808 20.0768C48.0173 21.2006 47.9185 22.3492 47.7826 23.4895C47.6879 24.2758 47.6055 24.9633 47.3584 25.7249C47.0867 26.5523 46.5596 27.3633 45.8307 27.7873C41.1529 30.5167 38.357 26.8117 38.0234 25.976C38.0234 25.976 39.0899 26.787 40.2017 26.8117C42.1289 26.8528 43.1789 26.3259 44.2578 24.2799C45.4972 21.9334 45.4066 19.7104 45.6825 18.6195C45.946 17.5739 46.5102 16.7752 47.622 16.3512C47.2843 16.026 46.5431 16.0013 45.8472 16.273C45.2378 16.5118 44.6984 17.1334 44.3772 17.7303C44.3483 17.331 44.443 16.5859 44.5542 16.2854C45.1266 14.7869 46.4278 12.2716 49.2773 11.2466C50.1173 10.9419 51.188 10.8472 52.0692 10.9543C53.078 11.0737 54.0828 11.2507 55.0957 11.3742C55.8328 11.4647 56.574 11.5018 57.307 11.3124C57.7064 11.2095 58.1388 10.9584 58.4558 10.6002C56.924 10.909 55.5528 10.2915 54.5934 9.01121C55.524 9.26644 56.817 9.30349 57.6199 9.17999C58.9541 8.97416 60.1853 8.46781 61.4042 7.92029C62.8248 7.28221 64.2454 6.63178 65.6867 6.0431C66.5967 5.6726 67.5685 5.50793 68.5567 5.50793C69.0344 5.50793 69.5079 5.49558 69.9856 5.50793C70.8421 5.53675 71.6615 5.71788 72.4398 6.07603C74.1116 6.84173 74.6181 8.42664 73.9881 10.1062H73.984Z" fill="#D70C18"/>
<path d="M86.4771 44.8303C86.4771 44.8303 86.4441 44.7974 86.4276 44.7809C86.4606 44.7315 86.4935 44.6821 86.5306 44.6368C87.7989 43.1425 88.6307 41.4382 88.9683 39.5034C89.1248 38.6142 89.1618 37.7209 89.0548 36.8152C88.8612 35.1232 88.0665 33.8265 86.6129 32.9414C86.4647 32.8508 86.2835 32.8138 86.0406 32.7273C86.2218 34.6581 85.8553 36.4323 85.1429 38.1366C84.4305 39.8368 83.4505 41.3476 82.0587 42.5785C82.104 42.4427 82.1822 42.3274 82.2563 42.2121C82.5816 41.7017 82.9358 41.2035 83.2281 40.6725C84.0187 39.2152 84.5046 37.6632 84.6858 36.0083C84.8217 34.7692 84.7764 33.5466 84.4099 32.3527C84.2617 31.8711 84.0887 31.3853 83.6028 31.126C83.047 30.8296 82.4622 30.7431 81.8281 30.916C81.8322 31.0066 81.8281 31.0848 81.8446 31.1589C81.9928 32.0604 82.1493 32.9579 82.2934 33.8594C82.5693 35.5473 82.4252 37.2145 82.0093 38.857C81.651 40.2855 81.0663 41.6317 80.3498 42.9202C79.5757 44.3116 78.6698 45.6125 77.6938 46.8681C77.6444 46.9298 77.6115 47.008 77.5703 47.078C77.9986 46.9092 78.3733 46.6911 78.748 46.477C80.4733 45.4931 82.1328 44.4104 83.6276 43.0931C84.6858 42.1586 85.6123 41.113 86.3041 39.8739C86.4647 39.5898 86.6129 39.3017 86.7941 38.9682C86.8065 39.0629 86.823 39.0999 86.8147 39.1329C86.51 40.2444 86.1065 41.3188 85.5835 42.348C84.3976 44.6698 82.7917 46.6664 80.8069 48.3583C80.3045 48.7864 79.7816 49.1899 79.2668 49.6057C79.1721 49.6839 79.0692 49.7539 78.9662 49.8238C78.9745 49.8527 78.9827 49.8856 78.9909 49.9144C79.3821 49.8938 79.7733 49.9021 80.1604 49.8485C81.2063 49.7003 82.2399 49.4822 83.2528 49.1569C84.5664 48.737 85.8182 48.1772 87.0288 47.5185C88.4495 46.7405 89.7672 45.8142 90.9778 44.7398C92.2337 43.6241 93.329 42.3768 94.1361 40.8948C94.7497 39.7709 95.112 38.5854 95.0379 37.2845C95.0091 36.7658 94.8032 36.3582 94.3255 36.1401C93.9755 35.9795 93.5967 36.0083 93.2384 36.1112C92.6825 36.2759 92.6496 36.3377 92.629 36.914C92.629 36.9387 92.629 36.9675 92.629 36.9922C92.6537 38.0131 92.4314 38.9888 92.0608 39.9356C91.9249 40.2855 91.756 40.6313 91.439 40.8742C91.4431 40.7013 91.476 40.5408 91.5172 40.3802C91.8013 39.244 91.8672 38.1037 91.6078 36.9593C91.5007 36.4817 91.3237 36.0207 91.0272 35.6214C90.8048 35.3208 90.5372 35.0821 90.1748 34.9709C90.1501 34.9997 90.1336 35.0121 90.1336 35.0203C90.1378 35.0697 90.1419 35.1232 90.1542 35.1726C90.3354 35.8107 90.4631 36.4529 90.4919 37.1198C90.5537 38.4701 90.2984 39.7504 89.7301 40.973C89.133 42.2656 88.2395 43.336 87.173 44.2705C86.9506 44.4639 86.7118 44.641 86.4812 44.8262L86.4771 44.8303Z" fill="white"/>
<path d="M64.0807 47.0988C64.1054 47.0741 64.1342 47.0494 64.1589 47.0247C64.0601 46.893 63.9571 46.7571 63.8542 46.6254C62.9277 45.4192 62.063 44.1719 61.3382 42.834C60.3953 41.0885 59.6911 39.2689 59.4317 37.2806C59.2052 35.5351 59.3864 33.8226 59.7199 32.1142C59.7982 31.719 59.8682 31.3238 59.9423 30.9245C59.5676 30.8092 59.2464 30.8092 58.917 30.8627C58.2458 30.9739 57.7434 31.2744 57.4716 31.9413C57.1628 32.7029 57.0475 33.4974 56.994 34.3001C56.9199 35.4034 57.0557 36.4943 57.3152 37.5646C57.7393 39.3183 58.5011 40.9238 59.5964 42.3647C59.6458 42.4305 59.6829 42.5087 59.7241 42.5828C58.9129 41.9406 58.2787 41.1585 57.7311 40.2981C56.2775 38.0092 55.4869 35.531 55.6681 32.7111C55.4045 32.8264 55.2027 32.8881 55.0339 32.9951C53.8027 33.7608 53.0327 34.8641 52.765 36.2885C52.5427 37.47 52.5962 38.6556 52.8433 39.837C53.1521 41.3231 53.7615 42.6693 54.6468 43.8961C54.8527 44.1801 55.0669 44.46 55.3139 44.7853C54.3298 44.2501 52.9791 42.7846 52.2791 41.496C51.1509 39.4213 50.9779 37.2435 51.6162 34.9547C51.2991 35.0494 51.0726 35.214 50.8791 35.4363C50.4591 35.918 50.2161 36.4943 50.0926 37.1077C49.9073 38.0381 49.9649 38.9767 50.1338 39.9111C50.1914 40.224 50.2696 40.5369 50.3355 40.8497C50.3067 40.8621 50.282 40.8703 50.2532 40.8827C50.1791 40.7797 50.0885 40.6851 50.0267 40.578C49.3308 39.3801 49.0467 38.0751 49.0837 36.7001C49.0878 36.4614 49.0426 36.3214 48.8161 36.2473C48.7296 36.2185 48.6514 36.1567 48.5649 36.132C47.556 35.8398 46.8272 36.2391 46.6913 37.2271C46.6419 37.5893 46.679 37.9681 46.7284 38.3345C46.889 39.5077 47.3584 40.5657 47.9925 41.5578C48.9849 43.1139 50.2655 44.4106 51.715 45.5386C54.1527 47.4405 56.854 48.8196 59.8764 49.5359C60.7535 49.7417 61.6388 49.9023 62.5447 49.9105C62.6106 49.9105 62.6806 49.8817 62.8 49.8529C58.917 47.07 56.1416 43.5626 54.898 38.9437C54.9804 39.0219 55.038 39.1125 55.0916 39.2113C55.2027 39.4213 55.3016 39.6394 55.4169 39.8453C56.2034 41.249 57.2822 42.4058 58.5052 43.435C59.8476 44.563 61.3135 45.5057 62.8206 46.3866C63.2406 46.6336 63.6648 46.8683 64.0889 47.1071L64.0807 47.0988Z" fill="white"/>
<path d="M33.2096 49.7128C32.1349 48.486 31.1795 47.2387 30.3601 45.8967C29.5366 44.5464 28.8406 43.1344 28.4083 41.5948C30.2572 43.9001 32.5466 45.6785 35.0461 47.251C35.1079 47.1358 35.1655 47.0617 35.1903 46.9752C35.4456 46.156 35.4332 45.3327 35.2191 44.5093C35.1614 44.287 35.042 44.1059 34.7826 44.0442C34.6179 44.003 34.4655 43.9124 34.3049 43.8466C32.909 43.2826 31.5378 42.661 30.2613 41.8582C29.0795 41.1172 28.0047 40.2527 27.1565 39.133C27.1194 39.0836 27.0453 39.0548 26.9671 39.0054C26.9629 39.0836 26.9506 39.1248 26.9588 39.1618C27.3171 40.5821 27.7083 41.99 28.2395 43.3608C28.9065 45.0816 29.726 46.7159 30.8748 48.1691C31.3319 48.7454 31.8507 49.2764 32.3531 49.8198C32.5631 50.0421 32.6084 50.0339 32.909 49.8939C32.9872 49.8569 33.0614 49.8034 33.2096 49.7169V49.7128Z" fill="white"/>
<path d="M72.3574 11.3288C72.4357 11.5841 72.481 11.7734 72.5551 11.9504C72.8392 12.6256 73.2551 13.2225 73.7204 13.7741C75.1204 15.4373 76.8252 16.734 78.7317 17.7632C79.1559 17.9896 79.5965 18.1789 80.0782 18.4054C80.0782 18.2901 80.0824 18.2407 80.0782 18.1913C79.9918 17.4174 79.6953 16.7093 79.3412 16.0301C78.6288 14.6674 77.5994 13.5806 76.3352 12.7203C75.3552 12.0534 74.2928 11.5594 73.111 11.3741C72.8845 11.3371 72.6498 11.3412 72.3574 11.3247V11.3288Z" fill="white"/>
<path d="M104.398 32.0566C104.369 32.0566 104.336 32.0483 104.307 32.0483C104.151 32.3612 103.994 32.6782 103.833 32.9911C103.195 34.2261 102.471 35.4075 101.523 36.4367C101.062 36.9389 100.56 37.4124 100.062 37.8775C99.8887 38.0422 99.8104 38.211 99.8516 38.4374C99.9463 38.9973 100.226 39.4377 100.741 39.7712C101.404 38.9931 101.985 38.1863 102.487 37.3136C102.993 36.4367 103.376 35.5063 103.796 34.5842C103.833 35.0906 103.862 35.5928 103.825 36.0868C103.714 37.6676 103.553 39.2402 102.948 40.7304C103.537 40.8868 103.912 40.7098 104.023 40.187C104.155 39.5695 104.295 38.9438 104.344 38.318C104.426 37.2353 104.464 36.1527 104.48 35.0659C104.496 34.1396 104.455 33.2134 104.439 32.2871C104.439 32.213 104.414 32.1389 104.402 32.0648L104.398 32.0566Z" fill="white"/>
<path d="M40.988 39.7381C41.511 39.454 41.8321 38.9312 41.898 38.3384C41.9186 38.1573 41.861 38.0461 41.7292 37.9267C41.4286 37.6674 41.1404 37.3957 40.8562 37.1199C39.5015 35.8067 38.5215 34.23 37.6814 32.5545C37.5908 32.3734 37.5208 32.184 37.3191 31.9658C37.3026 32.2087 37.2861 32.3775 37.282 32.5422C37.2738 33.7483 37.2738 34.9545 37.2697 36.1607C37.2655 37.301 37.3644 38.4331 37.5661 39.5569C37.6114 39.8163 37.6773 40.0756 37.7597 40.3226C37.8956 40.7261 38.3815 40.8949 38.7809 40.689C38.4103 39.7093 38.1673 38.6966 38.0726 37.6509C37.9779 36.6176 37.8297 35.5885 37.9326 34.5346C38.6862 36.4283 39.6168 38.1984 40.9921 39.734L40.988 39.7381Z" fill="white"/>
<path d="M61.4121 18.3851C61.8074 18.2369 62.0586 18.005 62.1657 17.6894C62.2068 17.5659 62.2233 17.43 62.2768 17.3106C63.121 15.3058 64.484 13.7621 66.3905 12.7C66.5923 12.5888 66.8064 12.4983 67.0164 12.3995C67.0329 12.42 67.0493 12.4447 67.0658 12.4653C66.4152 13.0499 65.847 13.6962 65.3611 14.4207C64.8175 15.2276 64.2946 16.442 64.3398 16.8002C64.3522 16.8002 64.3687 16.8125 64.3769 16.8084C64.6363 16.6273 64.8957 16.4503 65.151 16.265C66.4111 15.3511 67.5147 14.2808 68.4 12.9964C68.7335 12.5106 69.0382 12.0001 69.1576 11.3621C68.8859 11.3209 68.6429 11.3415 68.4 11.3868C67.667 11.5144 66.967 11.7408 66.3081 12.0825C63.9857 13.2845 62.3386 15.0671 61.5686 17.5988C61.4986 17.8335 61.4698 18.0805 61.4121 18.3851Z" fill="white"/>
<path d="M51.0807 5.80469C51.0807 5.80469 39.3204 7.81774 33.0449 11.3375C33.0449 11.3375 32.5137 24.0868 32.5137 30.8505C32.5137 30.8505 34.7167 19.1674 35.9232 13.0706C35.9232 13.0706 44.3729 8.48875 51.0848 5.80469H51.0807Z" fill="white"/>
<path d="M90.6652 5.80469C90.6652 5.80469 102.426 7.81774 108.701 11.3375C108.701 11.3375 109.232 24.0868 109.232 30.8505C109.232 30.8505 107.029 19.1674 105.823 13.0706C105.823 13.0706 97.3731 8.48875 90.6611 5.80469H90.6652Z" fill="white"/>
<path d="M96.2161 37.334C96.492 37.3916 96.7514 37.4245 96.9985 37.5028C97.3855 37.6263 97.7685 37.7786 98.1473 37.9268C98.3203 37.9926 98.4191 38.1038 98.4273 38.3137C98.452 39.2935 98.9668 40.0386 99.6421 40.6808C100.375 41.3848 101.26 41.8417 102.249 42.0393C102.907 42.1711 103.591 42.1916 104.25 41.9735C104.456 41.9076 104.596 41.9241 104.723 42.1134C104.913 42.3975 105.115 42.6815 105.329 42.945C105.485 43.1344 105.489 43.3196 105.407 43.5337C105.325 43.7436 105.255 43.9577 105.189 44.1718C104.415 46.7982 105.716 49.6346 107.857 50.956C108.331 51.2483 108.833 51.4953 109.414 51.4706C109.632 51.4624 109.722 51.5612 109.759 51.7629C109.854 52.3227 109.994 52.8744 110.052 53.4384C110.126 54.1341 110.134 54.838 110.167 55.5379C110.167 55.612 110.151 55.6902 110.138 55.8054C109.813 55.6161 109.533 55.4267 109.232 55.2744C108.306 54.7969 107.305 54.5704 106.288 54.3934C105.473 54.2493 104.653 54.2205 103.838 54.2164C102.891 54.2164 101.936 54.274 100.993 54.4222C100.079 54.5663 99.1809 54.7763 98.2873 55.015C97.892 55.1221 97.5255 55.3114 97.1385 55.4514C96.2449 55.7725 95.3637 56.1471 94.4454 56.3859C93.8442 56.5423 93.1895 56.5423 92.5595 56.5382C91.6824 56.5259 90.8712 56.2542 90.1506 55.7478C89.2982 55.1468 88.6847 54.344 88.2605 53.3972C87.7499 52.2528 87.6635 51.0548 87.8241 49.8239C87.8693 49.4987 87.9023 49.1694 87.927 48.8401C87.9394 48.663 88.0176 48.556 88.1699 48.4654C89.3517 47.7574 90.4635 46.9546 91.493 46.0407C93.1525 44.567 94.5443 42.8874 95.4255 40.829C95.8372 39.8657 96.1131 38.8571 96.1461 37.7992C96.1461 37.7086 96.1584 37.6139 96.1708 37.5234C96.1749 37.4863 96.1914 37.4493 96.2243 37.3463L96.2161 37.334ZM89.0882 52.084C89.1335 51.9769 89.1912 51.8699 89.2282 51.7629C89.4794 51.0178 89.9612 50.4456 90.62 50.038C91.9501 49.2147 93.3254 49.1776 94.7337 49.861C96.1543 50.5485 97.2373 52.4545 96.2449 54.2905C96.2078 54.3605 96.1914 54.4469 96.1584 54.5375C97.1385 54.2082 98.0814 53.8871 99.0326 53.5701C99.0326 53.5372 99.0326 53.496 99.0162 53.4631C98.6291 52.4956 98.2544 51.5241 97.8426 50.5649C97.5049 49.7787 97.1508 48.9924 96.739 48.2431C96.1255 47.1152 95.2402 46.2054 94.2643 45.3821C94.2066 45.3327 94.1366 45.3038 94.0707 45.2627L93.9884 45.2092C93.9142 45.3203 93.8525 45.4397 93.766 45.5344C93.0289 46.333 92.2383 47.074 91.3695 47.7244C90.6818 48.239 89.9859 48.7371 89.2776 49.227C89.0759 49.367 88.9647 49.5111 88.9564 49.7704C88.9441 50.1944 88.7341 51.1824 89.0882 52.0922V52.084ZM95.6025 51.166C95.7549 52.084 95.5449 52.6603 95.0796 53.1996C94.4413 53.9406 93.2636 54.3399 92.1107 53.8047C90.8959 53.2449 90.2535 51.8123 91.0565 50.532C91.1553 50.3756 91.283 50.2356 91.3983 50.0833C90.9371 50.2109 90.6036 50.5032 90.3153 50.8449C89.6441 51.6353 89.4382 52.7673 89.9447 53.7718C90.5253 54.9204 91.5053 55.4596 92.753 55.5255C93.5478 55.5667 94.2725 55.3485 94.9355 54.8504C95.8825 54.1423 96.1708 53.2078 96.0267 52.1004C95.9814 51.767 95.8578 51.4377 95.6025 51.1618V51.166Z" fill="white"/>
<path d="M31.5541 55.8382C31.5541 55.4595 31.55 55.1837 31.5541 54.912C31.5747 53.8787 31.7065 52.8578 31.9536 51.8533C32.0441 51.4869 32.0524 51.491 32.4353 51.4746C33.0242 51.4499 33.5307 51.1905 34.0083 50.8777C35.2395 50.0708 36.0384 48.9387 36.4872 47.5473C36.9278 46.1806 36.8455 44.8385 36.3266 43.513C36.2443 43.3071 36.2566 43.1507 36.4008 42.9696C36.6725 42.632 36.9155 42.2697 37.1667 41.928C37.4714 41.9857 37.739 42.0515 38.0108 42.0845C39.2338 42.245 40.3538 41.9198 41.3668 41.2611C42.1986 40.7219 42.8739 40.0138 43.1868 39.034C43.2568 38.8076 43.298 38.5688 43.3145 38.3342C43.3269 38.1366 43.4133 38.009 43.5822 37.9308C44.171 37.6508 44.7887 37.4738 45.4269 37.3585C45.4516 37.3544 45.4763 37.3709 45.5381 37.3874C45.571 37.6714 45.6081 37.9678 45.6369 38.2683C45.7234 39.1863 45.9952 40.0508 46.3534 40.8906C47.1687 42.7802 48.4288 44.3445 49.9194 45.736C51.0271 46.7651 52.2418 47.6461 53.5266 48.4365C53.6995 48.5435 53.8107 48.6588 53.8272 48.8646C53.8725 49.4698 53.9301 50.0749 53.9754 50.6842C54.0248 51.3799 53.9425 52.0633 53.7489 52.726C53.6295 53.1418 53.4442 53.5453 53.2301 53.9199C52.9542 54.3974 52.6001 54.8173 52.2048 55.2166C51.5048 55.9247 50.6771 56.3322 49.7053 56.4722C48.9147 56.5875 48.1241 56.571 47.3417 56.3858C46.4934 56.184 45.6863 55.8712 44.8793 55.5377C44.2492 55.2743 43.5822 55.0931 42.9315 54.8873C41.9186 54.5662 40.8644 54.455 39.8185 54.2945C39.3903 54.2286 38.9455 54.241 38.5091 54.241C37.7843 54.241 37.0514 54.208 36.3308 54.2863C34.8813 54.4386 33.4524 54.702 32.1677 55.4595C32.0771 55.513 31.9906 55.5707 31.9 55.6283C31.8136 55.6818 31.7271 55.7353 31.5459 55.8465L31.5541 55.8382ZM42.7586 53.5782C43.7263 53.8993 44.6528 54.208 45.6246 54.5333C45.5752 54.4221 45.5463 54.3398 45.5093 54.2616C45.324 53.8622 45.1716 53.4547 45.1551 53.0101C45.1098 51.7875 45.6205 50.8283 46.6005 50.1284C47.4982 49.4862 48.507 49.2681 49.6106 49.4574C50.9612 49.688 51.9536 50.3672 52.5054 51.6434C52.5671 51.7916 52.6413 51.9315 52.736 52.1332C52.7895 51.948 52.8513 51.8327 52.8513 51.7216C52.8595 51.0711 52.8595 50.4248 52.843 49.7744C52.8348 49.5274 52.7277 49.3298 52.4724 49.2104C52.2583 49.1116 52.073 48.9552 51.8795 48.8235C50.7059 48.0084 49.5859 47.1274 48.577 46.1106C48.2929 45.8224 48.0046 45.5384 47.7246 45.2584C47.6588 45.2872 47.6176 45.2996 47.5887 45.3243C46.4522 46.2341 45.501 47.3085 44.834 48.6094C44.068 50.1037 43.4627 51.6681 42.8574 53.2324C42.8121 53.3518 42.7915 53.4794 42.7627 53.5864L42.7586 53.5782ZM50.2612 50.0049C50.3971 50.1737 50.4794 50.2684 50.5577 50.3713C51.1753 51.1741 51.1918 52.1826 50.6235 52.9895C49.9935 53.8828 48.6676 54.2492 47.6917 53.9034C46.6417 53.5288 45.884 52.3597 46.1187 51.3264C46.1269 51.2976 46.1022 51.2646 46.0899 51.2193C45.8963 51.4869 45.6987 51.9521 45.6657 52.2403C45.5093 53.5905 46.2546 54.7926 47.5229 55.2784C48.6553 55.7147 49.7382 55.6201 50.7677 54.9285C52.2048 53.9652 52.5342 52.0756 51.3277 50.7336C51.0559 50.4331 50.7388 50.182 50.2612 50.0008V50.0049Z" fill="white"/>
<path d="M33.2102 49.713C33.0661 49.7995 32.992 49.8489 32.9096 49.89C32.6091 50.0341 32.5596 50.0424 32.3538 49.8159C31.8514 49.2767 31.3325 48.7456 30.8755 48.1652C29.7266 46.712 28.9072 45.0777 28.2401 43.3569C27.7089 41.986 27.3177 40.5781 26.9595 39.1579C26.9512 39.1209 26.9595 39.0797 26.9677 39.0015C27.0459 39.0509 27.1201 39.0756 27.1571 39.1291C28.0095 40.2488 29.0842 41.1133 30.2619 41.8543C31.5425 42.6571 32.9096 43.2787 34.3056 43.8427C34.4662 43.9085 34.6185 43.9991 34.7832 44.0403C35.0427 44.102 35.158 44.2831 35.2197 44.5054C35.4338 45.3288 35.4462 46.1521 35.1909 46.9713C35.1662 47.0537 35.1085 47.1319 35.0468 47.2471C32.5473 45.6787 30.2619 43.9003 28.4089 41.5908C28.8413 43.1305 29.5331 44.5425 30.3607 45.8928C31.1802 47.2348 32.1355 48.4821 33.2102 49.7089V49.713Z" fill="white"/>
<path d="M72.3574 11.3291C72.7568 11.3291 73.1069 11.3826 73.3375 11.4197C74.5193 11.6049 75.3552 12.0619 76.3352 12.7246C77.6035 13.585 78.5876 14.6924 79.3412 16.0344C79.8353 16.9154 80.0782 18.2945 80.0782 18.4098C79.6006 18.1833 79.1559 17.994 78.7317 17.7676C76.8252 16.7384 75.1204 15.4416 73.7204 13.7785C73.2551 13.2228 72.8392 12.6259 72.5551 11.9548C72.481 11.7778 72.4357 11.5843 72.3574 11.3332V11.3291Z" fill="white"/>
<path d="M104.398 32.0565C104.411 32.1306 104.435 32.2047 104.435 32.2788C104.452 33.2051 104.493 34.1313 104.477 35.0576C104.46 36.1402 104.423 37.227 104.341 38.3097C104.291 38.9396 104.151 39.5612 104.019 40.1787C103.908 40.6974 103.538 40.8785 102.945 40.7221C103.546 39.2318 103.711 37.6593 103.822 36.0785C103.855 35.5845 103.826 35.0823 103.793 34.5759C103.373 35.498 102.99 36.4284 102.484 37.3052C101.981 38.178 101.401 38.989 100.738 39.7629C100.223 39.4294 99.947 38.989 99.8482 38.4291C99.8111 38.2027 99.8853 38.0339 100.058 37.8692C100.561 37.404 101.059 36.9306 101.52 36.4284C102.467 35.3992 103.188 34.2178 103.83 32.9828C103.991 32.6699 104.147 32.3529 104.304 32.04C104.332 32.04 104.365 32.0483 104.394 32.0483L104.398 32.0565Z" fill="white"/>
<path d="M40.9882 39.7384C39.6129 38.2028 38.6781 36.4327 37.9287 34.539C37.8258 35.5929 37.974 36.622 38.0687 37.6553C38.1634 38.701 38.4064 39.7137 38.777 40.6934C38.3775 40.8993 37.8917 40.7305 37.7558 40.327C37.6734 40.0759 37.6075 39.8207 37.5622 39.5613C37.3605 38.4375 37.2616 37.3054 37.2657 36.1651C37.2699 34.9589 37.274 33.7527 37.2781 32.5465C37.2781 32.3819 37.2987 32.2131 37.3152 31.9702C37.5169 32.1843 37.6858 32.5671 37.7722 32.7483C38.6123 34.4237 39.4935 35.8069 40.8523 37.1243C41.1365 37.4001 41.4288 37.6718 41.7253 37.9311C41.8612 38.0464 41.9147 38.1576 41.8941 38.3428C41.8282 38.9356 41.5112 39.4584 40.9841 39.7425L40.9882 39.7384Z" fill="white"/>
<path d="M61.4121 18.385C61.4698 18.0804 61.4986 17.8334 61.5686 17.5987C62.3386 15.067 63.9857 13.2845 66.3081 12.0824C66.9711 11.7407 67.6711 11.5143 68.4 11.3867C68.6429 11.3455 68.89 11.3208 69.1576 11.362C69.0341 12.0001 68.7335 12.5105 68.4 12.9963C67.5147 14.2807 66.4111 15.351 65.151 16.2649C64.8957 16.4502 64.6363 16.6272 64.3769 16.8083C64.3687 16.8124 64.3522 16.8083 64.3398 16.8001C64.2946 16.4419 64.8175 15.2316 65.3611 14.4207C65.847 13.6961 66.4152 13.0498 67.0658 12.4652C67.0493 12.4447 67.0329 12.42 67.0164 12.3994C66.8064 12.4982 66.5923 12.5887 66.3905 12.6999C64.484 13.7579 63.2445 15.0258 62.4004 17.0306C62.351 17.15 62.2068 17.5658 62.1657 17.6893C62.0586 18.0049 61.8074 18.2368 61.4121 18.385Z" fill="white"/>
<path d="M70.8748 10.6084C68.9024 15.3137 65.357 18.1419 60.708 19.7392C60.708 19.8503 60.8315 21.2129 60.8645 21.7934C60.9592 23.617 61.2598 30.566 61.3874 33.3777C61.4039 33.7317 61.4327 34.1022 61.5563 34.4274C62.1698 36.0041 62.9522 37.5067 63.7963 38.9681C64.5334 40.2484 65.2993 41.5163 66.0694 42.776C66.8847 44.1057 68.6677 46.8474 68.7788 46.9462L68.8489 29.7632C68.6347 29.7797 67.5312 29.9279 66.2629 29.4833C65.287 29.1416 64.3893 28.6764 63.6399 27.9766C62.6681 27.0668 62.2934 25.8565 62.0833 24.5886C62.0545 24.4198 62.071 24.1728 62.1739 24.074C62.3469 23.9093 62.561 24.074 62.7504 24.1687C63.7305 24.6627 64.7352 25.099 65.777 25.4407C67.1359 25.8853 69.9689 26.684 70.8789 26.684C71.8507 26.684 74.622 25.8853 75.9808 25.4407C77.0226 25.099 78.0274 24.6627 79.0074 24.1687C79.1968 24.074 79.4068 23.9093 79.5839 24.074C79.6868 24.1687 79.6992 24.4198 79.6745 24.5886C79.4645 25.8565 79.0898 27.0709 78.118 27.9766C77.3685 28.6764 76.4667 29.1375 75.4949 29.4833C74.2308 29.9279 73.1272 29.7797 72.909 29.7632L72.979 46.9462C73.0902 46.8474 74.8732 44.1016 75.6885 42.776C76.4626 41.5163 77.2244 40.2484 77.9615 38.9681C78.8056 37.5026 79.588 36.0041 80.2016 34.4274C80.3292 34.1063 80.3539 33.7317 80.3704 33.3777C80.498 30.566 80.7945 23.617 80.8933 21.7934C80.9222 21.2129 81.0498 19.8462 81.0498 19.7392C76.4009 18.1419 72.8554 15.3137 70.883 10.6084H70.8748ZM64.2905 29.5286C65.3982 30.2243 66.58 30.7101 67.9718 30.6524C67.9924 35.0573 67.8729 39.4291 67.8771 43.801C67.8359 43.8134 67.7988 43.8257 67.7576 43.8381C67.4653 43.4182 67.1482 43.0189 66.8847 42.5825C66.0899 41.2734 65.3076 39.9561 64.5375 38.6346C64.4428 38.4741 64.4017 38.26 64.3934 38.0707C64.3564 36.988 64.3358 35.9012 64.3193 34.8185C64.2905 33.0854 64.2658 31.3523 64.2411 29.6191C64.2411 29.5986 64.2658 29.578 64.2946 29.5286H64.2905ZM70.8377 25.7412C70.566 25.7042 70.3148 25.6877 70.0759 25.6383C68.3753 25.309 66.6953 24.9097 65.0729 24.2881C64.8628 24.2098 64.657 24.1234 64.4469 24.0493C64.2575 23.9834 64.1916 23.8599 64.1834 23.6623C64.1505 22.7484 64.1011 21.8387 64.0558 20.9248C64.0352 20.5007 64.0311 20.0767 63.9981 19.6568C63.9734 19.3481 64.0681 19.1628 64.3564 18.994C65.8182 18.1337 67.1606 17.1168 68.3506 15.9065C69.2359 15.0091 70.0059 14.0252 70.6648 12.9508C70.6977 12.8973 70.7389 12.8437 70.776 12.7902C70.7966 12.7943 70.8213 12.8026 70.8419 12.8067V25.7412H70.8377Z" fill="white"/>
<path d="M108.569 49.6797C110.653 47.2632 112.411 44.645 113.358 41.541C111.522 43.8834 109.212 45.6577 106.683 47.2632C106.609 47.0903 106.515 46.9421 106.482 46.7856C106.329 46.0652 106.321 45.3407 106.49 44.6244C106.556 44.3486 106.683 44.1551 106.996 44.0316C107.882 43.6858 108.755 43.303 109.607 42.8831C110.867 42.2656 112.069 41.5493 113.144 40.6271C113.671 40.1784 114.524 39.2275 114.816 38.7705C114.725 39.1781 114.659 39.8203 114.544 40.2155C114.326 40.9606 114.091 41.7016 113.84 42.4385C113.14 44.5009 112.222 46.4522 110.863 48.173C110.422 48.7287 109.924 49.2433 109.434 49.7579C109.125 50.079 108.965 50.0543 108.578 49.6797H108.569Z" fill="white"/>
<path d="M103.381 59.5024C104.509 60.2105 105.522 61.0503 106.297 62.1454C106.548 62.5035 106.77 62.8822 107.062 63.3433C107.235 62.9646 107.396 62.6599 107.515 62.3388C107.775 61.6349 108.005 60.9227 108.265 60.2187C108.586 59.3501 108.718 58.4362 108.891 57.5347C108.948 57.2342 108.92 57.193 108.619 57.1436C107.824 57.0201 107.03 56.8925 106.231 56.8102C105.209 56.7031 104.18 56.7155 103.159 56.8184C102.232 56.9131 101.314 57.0695 100.392 57.2136C100.083 57.263 99.7823 57.3618 99.4775 57.44C99.4775 57.4729 99.4775 57.5018 99.4775 57.5347C99.7905 57.6788 100.103 57.827 100.421 57.9711C101.433 58.4321 102.438 58.9096 103.385 59.5024H103.381Z" fill="white"/>
<path d="M47.375 95.4077C57.2124 105.16 70.8422 110.141 70.8422 110.141V113.216C87.095 106.642 94.3094 95.4077 94.3094 95.4077C77.3236 107.494 70.8422 107.387 70.8422 107.387C70.8422 107.387 64.3649 107.494 47.375 95.4077Z" fill="white"/>
<path d="M46.9298 68.9296L42.705 68.9214L40.3578 79.4271C40.2961 79.6494 40.0819 80.1681 39.3325 80.1681H34.7906C34.5065 80.1681 34.3088 80.0899 34.1853 79.9417C33.9753 79.6823 34.0412 79.2707 34.0617 79.1719L36.0383 70.3705L37.0636 68.9296H32.8223L30.2363 80.448C30.1375 80.8844 30.1293 81.3372 30.2446 81.7695C30.3269 82.0618 30.471 82.387 30.7264 82.6875C31.3111 83.3668 32.2829 83.7126 33.6253 83.7126H40.1643C42.9026 83.7126 43.6067 80.8391 43.615 80.8062L45.958 70.2964L46.9298 68.9255V68.9296Z" fill="white"/>
<path d="M107.425 68.9214L105.23 79.3777C105.172 79.5959 104.962 80.1146 104.205 80.1146H100.087C99.8111 80.1146 99.6094 80.0364 99.4817 79.8882C99.2676 79.6247 99.3417 79.213 99.3705 79.1225L101.269 70.0782L102.08 68.9255H97.9499L95.5328 80.448C95.4586 80.8103 95.4381 81.1849 95.5122 81.5431C95.5781 81.8806 95.7263 82.2717 96.031 82.634C96.6116 83.3174 97.5917 83.6632 98.9258 83.6632H105.037C107.775 83.6632 108.479 80.7897 108.491 80.7568L110.748 70.0535L111.551 68.9255H107.425V68.9214Z" fill="white"/>
<path d="M82.8945 83.5354L84.7557 74.4541H92.703L95.3507 70.7532H85.5175C85.5175 70.7532 86.0075 68.4684 86.0199 68.4396C86.1063 68.1638 86.3122 67.5134 87.5599 67.5134H96.6643L99.3162 63.8125H86.7117C86.3534 63.8125 83.2404 63.899 82.6515 66.7477L79.1885 83.5354H82.8945Z" fill="white"/>
<path d="M119.498 63.7793H115.005L110.945 83.5681L115.051 82.7448L118.489 65.1954L119.498 63.7793Z" fill="white"/>
<path d="M121.684 63.7793L117.637 83.5681L121.742 82.7448L125.189 65.1913L126.193 63.7793H121.684Z" fill="white"/>
<path d="M51.3367 74.129L49.8996 80.481C49.7843 80.9914 49.7925 81.5348 49.9819 82.0247C50.0602 82.2264 50.1713 82.4364 50.3319 82.634C50.8425 83.2556 51.6496 83.6179 52.7532 83.6961V83.7167H58.6498L61.174 80.1722H54.5032C54.1656 80.1722 53.9267 80.0899 53.7909 79.9293C53.6303 79.7441 53.6467 79.4847 53.6714 79.353L54.8903 74.129H59.5969L62.0799 70.5845H55.6521L55.8827 69.7406L56.7598 68.9214L52.4402 68.9296L52.0943 70.5845H47.5895L46.8359 74.129H51.3408H51.3367Z" fill="white"/>
<path d="M79.0247 72.2312C79.1647 71.6137 79.1276 70.9591 78.86 70.3869C78.5429 69.7118 77.8635 69.0161 76.4305 68.9214H67.9602C67.6637 68.9214 65.0531 68.9996 64.4889 71.7042L62.5453 80.448C62.4506 80.8803 62.4383 81.3372 62.5536 81.7654C62.6359 82.0577 62.7801 82.3829 63.0312 82.6834C63.616 83.3626 64.5919 83.7084 65.9343 83.7084H73.6798C76.414 83.7084 77.1223 80.835 77.1305 80.8021L79.0288 72.223L79.0247 72.2312ZM73.8445 79.4889C73.7663 79.74 73.5275 80.1681 72.8357 80.1681H67.0872C66.8072 80.1681 66.6219 80.0734 66.4778 79.9293C66.2513 79.7029 66.3502 79.1966 66.3502 79.1966L67.7914 72.8816C67.849 72.6387 67.9726 72.4988 68.1702 72.4658H75.0181C75.0181 72.4658 75.2199 72.4782 75.3146 72.6017C75.3599 72.6593 75.3681 72.7416 75.3516 72.8446L73.8404 79.4889H73.8445Z" fill="white"/>
<path d="M26.6869 63.9521L17.8296 73.8157L20.4979 74.8531L15.4248 81.3903L26.724 73.6263L22.9274 72.556L26.6869 63.9521Z" fill="#D70C18"/>
<path d="M26.9264 63.6519H22.0757L9.00586 83.6012H13.869L14.7872 82.1892L22.3516 80.0568C22.3516 80.0568 23.5457 79.6451 23.7104 80.6784C23.8793 81.7117 24.1963 83.6012 24.1963 83.6012H29.0429L26.9264 63.6519ZM15.4255 81.3906L20.4986 74.8533L17.8302 73.8118L26.6835 63.9483L22.9281 72.5521L26.7246 73.6224L15.4214 81.3864L15.4255 81.3906Z" fill="white"/>
<path d="M35.3264 63.0137C35.4664 62.7955 35.5982 62.5732 35.7464 62.3591C36.71 60.9718 38.0235 59.992 39.4936 59.2181C40.4324 58.7241 41.4042 58.3001 42.3596 57.839C42.4666 57.7896 42.5655 57.7238 42.6684 57.662C42.6602 57.6332 42.6478 57.6044 42.6396 57.5756C39.543 56.7605 36.4217 56.637 33.2634 57.2874C33.1275 58.3989 34.3464 62.3262 35.0587 63.4377C35.1535 63.2854 35.2399 63.1454 35.3264 63.0096V63.0137Z" fill="white"/>
<path d="M70.0758 62.664C69.3717 62.0259 68.5605 61.5236 67.5269 61.0132C67.8522 61.8159 68.0499 62.6928 68.0375 63.3309C68.0334 63.5449 67.9263 63.8249 67.7699 63.9813C67.321 64.4341 67.3128 64.8581 67.774 65.2863C67.9181 65.4221 68.0746 65.6156 68.0952 65.8009C68.2187 66.8506 68.1116 66.8588 69.2523 66.8588H69.9605C70.3641 66.8588 70.3888 66.7559 70.3764 66.3031C70.3476 65.3027 70.3764 64.2983 70.3599 63.2979C70.3599 63.1127 70.3764 62.9398 70.0717 62.664H70.0758Z" fill="white"/>
<path d="M71.6779 62.664C72.382 62.0259 73.1932 61.5236 74.2268 61.0132C73.9015 61.8159 73.7038 62.6928 73.7162 63.3309C73.7203 63.5449 73.8274 63.8249 73.9838 63.9813C74.4327 64.4341 74.4409 64.8581 73.9797 65.2863C73.8356 65.4221 73.6791 65.6156 73.6585 65.8009C73.535 66.8506 73.6421 66.8588 72.5014 66.8588H71.7932C71.3896 66.8588 71.3649 66.7559 71.3773 66.3031C71.4061 65.3027 71.3773 64.2983 71.3938 63.2979C71.3938 63.1127 71.3773 62.9398 71.682 62.664H71.6779Z" fill="white"/>
<path d="M73.3376 58.3C73.0534 58.3329 72.7487 58.4894 72.5222 58.6705C71.9746 59.1151 71.464 59.6132 70.8792 60.1443C70.2945 59.6132 69.7839 59.1151 69.2363 58.6705C69.0098 58.4852 68.7051 58.3329 68.4209 58.3C66.3291 58.0448 61.6266 57.4108 61.3672 57.3984C61.8696 59.0533 62.9484 60.1937 64.542 60.0825C66.7738 59.9261 68.8368 60.1566 70.5169 61.8197C70.6404 61.9432 70.7639 62.0626 70.8834 62.0626C71.0028 62.0626 71.1263 61.9432 71.2498 61.8197C72.9258 60.1566 74.9929 59.9261 77.2247 60.0825C78.8183 60.1937 79.8972 59.0533 80.3995 57.3984C80.1401 57.4149 75.4335 58.0489 73.3458 58.3H73.3376Z" fill="white"/>
<path d="M71.8758 51.6968H69.8787C69.7511 53.7139 69.6234 55.7393 69.4834 57.95C69.9611 57.5918 70.414 57.4066 70.8752 57.3983C71.3323 57.4025 71.7894 57.5918 72.267 57.95C72.127 55.7352 71.9994 53.7098 71.8717 51.6968H71.8758Z" fill="white"/>
<path d="M69.0348 49.1035C68.9813 49.9063 69.2119 50.5155 69.8625 50.9107C70.159 51.0919 70.5213 51.166 70.8754 51.1701C71.2337 51.1701 71.5919 51.0919 71.8884 50.9107C72.5431 50.5155 72.7696 49.9063 72.7161 49.1035H69.0307H69.0348Z" fill="white"/>
<path d="M112.259 57.9132C112.246 55.5955 112.185 50.7461 112.176 50.0627V49.8569C112.362 49.6181 112.539 49.3752 112.708 49.1282C112.761 49.05 112.806 48.9759 112.852 48.8977L112.926 48.7783C113.646 47.6915 114.211 46.6871 114.655 45.7032C115.051 44.8304 115.458 43.8836 115.755 42.8627L115.924 42.2987C116.113 41.6606 116.311 41.0061 116.451 40.3351C116.735 38.993 116.842 37.9433 116.788 36.9635L116.776 36.7412L116.624 34.6047L114.981 36.1319C114.643 36.4366 114.305 36.7453 113.98 37.0705L113.544 37.511C113.107 37.9515 112.662 38.4043 112.172 38.8284V9.23779L111.575 8.96197C108.944 7.74344 106.498 6.72251 104.085 5.84154C93.4611 1.96776 82.2855 0 70.8751 0C59.4648 0 48.2603 1.97188 37.62 5.85801C35.2399 6.72663 32.8063 7.74344 30.1709 8.96197L29.5739 9.23779V38.8284C28.985 38.2973 28.4168 37.7333 27.865 37.1858C27.5726 36.8935 27.2761 36.6054 26.9838 36.3213C26.8602 36.2019 26.7491 36.099 26.6255 36.0002L25.0772 34.7652L24.9578 36.7412C24.9496 36.8441 24.9455 36.947 24.9455 37.0376C24.9331 38.4126 25.1349 39.8616 25.559 41.4671C25.8843 42.6939 26.3043 43.9165 26.8067 45.098C27.2514 46.1354 27.7785 47.0246 28.355 47.9962L28.4826 48.202C28.705 48.5643 28.985 48.9924 29.2403 49.3876C29.3391 49.544 29.438 49.6922 29.5244 49.8281C29.5327 51.026 29.5244 55.7314 29.5244 57.9173H16.7182L0 88.6811H37.3153C44.2784 99.9608 54.4164 109.511 67.4615 116.304L67.6592 116.407C68.5651 116.876 69.4463 117.341 70.3975 117.79L70.8381 118L71.2787 117.79C72.2299 117.337 73.1852 116.872 74.0952 116.403L74.2888 116.3C87.4615 109.441 97.6695 100.101 104.633 88.677H127.293L133 57.9091H112.259V57.9132ZM30.6033 9.89646C33.0122 8.78084 35.4623 7.74344 37.9741 6.82543C48.2356 3.07926 59.3165 1.02917 70.8751 1.02917C82.4337 1.02917 93.4858 3.07103 103.739 6.81308C106.263 7.73521 108.726 8.77672 111.147 9.89646V39.9316C110.002 40.7097 108.709 41.3972 107.087 42.0558C106.65 41.5536 106.185 41.0719 105.691 40.5944L105.72 40.4586C105.753 40.3104 105.786 40.1663 105.806 40.0181L105.847 39.6887C105.922 39.1165 105.996 38.5402 106.053 37.9639L106.07 37.7951C106.132 37.157 106.193 36.4942 106.202 35.8355C106.206 35.3168 106.214 32.4722 105.654 30.6197C105.543 30.2575 105.065 28.7796 104.806 28.7796C104.468 28.7796 103.999 29.6564 103.896 29.8129C103.344 30.6527 102.8 31.4925 102.261 32.3364C101.26 33.8966 100.358 35.1604 99.1684 36.2596L99.0531 36.2102C98.2748 35.8767 97.5007 35.5391 96.6771 35.2345C96.2489 35.074 95.8412 34.9216 95.5035 34.6582C95.3718 34.5553 95.2235 34.4729 95.0753 34.3947C93.98 33.8266 93.0123 33.7854 92.1764 34.2712C91.917 33.8719 91.5875 33.5508 91.1881 33.312C90.6322 32.9786 90.0104 32.818 89.2857 32.818H89.1498C89.0633 32.818 89.0139 32.8098 88.9233 32.6986C87.9804 31.616 86.955 30.9985 85.7938 30.8091C85.6909 30.7926 85.6456 30.7597 85.6085 30.6691C85.4315 30.2451 85.1556 29.8705 84.7562 29.5247C84.6697 29.4465 84.5173 29.3189 84.3156 29.3189C84.3156 29.3189 84.2167 29.3189 84.2085 29.3189C84.0932 29.3189 83.982 29.3148 83.8667 29.3065C83.5414 29.2942 83.1873 29.2406 82.689 29.4135L82.3143 29.5453C82.3555 28.5861 82.3967 27.6228 82.4461 26.6636C82.4584 26.3713 82.4914 26.0749 82.5284 25.7827L82.6479 24.8646C82.7055 24.4242 82.7673 23.9837 82.8167 23.5432C82.8743 23.0574 82.9237 22.5675 82.9732 22.0777L83.1008 20.8756C83.1214 20.7109 83.142 20.5463 83.1585 20.3816L83.1708 20.2334C83.2079 19.8011 83.249 19.373 83.2614 18.9408C83.2779 18.3932 82.9567 18.2162 82.6437 18.1174C82.5614 18.0927 82.479 18.0598 82.4008 18.031C82.2649 17.9816 82.1331 17.9322 82.0055 17.8581C81.8696 17.3847 81.7419 16.9565 81.5649 16.5407C81.0625 15.3716 80.4119 14.3301 79.6378 13.4368C78.6207 12.2635 77.4224 11.3414 76.0718 10.6951L75.38 10.3699C75.5818 9.82647 75.6765 9.22544 75.6682 8.53796C75.6559 7.75579 75.4047 7.00244 74.9147 6.29438C74.3052 5.40929 73.4282 4.75474 72.234 4.28956C71.4804 3.99728 70.6898 3.86966 70.0063 3.77086C69.051 3.63501 68.1121 3.76675 67.2186 3.89436L67.0991 3.91083C66.5021 3.99728 65.9379 4.21546 65.3285 4.45011C64.1961 4.88648 63.0761 5.34754 61.956 5.81684L61.326 6.08443C60.2266 6.55373 59.0859 7.03949 57.9083 7.33589C57.3977 7.46351 56.7223 7.61171 55.9976 7.61582C54.8776 7.61582 54.0252 7.17946 53.3911 6.27791C53.3211 6.17911 52.8969 5.49986 52.7199 5.66864C52.6252 5.75921 52.5469 6.19146 52.5263 6.32319C52.411 7.09713 52.2916 7.89576 52.5181 8.70262C51.4557 8.70262 50.5374 8.83847 49.7057 9.11429L49.4874 9.18427C48.9892 9.34894 48.4703 9.51772 47.9885 9.76884C46.6462 10.4687 45.5179 11.4032 44.6326 12.5517C43.7761 13.6591 43.1996 14.8817 42.9237 16.1826C42.6972 17.2365 42.6849 18.2533 42.8866 19.2166C42.936 19.4512 42.9896 19.6818 43.0513 19.9411L43.146 20.3363C43.179 20.4886 43.3066 20.6039 43.459 20.6286C43.4961 20.6327 43.5372 20.6327 43.5743 20.6286C43.5537 20.7274 43.5372 20.8221 43.5208 20.9209C43.3808 21.6948 43.1707 22.3576 42.8784 22.9504C42.4296 23.8561 41.8613 24.453 41.1901 24.7206C40.4365 25.0252 39.5265 24.9593 38.6494 24.5641C38.0935 24.313 37.6941 23.8437 37.2494 23.325C37.2494 23.325 36.6029 22.3699 36.4588 22.407C36.3188 22.444 36.1211 23.5802 36.1211 24.1607C36.1211 24.9964 36.2405 25.8444 36.6358 26.6883C37.2906 28.0962 38.4024 29.2242 39.9383 30.0475C40.453 30.3233 41.0295 30.5744 41.6513 30.7926C42.2319 30.9985 42.796 31.1467 43.3272 31.229C44.3031 31.3772 45.1267 31.4472 45.9173 31.4472H46.0738C47.3297 31.4266 48.388 31.3648 49.4586 31.1178C50.4469 30.8873 51.3034 30.6033 52.0734 30.2451C53.3128 29.6729 54.437 28.8907 55.5076 27.8575C56.57 26.8283 57.5624 25.5809 58.6248 23.926C58.7318 23.7614 58.8389 23.6008 58.9459 23.4403C59.1477 24.9511 59.3783 28.0756 59.4154 29.43C59.1642 29.2983 58.8718 29.1995 58.4271 29.146C57.7559 29.0678 57.2659 29.146 56.7059 29.6194C56.4218 29.8623 56.1047 30.3727 55.9853 30.6444C55.9317 30.7679 55.8823 30.7967 55.7711 30.8173C54.404 31.0561 53.5599 31.8465 52.8599 32.6657C52.724 32.8221 52.6787 32.8263 52.5922 32.818C52.5799 32.818 52.4728 32.8098 52.4604 32.8098H52.2999C51.1428 32.8633 50.2245 33.345 49.578 34.2506C49.578 34.2506 49.578 34.2589 49.5739 34.2589C48.8162 33.8513 47.9762 33.8348 47.0826 34.2136C46.6379 34.4029 46.2179 34.6458 45.8432 34.934C45.7814 34.9834 45.6867 35.0246 45.5673 35.0657C44.3649 35.4568 43.4055 35.8438 42.5819 36.2801C42.4831 36.169 42.3719 36.0661 42.2648 35.959C42.1742 35.8685 42.0795 35.782 41.9972 35.6873C40.8442 34.4359 39.9342 33.0321 39.0242 31.583C38.6824 31.0437 38.3241 30.5168 37.9618 29.9899C37.9618 29.9899 37.2823 28.8907 36.99 28.9731C36.6853 29.0595 36.4052 29.8623 36.3311 30.0228C35.9441 30.8379 35.8123 31.7024 35.7423 32.357C35.627 33.4067 35.5982 34.4729 35.5693 35.5968C35.557 36.0537 35.5899 36.5107 35.6229 36.9512L35.6476 37.2599C35.7217 38.3796 35.8164 39.3182 36.0264 40.261C36.0882 40.5285 36.0635 40.6315 35.907 40.7673C35.4664 41.1543 35.0876 41.5824 34.6428 42.0723L33.774 41.6606C33.2922 41.4342 32.8104 41.2078 32.3369 40.969C31.7027 40.6479 31.1427 40.3145 30.628 39.9687V9.89646H30.6033ZM126.432 87.6931H104.036C98.7113 96.5892 89.5287 107.21 73.8152 115.39C73.7493 115.423 73.6876 115.456 73.6217 115.493C72.724 115.958 71.7769 116.415 70.8381 116.864C69.8992 116.415 69.0263 115.958 68.1327 115.493C68.0668 115.46 68.0051 115.427 67.9392 115.39C52.3987 107.301 43.2449 96.5275 37.8918 87.6931H1.71711L17.3358 58.9465H30.558C30.558 58.9465 30.5745 49.544 30.558 49.5193C30.2492 49.0294 29.7303 48.2555 29.368 47.6668C29.3268 47.601 29.2815 47.531 29.2444 47.4692C28.6968 46.5512 28.1821 45.6826 27.7579 44.6987C27.2761 43.5666 26.8685 42.3934 26.5596 41.2119C26.1561 39.697 25.9667 38.3344 25.979 37.0541C25.979 36.9717 25.9832 36.8935 25.9873 36.8112C26.0861 36.8894 26.1726 36.9717 26.2714 37.0664C26.5638 37.3505 26.8561 37.6386 27.1485 37.9268C27.7414 38.5155 28.355 39.1206 28.9891 39.6887C29.1085 39.7958 29.2444 39.8946 29.368 39.9975C29.7509 40.3062 30.1545 40.6068 30.6074 40.8908C31.0316 41.1584 31.4763 41.4177 31.9704 41.6647C32.4522 41.9035 32.9381 42.134 33.4281 42.3646L34.2928 42.7721C34.6593 42.9491 34.9599 42.875 35.2234 42.5745C35.6229 42.1134 35.9852 41.7059 36.3888 41.3519C36.8623 40.9361 36.8335 40.4668 36.7511 40.1045C36.5494 39.2112 36.4588 38.3055 36.3847 37.2187L36.3641 36.9059C36.3311 36.4654 36.3023 36.0496 36.3147 35.5391C36.3435 34.5223 36.3682 33.4685 36.4794 32.4516C36.5741 31.5624 36.7347 30.9161 36.9982 30.3604C37.0311 30.2904 37.0682 30.2163 37.1135 30.1463L37.3112 30.4345C37.6694 30.9532 38.0235 31.4719 38.3571 32.0029C39.2465 33.4232 40.2183 34.9216 41.4166 36.2184C41.5113 36.3213 41.6142 36.4201 41.7131 36.5189C41.8119 36.6136 41.9066 36.7083 41.9972 36.8071C42.2401 37.0705 42.5366 37.1323 42.8702 36.9676C43.6896 36.5518 44.6161 36.1813 45.7814 35.8026C45.9832 35.7367 46.1479 35.6544 46.2838 35.5515C46.6132 35.2963 46.9673 35.0904 47.3544 34.9258C48.0462 34.6335 48.6268 34.6376 49.1909 34.9422C49.3474 35.0287 49.4709 35.0945 49.6274 35.0945C49.8992 35.0945 50.0351 34.9052 50.1792 34.7076C50.6898 33.9954 51.3898 33.629 52.3616 33.5878H52.4934C52.4934 33.5878 52.6087 33.5961 52.621 33.5961C53.004 33.5961 53.2428 33.382 53.4199 33.1762C54.1281 32.3528 54.8158 31.7683 55.8864 31.583C56.257 31.5172 56.5123 31.3154 56.6688 30.9655C56.7635 30.7432 57.0229 30.3521 57.1835 30.2163C57.6818 29.7923 57.8506 29.8623 58.3695 29.9281C58.8718 29.9858 59.0736 30.1257 59.4442 30.3727L59.5513 30.4468C59.6542 30.5168 59.7942 30.5292 59.9095 30.4798C60.0289 30.4304 60.1113 30.3233 60.136 30.1998C60.2348 29.6605 59.8066 22.9257 59.4442 22.3C59.3783 22.1847 59.2589 22.1106 59.1271 22.1065C58.9912 22.1312 58.8718 22.1682 58.7977 22.2753L58.5177 22.691C58.3283 22.9751 58.143 23.2509 57.9618 23.535C56.9282 25.1363 55.9729 26.3425 54.9517 27.3305C53.947 28.3062 52.8928 29.0389 51.7316 29.5741C51.011 29.9075 50.2039 30.1751 49.2651 30.3974C48.2603 30.6321 47.2515 30.6897 46.045 30.7062H45.8967C45.1473 30.7062 44.3608 30.6403 43.4219 30.4962C42.9402 30.4221 42.4254 30.2863 41.886 30.0969C41.2972 29.8911 40.7577 29.6523 40.276 29.3971C38.8677 28.6437 37.8959 27.6599 37.3029 26.3878C36.9653 25.6633 36.8129 24.9387 36.8582 24.2307C36.8582 24.1895 36.8664 24.1483 36.8706 24.1072C37.27 24.5682 37.7065 25.0087 38.3118 25.2845C39.3783 25.7703 40.5065 25.8321 41.4495 25.4533C42.2978 25.1116 43.0019 24.3912 43.5372 23.3127C43.8667 22.654 44.0972 21.9212 44.2496 21.0773C44.3073 20.748 44.3773 20.4228 44.4431 20.0975C44.5255 19.69 44.612 19.2783 44.682 18.8625C44.7108 18.6855 44.6161 18.5126 44.4473 18.4468C44.2784 18.3809 44.089 18.4385 43.9902 18.5867C43.8461 18.7967 43.7349 18.9984 43.6319 19.1919C43.6237 19.1548 43.6155 19.1219 43.6072 19.0848C43.4261 18.2327 43.4384 17.3188 43.6402 16.372C43.8955 15.1822 44.4226 14.0625 45.209 13.0457C46.0244 11.9877 47.0703 11.1232 48.3139 10.4769C48.738 10.2546 49.228 10.0941 49.6974 9.94174L49.9198 9.86764C50.6733 9.61652 51.5175 9.49302 52.4975 9.49302H52.7034C52.7775 9.49302 52.8516 9.49302 52.9381 9.48067L53.0616 9.47244C53.1893 9.46421 53.3005 9.39422 53.3664 9.28307C53.4281 9.17192 53.4364 9.04019 53.3787 8.92492C53.1152 8.38152 53.0946 7.83812 53.1522 7.24121C53.8893 8.01514 54.8364 8.40211 55.9894 8.40211C56.78 8.40211 57.5171 8.24156 58.073 8.10159C59.3083 7.79284 60.4736 7.29472 61.6019 6.81308L62.2278 6.54549C63.3396 6.08031 64.4555 5.61924 65.6456 5.16229C66.152 4.96469 66.675 4.76298 67.1897 4.68888L67.3092 4.67241C68.1533 4.54891 69.0139 4.42541 69.8786 4.54891C70.5498 4.64771 71.2622 4.76298 71.9416 5.02644C72.9876 5.42988 73.7493 5.99386 74.2682 6.75133C74.6676 7.32766 74.8776 7.94104 74.8858 8.57089C74.8941 9.24602 74.7953 9.79354 74.5729 10.2999C74.5358 10.3863 74.5317 10.4646 74.5276 10.5592C74.507 10.7198 74.5976 10.8762 74.7458 10.9462L75.7259 11.4032C76.9777 12.0042 78.0936 12.8605 79.0448 13.9555C79.7695 14.7912 80.3748 15.7668 80.8484 16.8618C81.009 17.2365 81.1284 17.6399 81.2561 18.0845C81.2931 18.2203 81.3837 18.5456 81.7831 18.6526C81.8984 18.6855 82.0096 18.7226 82.1249 18.7637C82.2155 18.7967 82.3102 18.8296 82.4008 18.8584C82.4914 18.8872 82.5161 18.9037 82.4873 18.9325C82.4749 19.3483 82.4379 19.7641 82.4008 20.1799L82.3884 20.3281C82.3761 20.4845 82.3555 20.6368 82.3349 20.7933C82.3184 20.925 82.302 21.0567 82.2896 21.1885L82.2031 22.0118C82.1537 22.4976 82.1043 22.9833 82.0508 23.465C82.0014 23.9013 81.9396 24.3377 81.882 24.7741L81.7625 25.7003C81.7255 26.0132 81.6925 26.3261 81.6761 26.6389C81.6225 27.6969 81.5772 28.7549 81.5319 29.8088C81.5278 29.9075 81.5443 29.9858 81.5731 30.1422C81.5896 30.2533 81.6555 30.3563 81.7543 30.4139C81.8531 30.4715 81.9684 30.4839 82.0796 30.4468L82.932 30.1463C83.1585 30.0681 83.4797 30.064 83.8255 30.0804C83.9532 30.0887 84.0767 30.0928 84.2044 30.0928H84.225C84.2497 30.1134 84.2785 30.1381 84.2785 30.1381C84.5585 30.3768 84.7644 30.6609 84.8962 30.9738C85.0362 31.3072 85.2997 31.513 85.6621 31.5748C86.6544 31.7353 87.5068 32.2582 88.3386 33.2132C88.5692 33.4767 88.8163 33.5961 89.1704 33.5961H89.2775C89.8581 33.5961 90.3563 33.7196 90.7887 33.9789C91.1058 34.1724 91.3693 34.4359 91.5752 34.7652C91.7399 35.0328 91.9499 35.0904 92.0982 35.0904C92.2134 35.0904 92.3287 35.0575 92.4523 34.9875C93.1358 34.5964 93.8276 34.6252 94.7171 35.0863C94.8241 35.1439 94.9353 35.1975 95.03 35.2716C95.4624 35.6091 95.94 35.7861 96.4342 35.9714C97.2165 36.2637 97.9825 36.593 98.7442 36.9223L98.8595 36.9717C99.2713 37.1488 99.5678 36.9553 99.7201 36.8112C100.927 35.6709 101.861 34.3659 102.895 32.7604C103.434 31.9206 103.978 31.0767 104.526 30.241C104.563 30.1875 104.591 30.1422 104.624 30.1051C104.727 30.2575 104.789 30.4592 104.867 30.7062C105.147 31.583 105.308 32.5257 105.345 33.5179C105.353 33.7896 105.37 34.0571 105.386 34.3288C105.415 34.8311 105.44 35.3333 105.436 35.8397C105.427 36.4654 105.366 37.1117 105.308 37.7333L105.291 37.9021C105.234 38.4702 105.164 39.0342 105.09 39.5982L105.044 39.9316C105.028 40.0551 104.999 40.1786 104.974 40.3021L104.941 40.4462C104.863 40.8291 105.09 41.0596 105.168 41.1378C105.625 41.603 106.082 42.0723 106.51 42.5622C106.663 42.7392 106.967 42.9738 107.416 42.7845C108.857 42.1752 110.068 41.5536 111.147 40.862C111.464 40.6603 111.773 40.4503 112.069 40.2321C112.086 40.2198 112.106 40.2074 112.123 40.1951C112.922 39.6064 113.618 38.9066 114.285 38.2273L114.709 37.7992C115.018 37.4904 115.343 37.194 115.668 36.8976L115.751 36.8194C115.751 36.8771 115.759 36.9347 115.759 37.0006C115.804 37.9103 115.709 38.8778 115.442 40.1292C115.306 40.7632 115.117 41.4013 114.931 42.0229L114.766 42.5786C114.486 43.5419 114.095 44.4517 113.716 45.2874C113.276 46.2672 112.72 47.2305 112.065 48.2185C111.991 48.3296 111.933 48.4408 111.855 48.5519C111.674 48.8154 111.485 49.0747 111.287 49.3258C111.233 49.3917 111.176 49.4782 111.143 49.5934V50.071C111.143 50.071 111.143 50.0792 111.143 50.0833C111.159 50.6391 111.238 58.9794 111.233 58.9547H131.748L126.428 87.7014L126.432 87.6931Z" fill="white"/>
<path d="M50.0391 88.9529H52.3985L52.4562 88.4507H50.0967L50.0391 88.9529Z" fill="white"/>
<path d="M46.4034 87.224L45.8311 90.3238H48.8494H49.2282H49.4259L49.5165 89.8339H46.6258L46.7864 88.9488H49.3723L49.3847 88.953H49.57L49.6606 88.459H46.877L47.0458 87.5656H49.1747H49.7388H49.9324L50.0229 87.084H46.4322L46.4034 87.224Z" fill="white"/>
<path d="M53.9017 87.5739H56.2323H56.5947H56.7924L56.883 87.084H53.2799L53.2552 87.224L52.9464 88.8788H55.837L55.66 89.8339H53.5023H52.9464H52.7693L52.6787 90.332H55.6723H56.0841H56.2818L56.64 88.389H53.7493L53.9017 87.5739Z" fill="white"/>
<path d="M57.3109 87.084L57.1545 87.9403L56.7139 90.3238H57.4221L57.6363 89.1588H60.5269L60.9099 87.084H57.3109ZM59.9093 88.6771H57.7268L57.9327 87.5739H60.1152L59.9093 88.6771Z" fill="white"/>
<path d="M61.3346 87.084L61.1493 88.0843L60.7334 90.3238H64.5712L65.1724 87.084H61.3346ZM63.9535 89.8339H61.5405L61.9605 87.5698H64.3735L63.9535 89.8339Z" fill="white"/>
<path d="M65.4357 87.9567L64.9951 90.3279H65.7075L65.9751 88.8747H67.1569L67.8405 90.3279H68.6558L67.9229 88.8747H68.8658L69.1952 87.084H65.5922L65.4316 87.9567H65.4357ZM66.2222 87.5739H68.4005L68.2523 88.389H66.074L66.2263 87.5739H66.2222Z" fill="white"/>
<path d="M73.1856 87.084H70.052H69.7555H69.5867L69.4961 87.5739H70.925L70.4144 90.3238H71.1226L71.6332 87.5739H72.5062H72.9015H73.095L73.1856 87.084Z" fill="white"/>
<path d="M73.5853 87.224L73.2806 88.8788H76.1712L75.9942 89.8339H73.7253H73.2764H73.1035L73.0088 90.332H75.8871H76.4183H76.616L76.9742 88.389H74.0835L74.2318 87.5739H76.2948H76.9289H77.1224L77.213 87.084H73.6141L73.5853 87.224Z" fill="white"/>
<path d="M82.1537 87.5656H82.6931H82.8908L82.9814 87.084H79.3824L79.2548 87.7715L78.7812 90.3238H81.8737H82.1825H82.3802L82.4708 89.8339H79.5801L80.0001 87.5656H82.1537Z" fill="white"/>
<path d="M86.2924 87.0879L86.2677 87.232L86.2183 87.4996L86.1771 87.726L86.0618 88.3476H83.8835L84.1141 87.0879H83.4018L83.2824 87.7383L82.8047 90.3236H83.5171L83.793 88.8292H85.9713L85.6954 90.3236H86.4077L87.0048 87.0879H86.2924Z" fill="white"/>
<path d="M88.607 87.0879L88.2817 87.6519L86.7334 90.3236H87.4375L88.1128 89.1298H90.0194L90.25 90.3236H90.95L90.2953 87.0879H88.6029H88.607ZM88.3929 88.6399L89.0023 87.5737H89.7147L89.9206 88.6399H88.3929Z" fill="white"/>
<path d="M91.975 87.0879L91.9503 87.232L91.3779 90.3236H92.0903L92.6915 87.0879H91.975Z" fill="white"/>
<path d="M93.1158 87.084L93.0294 87.5533L92.5146 90.3279H93.227L93.4947 88.8747H94.6765L95.36 90.3279H96.1753L95.4424 88.8747H96.3854L96.7148 87.084H93.1117H93.1158ZM95.7636 88.389H93.5853L93.7376 87.5739H95.9159L95.7636 88.389Z" fill="white"/>
<path d="M70.8377 97.2109C69.5282 97.2109 68.4658 98.273 68.4658 99.5821C68.4658 100.891 69.5282 101.953 70.8377 101.953C72.1471 101.953 73.2095 100.891 73.2095 99.5821C73.2095 98.273 72.1471 97.2109 70.8377 97.2109ZM70.8377 101.603C69.7217 101.603 68.8158 100.698 68.8158 99.5821C68.8158 99.0223 69.0464 98.5159 69.4129 98.1495C69.3306 98.3389 69.2853 98.5447 69.2853 98.7629C69.2853 99.6192 69.9812 100.315 70.8377 100.315C71.6942 100.315 72.3901 99.6192 72.3901 98.7629C72.3901 98.5447 72.3448 98.3389 72.2624 98.1495C72.633 98.5159 72.8636 99.0223 72.8636 99.5821C72.8636 100.698 71.9577 101.603 70.8418 101.603H70.8377Z" fill="white"/>
</g>
<defs>
<clipPath id="clip0_5081_1128">
<rect width="133" height="118" fill="white"/>
</clipPath>
</defs>
</svg>
