<svg width="48" height="48" viewBox="0 0 48 48" fill="none" xmlns="http://www.w3.org/2000/svg">
<g id="currency-exchange">
<path id="stroke1" d="M42.896 26C41.8966 35.5533 33.8179 43 24 43C16.3645 43 9.78104 38.4961 6.7613 32M5 41V31H11M5.10352 22C6.10291 12.4467 14.1816 5 23.9995 5C31.635 5 38.2185 9.50394 41.2382 16M42.9995 7V17H36.9995" stroke="black" stroke-width="4" stroke-linecap="square"/>
<path id="stroke1_2" d="M27.1179 16.2512C29.2035 18.3368 29.8388 21.3209 29.0266 23.9555L34.0001 28.929L28.929 34.0001L23.9555 29.0266C21.3209 29.8388 18.3368 29.2035 16.2512 27.1179C13.9986 24.8653 13.4362 21.5621 14.5653 18.7861L15.1645 18.7868L19.5112 23.1334L23.1334 19.5112L18.7868 15.1645L18.7861 14.5653C21.5621 13.4362 24.8653 13.9986 27.1179 16.2512Z" fill="black"/>
</g>
</svg>
