<svg width="48" height="48" viewBox="0 0 48 48" fill="none" xmlns="http://www.w3.org/2000/svg">
<circle cx="24" cy="24" r="22" stroke="#0A0A0A" stroke-width="4"/>
<path d="M19.667 14.0015C22.2441 14.0016 24.3329 16.0904 24.333 18.6675C24.333 19.8737 23.8752 20.973 23.124 21.8013L26.208 25.4517C26.4579 25.3741 26.7237 25.3335 26.999 25.3335C27.767 25.3335 28.4577 25.6596 28.9443 26.1792L31.8193 24.4282C31.7205 24.0802 31.6661 23.7132 31.666 23.3335C31.666 21.1245 33.4571 19.3337 35.666 19.3335C37.8752 19.3335 39.666 21.1244 39.666 23.3335C39.6658 25.5425 37.875 27.3335 35.666 27.3335C34.5581 27.3334 33.5554 26.8826 32.8311 26.1548L29.6611 28.0864C29.6153 29.519 28.4427 30.6665 26.999 30.6665C25.5265 30.6663 24.333 29.4721 24.333 27.9995C24.3331 27.5356 24.4508 27.0992 24.6592 26.7192L21.4873 22.9644C20.9278 23.2017 20.313 23.3344 19.667 23.3345C19.2208 23.3345 18.7895 23.2698 18.3809 23.1528C17.7371 24.119 17.0745 25.1178 16.457 26.0386C16.3243 26.2364 16.1921 26.4297 16.0645 26.6196C16.7234 27.3327 17.127 28.286 17.127 29.3335C17.1267 31.5423 15.3358 33.3333 13.127 33.3335C10.9179 33.3335 9.12716 31.5425 9.12695 29.3335C9.12695 27.1244 10.9178 25.3335 13.127 25.3335C13.5658 25.3335 13.9877 25.405 14.3828 25.5356C14.5168 25.3362 14.656 25.1329 14.7959 24.9243C15.3797 24.0538 16.0037 23.113 16.6152 22.1968C15.6265 21.3411 15 20.0777 15 18.6675C15.0001 16.0903 17.0898 14.0015 19.667 14.0015Z" fill="#0A0A0A"/>
</svg>
