<svg width="42" height="29" viewBox="0 0 42 29" fill="none" xmlns="http://www.w3.org/2000/svg">
<rect x="0.25" y="0.25" width="41.5" height="28.5" rx="1.75" fill="white" stroke="#F3F3F3" stroke-width="0.5"/>
<path fill-rule="evenodd" clip-rule="evenodd" d="M19.1452 14.6857L19.3281 13.5196L18.9208 13.5101H16.9758L18.3275 4.90465C18.3317 4.87859 18.3453 4.8544 18.3652 4.8372C18.3852 4.81999 18.4106 4.81055 18.4373 4.81055H21.7169C22.8057 4.81055 23.5571 5.03799 23.9493 5.48698C24.1332 5.69761 24.2504 5.91777 24.3071 6.15997C24.3665 6.41416 24.3675 6.71781 24.3095 7.08823L24.3053 7.11517V7.35255L24.4892 7.45718C24.6441 7.53968 24.7672 7.63408 24.8616 7.74214C25.0189 7.92229 25.1206 8.15121 25.1636 8.42251C25.2081 8.70158 25.1934 9.03375 25.1206 9.40977C25.0367 9.84224 24.901 10.219 24.7178 10.5271C24.5494 10.8111 24.3347 11.0467 24.0798 11.2292C23.8364 11.4027 23.5473 11.5344 23.2204 11.6186C22.9035 11.7014 22.5424 11.7432 22.1462 11.7432H21.891C21.7085 11.7432 21.5313 11.8092 21.3921 11.9275C21.2525 12.0482 21.1603 12.2132 21.132 12.3937L21.1127 12.4987L20.7896 14.5542L20.775 14.6296C20.7711 14.6535 20.7644 14.6654 20.7546 14.6734C20.7459 14.6808 20.7334 14.6857 20.7211 14.6857H19.1452Z" fill="#28356A"/>
<path fill-rule="evenodd" clip-rule="evenodd" d="M24.6634 7.14258C24.6537 7.20541 24.6425 7.26962 24.6299 7.33561C24.1975 9.5652 22.7177 10.3354 20.828 10.3354H19.8657C19.6346 10.3354 19.4398 10.5039 19.4039 10.7328L18.7717 14.759C18.7483 14.9094 18.8637 15.0448 19.0147 15.0448H20.7213C20.9234 15.0448 21.095 14.8974 21.1269 14.6973L21.1436 14.6103L21.4649 12.5629L21.4856 12.4506C21.517 12.2498 21.6891 12.1023 21.8912 12.1023H22.1464C23.7998 12.1023 25.0943 11.4283 25.4726 9.47779C25.6306 8.663 25.5488 7.98264 25.1306 7.50415C25.0041 7.35989 24.8471 7.24012 24.6634 7.14258Z" fill="#298FC2"/>
<path fill-rule="evenodd" clip-rule="evenodd" d="M24.211 6.96146C24.1449 6.94209 24.0768 6.92459 24.0068 6.90875C23.9365 6.89332 23.8645 6.87965 23.7904 6.86765C23.531 6.82556 23.2467 6.8056 22.9422 6.8056H20.3716C20.3083 6.8056 20.2481 6.81996 20.1944 6.84592C20.0758 6.90315 19.9877 7.01584 19.9664 7.1538L19.4195 10.6314L19.4038 10.7328C19.4398 10.5039 19.6346 10.3355 19.8657 10.3355H20.8279C22.7177 10.3355 24.1974 9.56482 24.6299 7.33562C24.6428 7.26964 24.6537 7.20542 24.6634 7.14259C24.554 7.08428 24.4355 7.03442 24.3079 6.99194C24.2764 6.98142 24.2438 6.97129 24.211 6.96146Z" fill="#22284F"/>
<path fill-rule="evenodd" clip-rule="evenodd" d="M19.9663 7.15383C19.9877 7.01587 20.0757 6.90318 20.1943 6.84634C20.2485 6.82028 20.3082 6.80592 20.3716 6.80592H22.9421C23.2466 6.80592 23.5309 6.82598 23.7904 6.86807C23.8645 6.87997 23.9365 6.89374 24.0068 6.90917C24.0767 6.92491 24.1449 6.94251 24.211 6.96178C24.2438 6.97162 24.2763 6.98184 24.3081 6.99197C24.4358 7.03445 24.5544 7.0847 24.6638 7.14262C24.7924 6.31869 24.6627 5.7577 24.219 5.24971C23.7298 4.69039 22.847 4.45105 21.7173 4.45105H18.4377C18.2069 4.45105 18.0101 4.61949 17.9744 4.84881L16.6084 13.5427C16.5815 13.7147 16.7136 13.8699 16.8864 13.8699H18.9111L19.9663 7.15383Z" fill="#28356A"/>
<path fill-rule="evenodd" clip-rule="evenodd" d="M9.4823 17.0526H7.09109C6.92744 17.0526 6.78827 17.172 6.76271 17.3342L5.79559 23.4907C5.7764 23.6122 5.87012 23.7216 5.99284 23.7216H7.13438C7.29803 23.7216 7.4372 23.6024 7.46276 23.4398L7.72356 21.7793C7.74873 21.6167 7.88819 21.4974 8.05155 21.4974H8.8085C10.3836 21.4974 11.2926 20.732 11.5301 19.2155C11.6371 18.552 11.5346 18.0307 11.2252 17.6656C10.8853 17.2647 10.2825 17.0526 9.4823 17.0526ZM9.75802 19.3012C9.62728 20.1627 8.97169 20.1627 8.33785 20.1627H7.97696L8.23012 18.5538C8.24521 18.4565 8.32904 18.3849 8.42697 18.3849H8.59239C9.02419 18.3849 9.4315 18.3849 9.64197 18.632C9.76752 18.7794 9.80591 18.9985 9.75802 19.3012Z" fill="#28356A"/>
<path fill-rule="evenodd" clip-rule="evenodd" d="M16.691 19.2269H15.546C15.4484 19.2269 15.3641 19.2985 15.3491 19.3957L15.2984 19.7173L15.2184 19.6007C14.9705 19.2395 14.4177 19.1187 13.866 19.1187C12.6005 19.1187 11.5198 20.081 11.3094 21.4308C11.2 22.1041 11.3555 22.748 11.736 23.197C12.0849 23.6098 12.5842 23.7819 13.1782 23.7819C14.1978 23.7819 14.7631 23.1236 14.7631 23.1236L14.712 23.4431C14.6929 23.5652 14.7866 23.6748 14.9086 23.6748H15.94C16.104 23.6748 16.2425 23.5554 16.2683 23.3928L16.8872 19.4579C16.9068 19.3367 16.8134 19.2269 16.691 19.2269ZM15.0949 21.4645C14.9844 22.1213 14.4652 22.5622 13.803 22.5622C13.4705 22.5622 13.2048 22.4551 13.0341 22.2523C12.8649 22.0508 12.8006 21.764 12.8544 21.4445C12.9576 20.7933 13.4855 20.3379 14.1376 20.3379C14.4628 20.3379 14.7271 20.4465 14.9012 20.651C15.0757 20.8578 15.1449 21.1464 15.0949 21.4645Z" fill="#28356A"/>
<path fill-rule="evenodd" clip-rule="evenodd" d="M22.7015 19.3254H21.5507C21.4409 19.3254 21.3378 19.3801 21.2756 19.4718L19.6886 21.8189L19.0158 19.5633C18.9735 19.4222 18.8439 19.3254 18.6969 19.3254H17.5663C17.4288 19.3254 17.3334 19.4602 17.3771 19.5901L18.6446 23.3246L17.453 25.0135C17.3592 25.1466 17.4536 25.3295 17.6155 25.3295H18.7648C18.8739 25.3295 18.976 25.2761 19.0379 25.1863L22.865 19.6396C22.9567 19.5069 22.8626 19.3254 22.7015 19.3254Z" fill="#28356A"/>
<path fill-rule="evenodd" clip-rule="evenodd" d="M26.5375 17.0526H24.146C23.9827 17.0526 23.8436 17.172 23.818 17.3342L22.8509 23.4907C22.8317 23.6122 22.9254 23.7216 23.0474 23.7216H24.2747C24.3886 23.7216 24.4861 23.6382 24.504 23.5244L24.7785 21.7793C24.8036 21.6167 24.9432 21.4974 25.1065 21.4974H25.8631C27.4385 21.4974 28.3473 20.732 28.585 19.2155C28.6924 18.552 28.5893 18.0307 28.2798 17.6656C27.9402 17.2647 27.3378 17.0526 26.5375 17.0526ZM26.8134 19.3012C26.683 20.1627 26.0274 20.1627 25.3932 20.1627H25.0327L25.2862 18.5538C25.3012 18.4565 25.3844 18.3849 25.4827 18.3849H25.6481C26.0795 18.3849 26.4872 18.3849 26.6977 18.632C26.8232 18.7794 26.8613 18.9985 26.8134 19.3012Z" fill="#298FC2"/>
<path fill-rule="evenodd" clip-rule="evenodd" d="M33.7448 19.2269H32.6004C32.5022 19.2269 32.4186 19.2985 32.4039 19.3957L32.3532 19.7173L32.2728 19.6007C32.0249 19.2395 31.4725 19.1187 30.9207 19.1187C29.6554 19.1187 28.575 20.081 28.3646 21.4308C28.2555 22.1041 28.4103 22.748 28.7907 23.197C29.1404 23.6098 29.6389 23.7819 30.233 23.7819C31.2525 23.7819 31.8179 23.1236 31.8179 23.1236L31.7669 23.4431C31.7477 23.5652 31.8413 23.6748 31.9641 23.6748H32.9952C33.1584 23.6748 33.2976 23.5554 33.3232 23.3928L33.9423 19.4579C33.9612 19.3367 33.8675 19.2269 33.7448 19.2269ZM32.1486 21.4645C32.0389 22.1213 31.5189 22.5622 30.8567 22.5622C30.5249 22.5622 30.2585 22.4551 30.0878 22.2523C29.9186 22.0508 29.855 21.764 29.9081 21.4445C30.012 20.7933 30.5392 20.3379 31.1913 20.3379C31.5165 20.3379 31.7808 20.4465 31.9549 20.651C32.13 20.8578 32.1993 21.1464 32.1486 21.4645Z" fill="#298FC2"/>
<path fill-rule="evenodd" clip-rule="evenodd" d="M34.9993 17.2218L34.0179 23.491C33.9987 23.6125 34.0923 23.7219 34.2144 23.7219H35.2011C35.3651 23.7219 35.5042 23.6027 35.5293 23.4401L36.4972 17.284C36.5164 17.1625 36.4227 17.0526 36.3007 17.0526H35.1959C35.0983 17.0529 35.0144 17.1246 34.9993 17.2218Z" fill="#298FC2"/>
</svg>
