<svg width="39" height="25" viewBox="0 0 39 25" fill="none" xmlns="http://www.w3.org/2000/svg">
<g clip-path="url(#clip0_3289_674)">
<g clip-path="url(#clip1_3289_674)">
<path fill-rule="evenodd" clip-rule="evenodd" d="M35.2474 0H3.02165C1.30966 0 0.000488281 1.30917 0.000488281 3.02116V21.1482C0.000488281 22.8601 1.41037 24.1693 3.02165 24.1693H35.2474C36.9594 24.1693 38.2686 22.8601 38.2686 21.1482V3.02116C38.2686 1.30917 36.8587 0 35.2474 0Z" fill="#FFB3C7"/>
<path fill-rule="evenodd" clip-rule="evenodd" d="M35.2472 1.00684C36.355 1.00684 37.2613 1.91319 37.2613 3.02095V21.1479C37.2613 22.2557 36.355 23.162 35.2472 23.162H3.02143C1.91367 23.162 1.00732 22.2557 1.00732 21.1479V3.02095C1.00732 1.91319 1.91367 1.00684 3.02143 1.00684H35.2472Z" fill="#FFB3C7"/>
<path d="M34.3583 13.2772C33.8678 13.2772 33.4701 13.68 33.4701 14.1755C33.4701 14.672 33.8678 15.0748 34.3583 15.0748C34.8497 15.0748 35.2475 14.672 35.2475 14.1755C35.2486 13.9385 35.1555 13.7108 34.9888 13.5423C34.8221 13.3739 34.5953 13.2785 34.3583 13.2772ZM31.4348 12.5823C31.4348 11.9016 30.8608 11.3507 30.1518 11.3507C29.4428 11.3507 28.8688 11.9016 28.8688 12.5813C28.8688 13.2611 29.4428 13.813 30.1518 13.813C30.8608 13.813 31.4348 13.2611 31.4348 12.5813V12.5823ZM31.4398 10.1896H32.8558V14.9731H31.4398V14.668C31.0274 14.9535 30.5376 15.1064 30.036 15.106C28.6573 15.106 27.5405 13.9761 27.5405 12.5813C27.5405 11.1876 28.6583 10.0577 30.036 10.0577C30.5566 10.0577 31.039 10.2188 31.4398 10.4957V10.1896ZM20.1074 10.813V10.1896H18.6573V14.9731H20.1105V12.7405C20.1105 11.9862 20.9181 11.5823 21.4791 11.5823H21.4952V10.1906C20.9211 10.1906 20.3914 10.4393 20.1074 10.813ZM16.4961 12.5813C16.4961 11.9016 15.9221 11.3507 15.2132 11.3507C14.5052 11.3507 13.9302 11.9016 13.9302 12.5813C13.9302 13.2611 14.5042 13.813 15.2132 13.813C15.9221 13.813 16.4961 13.2611 16.4961 12.5813ZM16.5012 10.1896H17.9171V14.9731H16.5012V14.668C16.0885 14.9537 15.5983 15.1066 15.0963 15.106C13.7187 15.106 12.6009 13.9761 12.6009 12.5813C12.6009 11.1876 13.7187 10.0577 15.0963 10.0577C15.617 10.0577 16.1004 10.2188 16.5002 10.4957L16.5012 10.1896ZM25.0239 10.0607C24.4589 10.0607 23.9232 10.2389 23.5657 10.7284V10.1896H22.1558V14.9731H23.5828V12.4595C23.5828 11.7324 24.0652 11.3759 24.6452 11.3759C25.2676 11.3759 25.6251 11.7525 25.6251 12.4494V14.9741H27.04V11.9318C27.04 10.818 26.1639 10.0607 25.0239 10.0607ZM10.5394 14.9751H12.0218V8.05664H10.5394V14.9731V14.9751ZM4.02881 14.9751H5.5978V8.05664H4.02881V14.9751ZM9.51726 8.05664C9.52124 8.78462 9.38159 9.50624 9.10631 10.1802C8.83104 10.8541 8.42553 11.4671 7.91302 11.9842L10.0822 14.9751H8.14363L5.78612 11.7243L6.39438 11.2631C6.89055 10.8893 7.29253 10.4047 7.56825 9.84799C7.84398 9.29129 7.98583 8.67787 7.98251 8.05664H9.51726Z" fill="#0A0B09"/>
</g>
</g>
<defs>
<clipPath id="clip0_3289_674">
<rect width="38.2681" height="24.1693" fill="white"/>
</clipPath>
<clipPath id="clip1_3289_674">
<rect width="38.2681" height="24.1693" fill="white" transform="translate(0.000488281)"/>
</clipPath>
</defs>
</svg>
