<svg width="42" height="29" viewBox="0 0 42 29" fill="none" xmlns="http://www.w3.org/2000/svg">
<rect x="0.25" y="0.25" width="41.5" height="28.5" rx="1.75" fill="white" stroke="#F3F3F3" stroke-width="0.5"/>
<path d="M24.8453 21.0079H17.3497V7.62134H24.8453V21.0079Z" fill="#FF5F00"/>
<path d="M17.8299 14.3136C17.8299 11.598 19.1094 9.17911 21.1018 7.62027C19.6448 6.48036 17.8059 5.79999 15.8075 5.79999C11.0765 5.79999 7.24138 9.61159 7.24138 14.3136C7.24138 19.0155 11.0765 22.8271 15.8075 22.8271C17.8059 22.8271 19.6448 22.1468 21.1018 21.0069C19.1094 19.448 17.8299 17.0291 17.8299 14.3136Z" fill="#EB001B"/>
<path d="M34.9546 14.3136C34.9546 19.0155 31.1195 22.8271 26.3885 22.8271C24.39 22.8271 22.5512 22.1468 21.0936 21.0069C23.0866 19.448 24.3661 17.0291 24.3661 14.3136C24.3661 11.598 23.0866 9.17911 21.0936 7.62027C22.5512 6.48036 24.39 5.79999 26.3885 5.79999C31.1195 5.79999 34.9546 9.61159 34.9546 14.3136Z" fill="#F79E1B"/>
</svg>
