<svg width="39" height="25" viewBox="0 0 39 25" fill="none" xmlns="http://www.w3.org/2000/svg">
<g clip-path="url(#clip0_3289_752)">
<g clip-path="url(#clip1_3289_752)">
<path d="M34.6302 0H3.63876C3.50966 0 3.38033 0 3.25146 0.000684263C3.14267 0.00159661 3.0341 0.00273705 2.9253 0.00570219C2.68832 0.0120887 2.44928 0.0262301 2.21526 0.0681982C1.98057 0.108408 1.75318 0.183359 1.54058 0.290584C1.11318 0.507969 0.765782 0.855367 0.548396 1.28277C0.44098 1.49545 0.36602 1.72302 0.326011 1.95791C0.283586 2.19215 0.269673 2.43096 0.263287 2.66771C0.260507 2.77642 0.258834 2.88514 0.258269 2.99388C0.257812 3.12252 0.257812 3.25162 0.257812 3.38094V20.7881C0.257812 20.9175 0.257812 21.0463 0.258269 21.1757C0.258953 21.2842 0.260321 21.393 0.263287 21.5018C0.269673 21.7381 0.283814 21.9772 0.326011 22.2112C0.365938 22.4461 0.440821 22.6736 0.548168 22.8863C0.656096 23.0987 0.796973 23.2927 0.965569 23.4611C1.13388 23.6298 1.32788 23.7707 1.54035 23.8785C1.75635 23.9887 1.97759 24.0587 2.21549 24.1013C2.44928 24.1431 2.68832 24.1572 2.9253 24.1636C3.0341 24.1661 3.14267 24.1675 3.25146 24.1682C3.38033 24.1691 3.50966 24.1691 3.63876 24.1691H34.6302C34.759 24.1691 34.8884 24.1691 35.0172 24.1682C35.1258 24.1677 35.2344 24.1661 35.3436 24.1636C35.5802 24.1572 35.8192 24.1431 36.0537 24.1013C36.2884 24.0611 36.5158 23.986 36.7284 23.8785C37.1555 23.6608 37.5029 23.3135 37.7205 22.8863C37.8307 22.6703 37.9005 22.4491 37.9427 22.2112C37.9851 21.9772 37.9988 21.7381 38.0052 21.5018C38.0082 21.393 38.0098 21.2842 38.0102 21.1757C38.0111 21.0463 38.0111 20.9175 38.0111 20.7881V3.38117C38.0111 3.25185 38.0111 3.12275 38.0102 2.99365C38.0098 2.88499 38.0081 2.77634 38.0052 2.66771C37.9988 2.43096 37.9851 2.19215 37.9427 1.95791C37.903 1.72298 37.8281 1.49538 37.7205 1.28277C37.503 0.855441 37.1557 0.508072 36.7284 0.290584C36.5157 0.183469 36.2883 0.108597 36.0537 0.0684263C35.8192 0.0262301 35.5802 0.0123167 35.3436 0.00593028C35.2349 0.00316752 35.1261 0.00149479 35.0172 0.000912351C34.8884 0 34.759 0 34.6302 0Z" fill="black"/>
<path d="M34.6307 0.805664L35.0121 0.806348C35.1152 0.807033 35.2185 0.808173 35.3223 0.81091C35.5032 0.815928 35.7144 0.825736 35.9114 0.861089C36.0825 0.891881 36.2262 0.938639 36.364 1.00889C36.6397 1.14906 36.8636 1.37328 37.0035 1.64913C37.0733 1.78599 37.1199 1.92877 37.1506 2.10143C37.1858 2.29622 37.1956 2.50811 37.2004 2.6899C37.2033 2.79254 37.2047 2.89518 37.2049 3.0001C37.2061 3.12714 37.2061 3.25396 37.2061 3.38123V20.7884C37.2061 20.9157 37.2061 21.0425 37.2052 21.1721C37.2047 21.2747 37.2033 21.3774 37.2006 21.48C37.1956 21.6616 37.1858 21.8734 37.1502 22.0705C37.1243 22.2273 37.0747 22.3792 37.0031 22.521C36.8629 22.7969 36.6386 23.0211 36.3626 23.1612C36.2257 23.231 36.0825 23.2778 35.913 23.3083C35.7121 23.3442 35.4918 23.354 35.3259 23.3585C35.2217 23.3608 35.1179 23.3624 35.0114 23.3629C34.8848 23.3638 34.7575 23.3638 34.6307 23.3638H3.63429C3.50884 23.3638 3.38339 23.3638 3.25566 23.3629C3.15301 23.3624 3.05037 23.361 2.94774 23.3588C2.77804 23.3542 2.55771 23.3442 2.35836 23.3086C2.20075 23.2823 2.04802 23.2323 1.90538 23.1603C1.76855 23.0908 1.64367 23 1.53542 22.8912C1.42683 22.7828 1.33614 22.6578 1.26673 22.521C1.19506 22.3784 1.14538 22.2257 1.11939 22.0682C1.08381 21.8714 1.07377 21.6604 1.06921 21.4802C1.06663 21.3772 1.06511 21.2742 1.06465 21.1712L1.06396 20.8685V3.3014L1.06442 2.99918C1.06489 2.896 1.06641 2.79282 1.06898 2.68967C1.074 2.50902 1.08381 2.29804 1.11962 2.09961C1.14566 1.94242 1.19534 1.79008 1.26696 1.64776C1.3363 1.51137 1.42662 1.38683 1.53611 1.27758C1.64462 1.1689 1.76963 1.07806 1.90652 1.00843C2.04882 0.936946 2.20106 0.887275 2.35813 0.861089C2.55543 0.825736 2.76687 0.815928 2.94797 0.81091C3.05107 0.808173 3.15439 0.807033 3.2568 0.806348L3.6393 0.805664H34.6307Z" fill="white"/>
<path d="M10.1824 8.15901C10.5027 7.75871 10.7198 7.22111 10.6625 6.67188C10.1941 6.69514 9.62246 6.98093 9.29128 7.38168C8.99408 7.72473 8.7311 8.28468 8.79952 8.81088C9.32549 8.8565 9.85101 8.54813 10.1824 8.15901Z" fill="black"/>
<path d="M10.6558 8.91322C9.89172 8.8676 9.24258 9.34659 8.87786 9.34659C8.51292 9.34659 7.95434 8.93603 7.35013 8.9472C6.56391 8.95861 5.83449 9.40338 5.43534 10.1105C4.61468 11.5246 5.21865 13.623 6.01696 14.7748C6.40448 15.3451 6.8716 15.9723 7.48699 15.9497C8.06861 15.9269 8.29647 15.5734 9.00308 15.5734C9.70947 15.5734 9.91475 15.9497 10.5304 15.9383C11.1685 15.9269 11.5677 15.3681 11.9552 14.7979C12.4 14.1478 12.5818 13.5206 12.5932 13.4864C12.5818 13.475 11.3624 13.0072 11.351 11.6044C11.3396 10.4298 12.3085 9.87096 12.3541 9.83652C11.807 9.02726 10.9521 8.93603 10.6556 8.91322" fill="black"/>
<path d="M18.2708 7.32422C19.9309 7.32422 21.087 8.46853 21.087 10.1345C21.087 11.8064 19.9071 12.9566 18.2293 12.9566H16.3914V15.8798H15.0635V7.32422H18.2708ZM16.3914 11.842H17.915C19.0714 11.842 19.7292 11.2195 19.7292 10.1404C19.7292 9.06156 19.0712 8.44481 17.921 8.44481H16.3914V11.842Z" fill="black"/>
<path d="M21.417 14.1065C21.417 13.0097 22.2529 12.3813 23.7943 12.2864L25.4484 12.1856V11.7112C25.4484 11.0178 24.992 10.6382 24.1798 10.6382C23.5097 10.6382 23.0234 10.982 22.9231 11.5095H21.7251C21.7609 10.401 22.8042 9.59473 24.2154 9.59473C25.7331 9.59473 26.7232 10.3892 26.7232 11.6224V15.8792H25.4961V14.8535H25.4665C25.1166 15.5234 24.3456 15.9442 23.5097 15.9442C22.2767 15.9442 21.417 15.2093 21.417 14.1065ZM25.4484 13.5552V13.0749L23.9723 13.1698C23.142 13.2231 22.7096 13.5313 22.7096 14.0707C22.7096 14.5926 23.16 14.9306 23.8655 14.9306C24.7665 14.9306 25.4484 14.3554 25.4484 13.5552Z" fill="black"/>
<path d="M27.8511 18.1677V17.1422C27.9341 17.1538 28.1355 17.1657 28.2423 17.1657C28.8292 17.1657 29.1613 16.9171 29.3629 16.2764L29.4815 15.8971L27.2344 9.67188H28.6216L30.187 14.7231H30.2166L31.7818 9.67188H33.1336L30.8035 16.2112C30.2698 17.7113 29.6592 18.2035 28.3668 18.2035C28.266 18.2035 27.9398 18.1916 27.8511 18.1677Z" fill="black"/>
</g>
</g>
<defs>
<clipPath id="clip0_3289_752">
<rect width="38.2681" height="24.1693" fill="white"/>
</clipPath>
<clipPath id="clip1_3289_752">
<rect width="38.2681" height="24.1693" fill="white" transform="translate(0.000488281)"/>
</clipPath>
</defs>
</svg>
