<svg width="39" height="25" viewBox="0 0 39 25" fill="none" xmlns="http://www.w3.org/2000/svg">
<g clip-path="url(#clip0_3289_725)">
<g clip-path="url(#clip1_3289_725)">
<path opacity="0.07" d="M35.2474 0H3.02165C1.30966 0 0.000488281 1.30917 0.000488281 3.02116V21.1482C0.000488281 22.8601 1.41037 24.1693 3.02165 24.1693H35.2474C36.9594 24.1693 38.2686 22.8601 38.2686 21.1482V3.02116C38.2686 1.30917 36.8587 0 35.2474 0Z" fill="black"/>
<path d="M35.2472 1.00684C36.355 1.00684 37.2613 1.91319 37.2613 3.02095V21.1479C37.2613 22.2557 36.355 23.162 35.2472 23.162H3.02143C1.91367 23.162 1.00732 22.2557 1.00732 21.1479V3.02095C1.00732 1.91319 1.91367 1.00684 3.02143 1.00684H35.2472Z" fill="white"/>
<path d="M12.0847 12.0845V15.8106C12.0847 16.1128 11.8833 16.1128 11.5812 16.0121C9.66778 15.2064 8.56002 12.6888 9.26495 10.574C9.66778 9.4662 10.4734 8.55985 11.5812 8.15703C11.984 7.95562 12.0847 8.05632 12.0847 8.35844V12.0845ZM14.0988 12.0845V8.35844C14.0988 8.05632 14.0988 8.05632 14.4009 8.15703C16.5157 8.96267 17.6235 11.4803 16.8179 13.5951C16.415 14.7029 15.6094 15.6092 14.5016 16.0121C14.0988 16.2135 14.0988 16.1128 14.0988 15.8106V12.0845ZM21.3496 5.03516H13.0918C16.9186 5.03516 19.9397 8.15703 19.9397 12.0845C19.9397 16.0121 16.9186 19.1339 13.0918 19.1339H21.3496C25.1764 19.1339 28.1976 16.0121 28.1976 12.0845C28.1976 8.15703 25.1764 5.03516 21.3496 5.03516Z" fill="#3086C8"/>
</g>
</g>
<defs>
<clipPath id="clip0_3289_725">
<rect width="38.2681" height="24.1693" fill="white"/>
</clipPath>
<clipPath id="clip1_3289_725">
<rect width="38.2681" height="24.1693" fill="white"/>
</clipPath>
</defs>
</svg>
