<svg width="39" height="25" viewBox="0 0 39 25" fill="none" xmlns="http://www.w3.org/2000/svg">
<g clip-path="url(#clip0_3289_695)">
<g clip-path="url(#clip1_3289_695)">
<path opacity="0.07" d="M35.2479 0H3.02214C1.31015 0 0.000976562 1.30917 0.000976562 3.02116V21.1482C0.000976562 22.8601 1.41085 24.1693 3.02214 24.1693H35.2479C36.9599 24.1693 38.2691 22.8601 38.2691 21.1482V3.02116C38.2691 1.30917 36.8592 0 35.2479 0Z" fill="black"/>
<path d="M35.2477 1.00684C36.3554 1.00684 37.2618 1.91319 37.2618 3.02095V21.1479C37.2618 22.2557 36.3554 23.162 35.2477 23.162H3.02192C1.91416 23.162 1.00781 22.2557 1.00781 21.1479V3.02095C1.00781 1.91319 1.91416 1.00684 3.02192 1.00684H35.2477Z" fill="white"/>
<path d="M15.107 19.1339C19.0003 19.1339 22.1564 15.9778 22.1564 12.0845C22.1564 8.19127 19.0003 5.03516 15.107 5.03516C11.2137 5.03516 8.05762 8.19127 8.05762 12.0845C8.05762 15.9778 11.2137 19.1339 15.107 19.1339Z" fill="#EB001B"/>
<path d="M23.1627 19.1339C27.0559 19.1339 30.2121 15.9778 30.2121 12.0845C30.2121 8.19127 27.0559 5.03516 23.1627 5.03516C19.2694 5.03516 16.1133 8.19127 16.1133 12.0845C16.1133 15.9778 19.2694 19.1339 23.1627 19.1339Z" fill="#00A2E5"/>
<path d="M22.1556 12.0849C22.1556 9.66801 20.9471 7.55319 19.1344 6.34473C17.3217 7.6539 16.1133 9.76871 16.1133 12.0849C16.1133 14.4012 17.3217 16.6167 19.1344 17.8252C20.9471 16.6167 22.1556 14.5019 22.1556 12.0849Z" fill="#7375CF"/>
</g>
</g>
<defs>
<clipPath id="clip0_3289_695">
<rect width="38.2681" height="24.1693" fill="white"/>
</clipPath>
<clipPath id="clip1_3289_695">
<rect width="38.2681" height="24.1693" fill="white" transform="translate(0.000488281)"/>
</clipPath>
</defs>
</svg>
