<svg width="39" height="25" viewBox="0 0 39 25" fill="none" xmlns="http://www.w3.org/2000/svg">
<g clip-path="url(#clip0_3289_731)">
<g clip-path="url(#clip1_3289_731)">
<path opacity="0.07" d="M35.2469 0H3.02116C1.30917 0 0 1.30917 0 3.02116V21.1482C0 22.8601 1.40988 24.1693 3.02116 24.1693H35.2469C36.9589 24.1693 38.2681 22.8601 38.2681 21.1482V3.02116C38.2681 1.30917 36.8582 0 35.2469 0Z" fill="black"/>
<path d="M35.2467 1.00684C36.3545 1.00684 37.2608 1.91319 37.2608 3.02095V21.1479C37.2608 22.2557 36.3545 23.162 35.2467 23.162H3.02095C1.91319 23.162 1.00684 22.2557 1.00684 21.1479V3.02095C1.00684 1.91319 1.91319 1.00684 3.02095 1.00684H35.2467Z" fill="white"/>
<path d="M3.59524 7.21069H2.01416V12.7495H3.59524C4.43109 12.7495 5.03533 12.5481 5.56906 12.115C6.20351 11.5914 6.57612 10.8059 6.57612 9.99016C6.56605 8.34866 5.34751 7.21069 3.59524 7.21069ZM4.86413 11.3799C4.52173 11.682 4.08869 11.823 3.38375 11.823H3.09171V8.15732H3.38375C4.07862 8.15732 4.50159 8.27817 4.86413 8.60043C5.23674 8.93275 5.45829 9.44635 5.45829 9.98009C5.45829 10.5138 5.23674 11.0476 4.86413 11.3799ZM7.06958 7.21069H8.14712V12.7495H7.06958V7.21069ZM10.7856 9.33558C10.1411 9.09388 9.94975 8.93275 9.94975 8.64071C9.94975 8.28824 10.2922 8.0264 10.7554 8.0264C11.0777 8.0264 11.3496 8.15732 11.6215 8.47958L12.1854 7.74443C11.7222 7.34161 11.1683 7.13013 10.554 7.13013C9.57714 7.13013 8.82185 7.81492 8.82185 8.72127C8.82185 9.48663 9.17432 9.87939 10.1814 10.2419C10.6043 10.393 10.8158 10.4937 10.9266 10.5541C11.1381 10.6951 11.2489 10.8965 11.2489 11.1281C11.2489 11.5813 10.8964 11.9136 10.413 11.9136C9.8994 11.9136 9.48651 11.6518 9.23474 11.1785L8.53988 11.8532C9.03333 12.5884 9.63757 12.9106 10.4533 12.9106C11.5711 12.9106 12.3667 12.1654 12.3667 11.0879C12.3868 10.1916 12.0142 9.78875 10.7856 9.33558ZM12.7192 9.99016C12.7192 11.6216 13.9981 12.8804 15.6396 12.8804C16.1029 12.8804 16.5057 12.7898 16.9891 12.5582V11.2893C16.556 11.7223 16.1734 11.8935 15.69 11.8935C14.6023 11.8935 13.8269 11.108 13.8269 9.98009C13.8269 8.91261 14.6225 8.07676 15.6396 8.07676C16.1532 8.07676 16.546 8.25803 16.9891 8.70113V7.43224C16.5158 7.19055 16.123 7.08984 15.6598 7.08984C14.0384 7.08984 12.7192 8.37887 12.7192 9.99016ZM25.5692 10.9368L24.0888 7.21069H22.9105L25.257 12.8905H25.8411L28.2278 7.21069H27.0596L25.5692 10.9368ZM28.7213 12.7495H31.7827V11.8129H29.7988V10.3225H31.7122V9.38593H29.7988V8.15732H31.7827V7.21069H28.7213V12.7495ZM36.0627 8.85219C36.0627 7.81492 35.3477 7.22076 34.0989 7.22076H32.4977V12.7596H33.5753V10.534H33.7162L35.2067 12.7596H36.536L34.7938 10.4232C35.6095 10.252 36.0627 9.69812 36.0627 8.85219ZM33.8874 9.76861H33.5753V8.08683H33.9076C34.5823 8.08683 34.9449 8.3688 34.9449 8.91261C34.9449 9.46649 34.5823 9.76861 33.8874 9.76861Z" fill="#231F20"/>
<path d="M20.3023 12.9512C21.0851 12.9512 21.8359 12.6402 22.3894 12.0867C22.943 11.5331 23.2539 10.7824 23.2539 9.99953C23.2539 9.2167 22.943 8.46592 22.3894 7.91238C21.8359 7.35883 21.0851 7.04785 20.3023 7.04785C19.5194 7.04785 18.7687 7.35883 18.2151 7.91238C17.6616 8.46592 17.3506 9.2167 17.3506 9.99953C17.3506 10.7824 17.6616 11.5331 18.2151 12.0867C18.7687 12.6402 19.5194 12.9512 20.3023 12.9512Z" fill="url(#paint0_linear_3289_731)"/>
<path opacity="0.65" d="M20.3023 12.9512C21.0851 12.9512 21.8359 12.6402 22.3894 12.0867C22.943 11.5331 23.2539 10.7824 23.2539 9.99953C23.2539 9.2167 22.943 8.46592 22.3894 7.91238C21.8359 7.35883 21.0851 7.04785 20.3023 7.04785C19.5194 7.04785 18.7687 7.35883 18.2151 7.91238C17.6616 8.46592 17.3506 9.2167 17.3506 9.99953C17.3506 10.7824 17.6616 11.5331 18.2151 12.0867C18.7687 12.6402 19.5194 12.9512 20.3023 12.9512Z" fill="url(#paint1_linear_3289_731)"/>
<path d="M36.8278 7.55926C36.8278 7.45856 36.7573 7.4082 36.6465 7.4082H36.4854V7.89159H36.6062V7.70025L36.7472 7.89159H36.8882L36.727 7.69018C36.7875 7.68011 36.8278 7.62976 36.8278 7.55926ZM36.6263 7.62976H36.6062V7.49884H36.6263C36.6868 7.49884 36.717 7.51898 36.717 7.55926C36.717 7.60961 36.6868 7.62976 36.6263 7.62976Z" fill="#231F20"/>
<path d="M36.6671 7.22656C36.4355 7.22656 36.2441 7.4179 36.2441 7.64953C36.2441 7.88115 36.4355 8.07249 36.6671 8.07249C36.8987 8.07249 37.0901 7.88115 37.0901 7.64953C37.0901 7.4179 36.8987 7.22656 36.6671 7.22656ZM36.6671 8.00199C36.4858 8.00199 36.3247 7.85094 36.3247 7.64953C36.3247 7.45819 36.4758 7.29706 36.6671 7.29706C36.8484 7.29706 36.9994 7.45819 36.9994 7.64953C36.9994 7.84087 36.8484 8.00199 36.6671 8.00199Z" fill="#231F20"/>
<path d="M37.2608 13.0752C37.2608 13.0752 27.2809 20.0128 9.03906 23.1619H35.2457C35.777 23.1619 36.2869 22.9519 36.6642 22.5776C37.0414 22.2034 37.2555 21.6952 37.2598 21.1639L37.2839 18.1226L37.2608 13.0752Z" fill="#F48120"/>
</g>
</g>
<defs>
<linearGradient id="paint0_linear_3289_731" x1="21.8098" y1="12.3621" x2="19.7705" y2="9.16871" gradientUnits="userSpaceOnUse">
<stop stop-color="#F89F20"/>
<stop offset="0.25" stop-color="#F79A20"/>
<stop offset="0.533" stop-color="#F68D20"/>
<stop offset="0.62" stop-color="#F58720"/>
<stop offset="0.723" stop-color="#F48120"/>
<stop offset="1" stop-color="#F37521"/>
</linearGradient>
<linearGradient id="paint1_linear_3289_731" x1="21.4886" y1="12.3188" x2="18.5077" y2="6.49196" gradientUnits="userSpaceOnUse">
<stop stop-color="#F58720"/>
<stop offset="0.359" stop-color="#E16F27"/>
<stop offset="0.703" stop-color="#D4602C"/>
<stop offset="0.982" stop-color="#D05B2E"/>
</linearGradient>
<clipPath id="clip0_3289_731">
<rect width="38.2681" height="24.1693" fill="white"/>
</clipPath>
<clipPath id="clip1_3289_731">
<rect width="38.2681" height="24.1693" fill="white"/>
</clipPath>
</defs>
</svg>
