<svg width="39" height="25" viewBox="0 0 39 25" fill="none" xmlns="http://www.w3.org/2000/svg">
<g clip-path="url(#clip0_3289_681)">
<g clip-path="url(#clip1_3289_681)">
<path opacity="0.07" d="M35.2469 0H3.02116C1.30917 0 0 1.30917 0 3.02116V21.1482C0 22.8601 1.40988 24.1693 3.02116 24.1693H35.2469C36.9589 24.1693 38.2681 22.8601 38.2681 21.1482V3.02116C38.2681 1.30917 36.8582 0 35.2469 0Z" fill="black"/>
<path d="M35.2467 1.00684C36.3545 1.00684 37.2608 1.91319 37.2608 3.02095V21.1479C37.2608 22.2557 36.3545 23.162 35.2467 23.162H3.02095C1.91319 23.162 1.00684 22.2557 1.00684 21.1479V3.02095C1.00684 1.91319 1.91319 1.00684 3.02095 1.00684H35.2467Z" fill="white"/>
<path d="M28.499 10.1715H28.1969C27.7941 11.1785 27.492 11.682 27.1899 13.1926H29.1033C28.8012 11.682 28.8012 10.9771 28.499 10.1715ZM31.4195 16.1131H29.7075C29.6068 16.1131 29.6068 16.1131 29.5061 16.0124L29.3047 15.106L29.204 14.9046H26.7871C26.6863 14.9046 26.5856 14.9046 26.5856 15.106L26.2835 16.0124C26.2835 16.1131 26.1828 16.1131 26.1828 16.1131H24.068L24.2694 15.6096L27.1899 8.76158C27.1899 8.25805 27.492 8.05664 27.9955 8.05664H29.5061C29.6068 8.05664 29.7075 8.05664 29.7075 8.25805L31.1174 14.8039C31.2181 15.2067 31.3188 15.5088 31.3188 15.9117C31.4195 16.0124 31.4195 16.0124 31.4195 16.1131ZM17.925 15.811L18.3278 13.9983C18.4285 13.9983 18.5292 14.099 18.5292 14.099C19.2341 14.4011 19.9391 14.6025 20.644 14.5018C20.8454 14.5018 21.1475 14.4011 21.349 14.3004C21.8525 14.099 21.8525 13.5954 21.4497 13.1926C21.2482 12.9912 20.9461 12.8905 20.644 12.6891C20.2412 12.4877 19.8384 12.2863 19.5363 11.9842C18.3278 10.9771 18.7306 9.56722 19.4356 8.86228C20.0398 8.45946 20.3419 8.05664 21.1475 8.05664C22.356 8.05664 23.6652 8.05664 24.2694 8.25805H24.3701C24.2694 8.86228 24.1687 9.36581 23.9673 9.97004C23.4638 9.76863 22.9602 9.56722 22.4567 9.56722C22.1546 9.56722 21.8525 9.56722 21.5504 9.66793C21.349 9.66793 21.2483 9.76863 21.1475 9.86934C20.9461 10.0708 20.9461 10.3729 21.1475 10.5743L21.6511 10.9771C22.0539 11.1785 22.4567 11.3799 22.7588 11.5813C23.2624 11.8834 23.7659 12.387 23.8666 12.9912C24.068 13.8976 23.7659 14.7032 22.9602 15.3074C22.4567 15.7103 22.2553 15.9117 21.5504 15.9117C20.1405 15.9117 19.0327 16.0124 18.1264 15.7103C18.0257 15.9117 18.0257 15.9117 17.925 15.811ZM14.4003 16.1131C14.501 15.4081 14.501 15.4081 14.6017 15.106C15.1052 12.8905 15.6087 10.5743 16.0116 8.35876C16.1123 8.15735 16.1123 8.05664 16.3137 8.05664H18.1264C17.925 9.26511 17.7236 10.1715 17.4214 11.2792C17.1193 12.7898 16.8172 14.3004 16.4144 15.811C16.4144 16.0124 16.3137 16.0124 16.1123 16.0124M5.03467 8.25805C5.03467 8.15735 5.23608 8.05664 5.33678 8.05664H8.76077C9.2643 8.05664 9.66712 8.35876 9.76783 8.86228L10.6742 13.2933C10.6742 13.394 10.6742 13.394 10.7749 13.4947C10.7749 13.394 10.8756 13.394 10.8756 13.394L12.9904 8.25805C12.8897 8.15735 12.9904 8.05664 13.0911 8.05664H15.2059C15.2059 8.15735 15.2059 8.15735 15.1052 8.25805L11.9833 15.6096C11.8826 15.811 11.8826 15.9117 11.7819 16.0124C11.6812 16.1131 11.4798 16.0124 11.2784 16.0124H9.76783C9.66712 16.0124 9.56641 16.0124 9.56641 15.811L7.95513 9.56722C7.75372 9.36581 7.4516 9.0637 7.04878 8.96299C6.44454 8.66087 5.33678 8.45946 5.13537 8.45946L5.03467 8.25805Z" fill="#142688"/>
</g>
</g>
<defs>
<clipPath id="clip0_3289_681">
<rect width="38.2681" height="24.1693" fill="white"/>
</clipPath>
<clipPath id="clip1_3289_681">
<rect width="38.2681" height="24.1693" fill="white"/>
</clipPath>
</defs>
</svg>
