<svg width="39" height="25" viewBox="0 0 39 25" fill="none" xmlns="http://www.w3.org/2000/svg">
<g clip-path="url(#clip0_3289_687)">
<g clip-path="url(#clip1_3289_687)">
<path opacity="0.07" d="M35.2459 0H3.02019C1.30819 0 -0.000976562 1.30917 -0.000976562 3.02116V21.1482C-0.000976562 22.8601 1.4089 24.1693 3.02019 24.1693H35.2459C36.9579 24.1693 38.2671 22.8601 38.2671 21.1482V3.02116C38.2671 1.30917 36.8572 0 35.2459 0Z" fill="black"/>
<path d="M35.2457 1.00684C36.3535 1.00684 37.2598 1.91319 37.2598 3.02095V21.1479C37.2598 22.2557 36.3535 23.162 35.2457 23.162H3.01997C1.91221 23.162 1.00586 22.2557 1.00586 21.1479V3.02095C1.00586 1.91319 1.91221 1.00684 3.01997 1.00684H35.2457Z" fill="white"/>
<path d="M15.1041 19.1339C18.9973 19.1339 22.1535 15.9778 22.1535 12.0845C22.1535 8.19127 18.9973 5.03516 15.1041 5.03516C11.2108 5.03516 8.05469 8.19127 8.05469 12.0845C8.05469 15.9778 11.2108 19.1339 15.1041 19.1339Z" fill="#EB001B"/>
<path d="M23.1607 19.1339C27.054 19.1339 30.2101 15.9778 30.2101 12.0845C30.2101 8.19127 27.054 5.03516 23.1607 5.03516C19.2674 5.03516 16.1113 8.19127 16.1113 12.0845C16.1113 15.9778 19.2674 19.1339 23.1607 19.1339Z" fill="#F79E1B"/>
<path d="M22.1537 12.0849C22.1537 9.66801 20.9452 7.55319 19.1325 6.34473C17.3198 7.6539 16.1113 9.76871 16.1113 12.0849C16.1113 14.4012 17.3198 16.6167 19.1325 17.8252C20.9452 16.6167 22.1537 14.5019 22.1537 12.0849Z" fill="#FF5F00"/>
</g>
</g>
<defs>
<clipPath id="clip0_3289_687">
<rect width="38.2681" height="24.1693" fill="white" transform="translate(-0.000488281)"/>
</clipPath>
<clipPath id="clip1_3289_687">
<rect width="38.2681" height="24.1693" fill="white" transform="translate(-0.000976562)"/>
</clipPath>
</defs>
</svg>
