<svg width="39" height="25" viewBox="0 0 39 25" fill="none" xmlns="http://www.w3.org/2000/svg">
<g clip-path="url(#clip0_3289_703)">
<g clip-path="url(#clip1_3289_703)">
<path opacity="0.07" d="M35.2469 0H3.02116C1.30917 0 0 1.30917 0 3.02116V21.1482C0 22.8601 1.40988 24.1693 3.02116 24.1693H35.2469C36.9589 24.1693 38.2681 22.8601 38.2681 21.1482V3.02116C38.2681 1.30917 36.8582 0 35.2469 0Z" fill="black"/>
<path d="M35.2467 1.00684C36.3545 1.00684 37.2608 1.91319 37.2608 3.02095V21.1479C37.2608 22.2557 36.3545 23.162 35.2467 23.162H3.02095C1.91319 23.162 1.00684 22.2557 1.00684 21.1479V3.02095C1.00684 1.91319 1.91319 1.00684 3.02095 1.00684H35.2467Z" fill="white"/>
<path fill-rule="evenodd" clip-rule="evenodd" d="M11.5811 5.03516H15.1058V16.6163C15.1058 17.284 14.8406 17.9244 14.3684 18.3965C13.8963 18.8687 13.2559 19.1339 12.5882 19.1339H9.06348V7.55279C9.06348 6.88507 9.32873 6.2447 9.80088 5.77256C10.273 5.30041 10.9134 5.03516 11.5811 5.03516Z" fill="#006EBC"/>
<path fill-rule="evenodd" clip-rule="evenodd" d="M18.6304 5.03516H22.1551V16.6163C22.1551 17.284 21.8899 17.9244 21.4177 18.3965C20.9456 18.8687 20.3052 19.1339 19.6375 19.1339H16.1128V7.55279C16.1128 6.88507 16.378 6.2447 16.8502 5.77256C17.3223 5.30041 17.9627 5.03516 18.6304 5.03516Z" fill="#F00036"/>
<path fill-rule="evenodd" clip-rule="evenodd" d="M25.6793 5.03516H29.2039V16.6163C29.2039 17.284 28.9387 17.9244 28.4666 18.3965C27.9944 18.8687 27.354 19.1339 26.6863 19.1339H23.1616V7.55279C23.1616 6.88507 23.4269 6.2447 23.899 5.77256C24.3712 5.30041 25.0115 5.03516 25.6793 5.03516Z" fill="#2AB419"/>
<path d="M10.8305 14.6027C9.76302 14.6027 8.69353 14.2965 8.15576 13.6087L8.94126 12.928C9.00974 14.0689 12.5113 14.1767 12.5113 12.7366V9.56741H14.326V12.7366C14.326 13.4698 13.7479 14.0679 12.7419 14.3801C12.2726 14.5251 11.3673 14.6027 10.8305 14.6027ZM19.0038 14.6027C18.325 14.6027 17.606 14.4949 17.0249 14.2341C16.0702 13.8061 15.7036 13.0196 15.7157 12.0196C15.7278 10.9984 16.1548 10.225 17.1941 9.83932C18.5224 9.34586 20.5607 9.57648 21.1478 10.1112V11.0901C20.5717 10.5654 19.176 10.1857 18.2082 10.6268C17.7107 10.8544 17.466 11.5503 17.4589 12.0851C17.4529 12.649 17.7057 13.3459 18.2082 13.5926C19.1679 14.0629 20.615 13.6329 21.1478 13.1485V14.1656C20.7873 14.4224 19.8859 14.6027 19.0038 14.6027ZM27.744 11.9974C28.1166 11.7608 28.3301 11.4264 28.3301 10.9853C28.3301 10.5443 28.2133 10.2935 27.9796 10.0397C27.7722 9.83126 27.3955 9.56741 26.7329 9.56741H23.1619V14.6027H26.7329C27.4338 14.6027 27.8376 14.3711 28.0572 14.1848C28.3422 13.933 28.4862 13.651 28.4862 13.218C28.4862 12.7839 28.3301 12.3036 27.744 11.9974ZM25.8245 11.7145H24.3865V10.2603H25.892C26.8548 10.2603 26.8427 11.7145 25.8245 11.7145ZM26.1146 13.8867H24.3865V12.363H26.1146C27.1075 12.363 27.2052 13.8867 26.1146 13.8867Z" fill="white"/>
</g>
</g>
<defs>
<clipPath id="clip0_3289_703">
<rect width="38.2681" height="24.1693" fill="white"/>
</clipPath>
<clipPath id="clip1_3289_703">
<rect width="38.2681" height="24.1693" fill="white"/>
</clipPath>
</defs>
</svg>
