<svg width="39" height="25" viewBox="0 0 39 25" fill="none" xmlns="http://www.w3.org/2000/svg">
<g clip-path="url(#clip0_3289_666)">
<g clip-path="url(#clip1_3289_666)">
<path opacity="0.07" d="M35.2455 0H3.0197C1.30771 0 -0.00146484 1.30917 -0.00146484 3.02116V21.1482C-0.00146484 22.8601 1.40841 24.1693 3.0197 24.1693H35.2455C36.9575 24.1693 38.2666 22.8601 38.2666 21.1482V3.02116C38.2666 1.30917 36.8567 0 35.2455 0Z" fill="black"/>
<path d="M35.2457 1.00684C36.3535 1.00684 37.2598 1.91319 37.2598 3.02095V21.1479C37.2598 22.2557 36.3535 23.162 35.2457 23.162H3.01997C1.91221 23.162 1.00586 22.2557 1.00586 21.1479V3.02095C1.00586 1.91319 1.91221 1.00684 3.01997 1.00684H35.2457Z" fill="white"/>
<path d="M24.0675 8.35844C24.2689 7.35138 24.0675 6.64644 23.4633 6.04221C22.859 5.33727 21.7513 5.03516 20.3414 5.03516H16.2125C15.9104 5.03516 15.7089 5.23657 15.6082 5.53868L14.0977 15.7099C14.0977 15.9114 14.1984 16.1128 14.3998 16.1128H17.1188L17.5216 12.6888L19.3343 10.4733L24.0675 8.35844Z" fill="#003087"/>
<path d="M24.0668 8.3584L23.8654 8.55981C23.3619 11.3796 21.6499 12.3866 19.233 12.3866H18.1252C17.8231 12.3866 17.6217 12.588 17.521 12.8901L16.9167 16.8177L16.7153 17.8247C16.7153 18.0261 16.816 18.2275 17.0174 18.2275H19.1323C19.4344 18.2275 19.6358 18.0261 19.6358 17.8247V17.724L20.0386 15.3071V15.2064C20.0386 15.005 20.3407 14.8035 20.5421 14.8035H20.8443C22.9591 14.8035 24.5704 13.9979 24.9732 11.581C25.1746 10.5739 25.0739 9.76828 24.5704 9.16404C24.4697 8.66052 24.2682 8.4591 24.0668 8.3584Z" fill="#3086C8"/>
<path d="M23.4631 8.15759C23.3624 8.05688 23.2617 8.05688 23.161 8.05688C23.0603 8.05688 22.9596 8.05688 22.8589 7.95617C22.5568 7.85547 22.1539 7.85547 21.7511 7.85547H18.73C18.6292 7.85547 18.5285 7.85547 18.5285 7.95617C18.3271 8.05688 18.2264 8.15759 18.2264 8.359L17.5215 12.79V12.8907C17.5215 12.5886 17.8236 12.3872 18.1257 12.3872H19.4349C21.9525 12.3872 23.5638 11.3802 24.0673 8.56041V8.359C23.9666 8.25829 23.7652 8.15759 23.5638 8.15759H23.4631Z" fill="#012169"/>
</g>
</g>
<defs>
<clipPath id="clip0_3289_666">
<rect width="38.2681" height="24.1693" fill="white" transform="translate(-0.000488281)"/>
</clipPath>
<clipPath id="clip1_3289_666">
<rect width="38.2681" height="24.1693" fill="white" transform="translate(-0.000976562)"/>
</clipPath>
</defs>
</svg>
