<svg width="42" height="29" viewBox="0 0 42 29" fill="none" xmlns="http://www.w3.org/2000/svg">
<rect width="42" height="29" rx="2" fill="#006FCF"/>
<path fill-rule="evenodd" clip-rule="evenodd" d="M8.5906 20.948V14.9779H15.3422L16.0666 15.8621L16.8149 14.9779H41.3216V20.5363C41.3216 20.5363 40.6807 20.942 39.9395 20.948H26.3696L25.5529 20.0069V20.948H22.8767V19.3415C22.8767 19.3415 22.5111 19.5658 21.7207 19.5658H20.8098V20.948H16.7577L16.0343 20.0449L15.2999 20.948H8.5906ZM0.724136 10.4784L2.2432 7.15515H4.87026L5.73235 9.01668V7.15515H8.99803L9.51123 8.50061L10.0088 7.15515H24.6683V7.83156C24.6683 7.83156 25.4389 7.15515 26.7054 7.15515L31.4619 7.17075L32.3091 9.00792V7.15515H35.042L35.7942 8.21046V7.15515H38.5521V13.1252H35.7942L35.0733 12.0665V13.1252H31.0581L30.6543 12.1841H29.5749L29.1777 13.1252H26.4547C25.3649 13.1252 24.6683 12.4626 24.6683 12.4626V13.1252H20.5627L19.7478 12.1841V13.1252H4.48108L4.07757 12.1841H3.00158L2.60093 13.1252H0.724136V10.4784ZM0.731972 12.3613L2.78086 7.89113H4.33417L6.3811 12.3613H5.01778L4.6417 11.4662H2.44395L2.0659 12.3613H0.731972ZM4.20881 10.4957L3.5389 8.93147L2.86704 10.4957H4.20881ZM6.52213 12.3605V7.89037L8.41772 7.89698L9.52026 10.7791L10.5964 7.89037H12.4768V12.3605H11.2859V9.06674L10.0235 12.3605H8.97901L7.71307 9.06674V12.3605H6.52213ZM13.2917 12.3605V7.89037H17.1779V8.89028H14.4952V9.65492H17.1152V10.596H14.4952V11.39H17.1779V12.3605H13.2917ZM17.8674 12.3613V7.89113H20.5176C21.3958 7.89113 22.1826 8.40068 22.1826 9.34136C22.1826 10.1455 21.5192 10.6635 20.8761 10.7144L22.4431 12.3613H20.9877L19.5598 10.7732H19.0583V12.3613H17.8674ZM20.4197 8.89103H19.0583V9.83212H20.4373C20.676 9.83212 20.9838 9.65856 20.9838 9.36158C20.9838 9.13074 20.7462 8.89103 20.4197 8.89103ZM23.8848 12.3605H22.6688V7.89037H23.8848V12.3605ZM26.7681 12.3605H26.5056C25.2356 12.3605 24.4646 11.4217 24.4646 10.1438C24.4646 8.83445 25.227 7.89037 26.8308 7.89037H28.1471V8.9491H26.7826C26.1316 8.9491 25.6712 9.42586 25.6712 10.1549C25.6712 11.0206 26.1977 11.3842 26.9561 11.3842H27.2695L26.7681 12.3605ZM27.3107 12.3613L29.3596 7.89113H30.9129L32.9598 12.3613H31.5965L31.2204 11.4662H29.0226L28.6446 12.3613H27.3107ZM30.7875 10.4957L30.1176 8.93147L29.4457 10.4957H30.7875ZM33.0989 12.3605V7.89037H34.613L36.5463 10.6989V7.89037H37.7373V12.3605H36.2721L34.2898 9.47846V12.3605H33.0989ZM9.40545 20.1833V15.7132H13.2917V16.7131H10.6089V17.4777H13.229V18.4188H10.6089V19.2129H13.2917V20.1833H9.40545ZM28.4479 20.1833V15.7132H32.3342V16.7131H29.6514V17.4777H32.2589V18.4188H29.6514V19.2129H32.3342V20.1833H28.4479ZM13.4425 20.1833L15.3347 17.9758L13.3974 15.7132H14.8979L16.0516 17.1119L17.2092 15.7132H18.6509L16.7391 17.9483L18.6348 20.1833H17.1346L16.0144 18.8066L14.9214 20.1833H13.4425ZM18.7763 20.1841V15.7139H21.4069C22.4863 15.7139 23.1169 16.3667 23.1169 17.2175C23.1169 18.2444 22.3129 18.7725 21.2522 18.7725H19.9985V20.1841H18.7763ZM21.3188 16.7249H19.9985V17.7542H21.3148C21.6627 17.7542 21.9064 17.5379 21.9064 17.2395C21.9064 16.922 21.6614 16.7249 21.3188 16.7249ZM23.634 20.1833V15.7132H26.2843C27.1624 15.7132 27.9492 16.2227 27.9492 17.1634C27.9492 17.9676 27.2858 18.4855 26.6427 18.5364L28.2098 20.1833H26.7544L25.3264 18.5953H24.825V20.1833H23.634ZM26.1863 16.7131H24.825V17.6542H26.204C26.4427 17.6542 26.7505 17.4806 26.7505 17.1836C26.7505 16.9528 26.5129 16.7131 26.1863 16.7131ZM32.8858 20.1833V19.2129H35.2692C35.6219 19.2129 35.7746 19.034 35.7746 18.8379C35.7746 18.65 35.6223 18.46 35.2692 18.46H34.1921C33.2559 18.46 32.7345 17.9247 32.7345 17.1211C32.7345 16.4044 33.212 15.7132 34.6032 15.7132H36.9224L36.421 16.719H34.4152C34.0317 16.719 33.9137 16.9078 33.9137 17.088C33.9137 17.2734 34.0596 17.4777 34.3525 17.4777H35.4807C36.5244 17.4777 36.9773 18.0332 36.9773 18.7607C36.9773 19.5428 36.4726 20.1833 35.4239 20.1833H32.8858ZM37.0823 20.1833V19.2129H39.4657C39.8184 19.2129 39.9711 19.034 39.9711 18.8379C39.9711 18.65 39.8188 18.46 39.4657 18.46H38.3886C37.4524 18.46 36.931 17.9247 36.931 17.1211C36.931 16.4044 37.4085 15.7132 38.7997 15.7132H41.1189L40.6175 16.719H38.6117C38.2282 16.719 38.1102 16.9078 38.1102 17.088C38.1102 17.2734 38.2561 17.4777 38.549 17.4777H39.6772C40.7209 17.4777 41.1738 18.0332 41.1738 18.7607C41.1738 19.5428 40.6691 20.1833 39.6204 20.1833H37.0823Z" fill="white"/>
</svg>
