<svg width="39" height="25" viewBox="0 0 39 25" fill="none" xmlns="http://www.w3.org/2000/svg">
<g clip-path="url(#clip0_3289_714)">
<g clip-path="url(#clip1_3289_714)">
<path opacity="0.07" d="M35.2459 0H3.02019C1.30819 0 -0.000976562 1.30917 -0.000976562 3.02116V21.1482C-0.000976562 22.8601 1.4089 24.1693 3.02019 24.1693H35.2459C36.9579 24.1693 38.2671 22.8601 38.2671 21.1482V3.02116C38.2671 1.30917 36.8572 0 35.2459 0Z" fill="black"/>
<path d="M35.2457 1.00684C36.3535 1.00684 37.2598 1.91319 37.2598 3.02095V21.1479C37.2598 22.2557 36.3535 23.162 35.2457 23.162H3.01997C1.91221 23.162 1.00586 22.2557 1.00586 21.1479V3.02095C1.00586 1.91319 1.91221 1.00684 3.01997 1.00684H35.2457Z" fill="#006FCF"/>
<path d="M22.1665 20.0771V11.5967L37.2602 11.6098V13.9522L35.516 15.8172L37.2602 17.6974V20.0892H34.4747L32.9944 18.4557L31.5241 20.0952L22.1665 20.0751V20.0771Z" fill="white"/>
<path d="M23.1748 19.1466V12.5303H28.7861V14.0539H24.9915V15.0892H28.6955V16.5877H24.9915V17.6048H28.7861V19.1466H23.1748Z" fill="#006FCF"/>
<path d="M28.7578 19.1467L31.8626 15.8345L28.7578 12.5293H31.1606L33.0579 14.627L34.9613 12.5303H37.2604V12.5817L34.2221 15.8345L37.2604 19.054V19.1477H34.9371L33.0066 17.0298L31.0952 19.1487H28.7578V19.1467Z" fill="#006FCF"/>
<path d="M22.8695 4.06836H26.509L27.7869 6.96969V4.06836H32.2784L33.0538 6.24259L33.8303 4.06836H37.2603V12.5488H19.1333L22.8695 4.06836Z" fill="white"/>
<path d="M23.5591 4.99023L20.6226 11.6026H22.6367L23.1905 10.2783H26.1916L26.7455 11.6026H28.8099L25.8854 4.99023H23.5591ZM23.8109 8.79388L24.6921 6.68914L25.5712 8.79388H23.8109Z" fill="#006FCF"/>
<path d="M28.7817 11.6016V4.98828L31.6126 4.99835L33.0708 9.06383L34.5371 4.98929H37.2601V11.6006L35.5079 11.6167V7.0749L33.8523 11.6006H32.251L30.5632 7.05979V11.6016H28.7827H28.7817Z" fill="#006FCF"/>
</g>
</g>
<defs>
<clipPath id="clip0_3289_714">
<rect width="38.2681" height="24.1693" fill="white" transform="translate(-0.000488281)"/>
</clipPath>
<clipPath id="clip1_3289_714">
<rect width="38.2681" height="24.1693" fill="white" transform="translate(-0.000976562)"/>
</clipPath>
</defs>
</svg>
