<svg width="42" height="29" viewBox="0 0 42 29" fill="none" xmlns="http://www.w3.org/2000/svg">
<rect x="0.25" y="0.25" width="41.5" height="28.5" rx="1.75" fill="white" stroke="#F3F3F3" stroke-width="0.5"/>
<path d="M18.6478 19.8891H15.8516L17.6006 9.73859H20.3967L18.6478 19.8891Z" fill="#15195A"/>
<path d="M28.7843 9.98671C28.2327 9.78133 27.3579 9.55457 26.2763 9.55457C23.5149 9.55457 21.5703 10.9367 21.5584 12.9127C21.5355 14.3706 22.9506 15.1804 24.0091 15.6665C25.0909 16.1632 25.4587 16.4874 25.4587 16.9302C25.4477 17.6102 24.5845 17.9237 23.7794 17.9237C22.663 17.9237 22.0648 17.7621 21.1558 17.3837L20.7876 17.2216L20.3963 19.5001C21.0521 19.7806 22.2604 20.0294 23.5149 20.0403C26.4489 20.0403 28.359 18.6796 28.3817 16.5738C28.3928 15.4183 27.6456 14.5329 26.0345 13.8094C25.0565 13.345 24.4576 13.0318 24.4576 12.5566C24.469 12.1246 24.9642 11.6821 26.0682 11.6821C26.9772 11.6605 27.6451 11.8656 28.1511 12.0708L28.404 12.1786L28.7843 9.98671Z" fill="#15195A"/>
<path fill-rule="evenodd" clip-rule="evenodd" d="M33.7897 9.73859H35.9526L38.2084 19.889H35.6194C35.6194 19.889 35.366 18.7227 35.2857 18.3663H31.6956C31.5917 18.6361 31.1087 19.889 31.1087 19.889H28.1747L32.3282 10.5808C32.6159 9.92201 33.1227 9.73859 33.7897 9.73859ZM33.6174 13.4531C33.6174 13.4531 32.7313 15.71 32.501 16.2931H34.8252C34.7102 15.7856 34.1807 13.3559 34.1807 13.3559L33.9853 12.4813C33.903 12.7065 33.784 13.0162 33.7037 13.225C33.6493 13.3666 33.6127 13.4619 33.6174 13.4531Z" fill="#15195A"/>
<path d="M8.23473 9.73859C8.84452 9.75997 9.33934 9.94381 9.50035 10.5921L10.4759 15.2474C10.4769 15.2503 10.4779 15.2532 10.4789 15.2562L10.7777 16.6605L13.516 9.73859H16.473L12.0775 19.8782H9.12047L6.62828 11.0579C5.76844 10.5861 4.78694 10.207 3.6898 9.94366L3.7357 9.73859H8.23473Z" fill="#15195A"/>
</svg>
