<svg width="42" height="29" viewBox="0 0 42 29" fill="none" xmlns="http://www.w3.org/2000/svg">
<rect x="0.25" y="0.25" width="41.5" height="28.5" rx="1.75" fill="white" stroke="#F3F3F3" stroke-width="0.5"/>
<path d="M27.7603 15.7642L29.3853 11.7173H30.6578L28.0582 17.8961H27.4273L24.8736 11.7173H26.1558L27.7603 15.7642ZM11.4634 11.6187C12.1229 11.6187 12.7265 11.844 13.231 12.2857L12.6177 13.0914C12.3122 12.7485 12.0228 12.6032 11.6714 12.6031C11.1657 12.6031 10.7964 12.8917 10.7964 13.2711C10.7965 13.5964 11.0038 13.7681 11.7076 14.0289C13.0425 14.5178 13.438 14.9516 13.438 15.9088C13.4379 17.0743 12.5829 17.8861 11.3638 17.8863C10.4708 17.8863 9.82049 17.5345 9.27985 16.7398L10.0386 16.0084C10.3087 16.5314 10.7593 16.812 11.3189 16.8121C11.8426 16.8121 12.23 16.4504 12.23 15.9625C12.23 15.7096 12.1129 15.4928 11.8785 15.3394C11.7606 15.2668 11.5265 15.1581 11.067 14.9957C9.96508 14.5987 9.58752 14.174 9.58746 13.3443C9.58746 12.3586 10.3989 11.6188 11.4634 11.6187ZM17.0123 11.5816C17.5171 11.5817 17.9407 11.6902 18.4556 11.9517V13.3336C17.9678 12.8559 17.5436 12.6558 16.9839 12.6558C15.8832 12.6559 15.0181 13.5689 15.0181 14.7252C15.0182 15.9449 15.8568 16.8032 17.0386 16.8033C17.5707 16.8033 17.9866 16.6132 18.4556 16.1431V17.5259C17.9222 17.7775 17.489 17.8775 16.9839 17.8775C15.1971 17.8774 13.8083 16.5043 13.8082 14.7339C13.8082 12.9825 15.2343 11.5816 17.0123 11.5816ZM8.83844 17.7418H7.66461V11.7173H8.83844V17.7418ZM34.5162 12.7388H32.3609V14.0757H34.4371V15.0953H32.3609V16.7213H34.5162V17.7418H31.188V11.7173H34.5162V12.7388ZM3.89508 11.7183C5.79827 11.7183 7.12457 12.9562 7.12457 14.7339C7.12454 15.6202 6.71894 16.477 6.03278 17.0455C5.45523 17.5257 4.79729 17.7407 3.88629 17.7408H2.17242V11.7183H3.89508ZM37.0338 11.7173C38.3869 11.7173 39.1625 12.3682 39.1627 13.4957C39.1627 14.4179 38.6764 15.0237 37.7925 15.2037L39.6861 17.7408H38.2437L36.6187 15.3218H36.4654V17.7408H35.2935V11.7173H37.0338ZM3.34528 16.7213H3.65973C4.41795 16.7213 4.89753 16.5762 5.26617 16.2427C5.67189 15.8811 5.91554 15.3033 5.91559 14.7252C5.91559 14.1483 5.67201 13.5868 5.26617 13.2252C4.87872 12.8738 4.41788 12.7379 3.65973 12.7379H3.34528V16.7213ZM36.4654 12.6666V14.4908H36.8091C37.5585 14.4907 37.9556 14.1645 37.9556 13.5591C37.9555 12.9732 37.5584 12.6667 36.8277 12.6666H36.4654Z" fill="#1D1D1B"/>
<path fill-rule="evenodd" clip-rule="evenodd" d="M24.7354 16.4769C25.6879 14.9857 25.2529 13.0047 23.7637 12.0512C22.2745 11.0977 20.2955 11.533 19.343 13.0242C18.3907 14.515 18.8259 16.4966 20.3151 17.4501C21.8043 18.4036 23.7832 17.9677 24.7354 16.4769Z" fill="url(#paint0_linear_1156_254080)"/>
<defs>
<linearGradient id="paint0_linear_1156_254080" x1="26.4597" y1="13.7775" x2="21.0636" y2="10.3306" gradientUnits="userSpaceOnUse">
<stop stop-color="#F6A000"/>
<stop offset="0.623918" stop-color="#E47E02"/>
<stop offset="1" stop-color="#D36002"/>
</linearGradient>
</defs>
</svg>
