<svg width="39" height="25" viewBox="0 0 39 25" fill="none" xmlns="http://www.w3.org/2000/svg">
<g clip-path="url(#clip0_3289_742)">
<g clip-path="url(#clip1_3289_742)">
<path opacity="0.07" d="M35.2459 0H3.02019C1.30819 0 -0.000976562 1.30917 -0.000976562 3.02116V21.1482C-0.000976562 22.8601 1.4089 24.1693 3.02019 24.1693H35.2459C36.9579 24.1693 38.2671 22.8601 38.2671 21.1482V3.02116C38.2671 1.30917 36.8572 0 35.2459 0Z" fill="black"/>
<path d="M35.2457 1.00684C36.3535 1.00684 37.2598 1.91319 37.2598 3.02095V21.1479C37.2598 22.2557 36.3535 23.162 35.2457 23.162H3.01997C1.91221 23.162 1.00586 22.2557 1.00586 21.1479V3.02095C1.00586 1.91319 1.91221 1.00684 3.01997 1.00684H35.2457Z" fill="white"/>
<path d="M18.219 12.0607V15.2832H17.1938V7.3275H19.9038C20.2285 7.322 20.5511 7.38074 20.8531 7.50034C21.155 7.61993 21.4303 7.79803 21.6632 8.02438C21.8837 8.23022 22.0616 8.47751 22.1865 8.75212C22.3115 9.02673 22.3811 9.32327 22.3914 9.6248C22.4017 9.92633 22.3525 10.2269 22.2465 10.5094C22.1406 10.7919 21.98 11.0507 21.7739 11.2711L21.6632 11.3879C21.1898 11.8381 20.5574 12.0828 19.9038 12.0667L18.219 12.0607ZM18.219 8.30233V11.11H19.929C20.3087 11.1221 20.6752 10.974 20.9411 10.7031C21.1313 10.5049 21.259 10.2552 21.3083 9.98495C21.3576 9.71473 21.3264 9.43596 21.2186 9.18333C21.1107 8.9307 20.931 8.71536 20.7017 8.56409C20.4724 8.41282 20.2037 8.3323 19.929 8.33254L18.219 8.30233ZM24.7488 9.65984C25.4034 9.62963 26.0438 9.84917 26.5393 10.2772C26.9875 10.7102 27.2261 11.3144 27.1939 11.9378V15.2953H26.2181V14.5239H26.1687C25.9937 14.8132 25.7463 15.0519 25.4508 15.2163C25.1553 15.3808 24.822 15.4653 24.4839 15.4615C23.9319 15.4794 23.3937 15.2876 22.9774 14.9247C22.7801 14.7638 22.622 14.5602 22.5151 14.3292C22.4081 14.0982 22.3551 13.8459 22.36 13.5914C22.3484 13.3342 22.3984 13.0779 22.5057 12.8439C22.6131 12.6099 22.7748 12.4049 22.9774 12.246C23.4743 11.8886 24.0757 11.7062 24.6873 11.7273C25.208 11.7072 25.7246 11.821 26.1879 12.0607V11.8512C26.1913 11.678 26.1552 11.5063 26.0825 11.3491C26.0097 11.1919 25.9021 11.0533 25.7679 10.9438C25.4984 10.6988 25.1452 10.5662 24.781 10.5732C24.5165 10.5707 24.2557 10.6357 24.0232 10.7621C23.7908 10.8884 23.5945 11.0719 23.4527 11.2953L22.5514 10.7273C22.7961 10.3767 23.1265 10.0945 23.5112 9.90763C23.8958 9.72077 24.3219 9.63547 24.7488 9.65984ZM23.4527 13.6156C23.4503 13.746 23.48 13.875 23.5391 13.9913C23.5983 14.1075 23.6852 14.2074 23.7921 14.2822C24.0166 14.4595 24.2956 14.5531 24.5826 14.5471C25.0146 14.5461 25.4285 14.3759 25.7367 14.0717C26.0438 13.7837 26.2181 13.3819 26.2181 12.961C25.8304 12.6853 25.3593 12.5523 24.8847 12.5843C24.5162 12.5698 24.1528 12.6736 23.8475 12.8804C23.7265 12.9613 23.6273 13.0706 23.5585 13.1988C23.4897 13.327 23.4533 13.4701 23.4527 13.6156ZM32.8042 9.8391L29.3903 17.6841H28.3349L29.6249 14.9368L27.3852 9.8391H28.496L30.1194 13.7515L31.6995 9.8391H32.8042Z" fill="#5F6368"/>
<path d="M14.0832 11.364C14.0832 11.0538 14.0591 10.7436 14.0097 10.4375H9.68945V12.1968H12.1577C12.1075 12.4764 12.0013 12.743 11.8456 12.9806C11.6898 13.2182 11.4877 13.4219 11.2514 13.5795V14.7215H12.7257C13.174 14.2878 13.5264 13.7649 13.7602 13.1866C13.9941 12.6083 14.1041 11.9874 14.0832 11.364Z" fill="#4285F4"/>
<path d="M9.69582 15.8318C10.8099 15.8624 11.8939 15.4674 12.7271 14.7271L11.2507 13.5791C10.896 13.8065 10.4941 13.9501 10.0755 13.9988C9.65695 14.0476 9.23279 14.0002 8.83527 13.8604C8.43776 13.7206 8.07737 13.492 7.7815 13.1919C7.48563 12.8919 7.26207 12.5283 7.12783 12.1289H5.61523V13.3072C5.99373 14.0655 6.57601 14.7034 7.29677 15.1494C8.01753 15.5953 8.84826 15.8316 9.69582 15.8318Z" fill="#34A853"/>
<path d="M7.12714 12.1355C6.93559 11.5688 6.93559 10.9549 7.12714 10.3882V9.20996H5.61455C5.29207 9.84587 5.12402 10.5488 5.12402 11.2618C5.12402 11.9748 5.29207 12.6778 5.61455 13.3137L7.12714 12.1355Z" fill="#FBBC04"/>
<path d="M9.69582 8.49974C10.3474 8.48784 10.9773 8.73399 11.4481 9.18454L12.7573 7.88241C11.9225 7.09894 10.8153 6.67159 9.67064 6.69107C8.82811 6.69529 8.0032 6.93276 7.28738 7.37715C6.57156 7.82154 5.99279 8.45549 5.61523 9.2087L7.12783 10.388C7.30469 9.84424 7.64756 9.36964 8.10821 9.03093C8.56885 8.69222 9.12409 8.50644 9.69582 8.49974Z" fill="#EA4335"/>
</g>
</g>
<defs>
<clipPath id="clip0_3289_742">
<rect width="38.2681" height="24.1693" fill="white" transform="translate(-0.000488281)"/>
</clipPath>
<clipPath id="clip1_3289_742">
<rect width="38.2681" height="24.1693" fill="white" transform="translate(-0.000976562)"/>
</clipPath>
</defs>
</svg>
