<svg width="42" height="29" viewBox="0 0 42 29" fill="none" xmlns="http://www.w3.org/2000/svg">
<rect x="0.25" y="0.25" width="41.5" height="28.5" rx="1.75" fill="white" stroke="#F3F3F3" stroke-width="0.5"/>
<path d="M29.0988 4.5351C27.2928 4.5351 25.8119 5.99795 25.8119 7.82201V11.2353H30.4533C30.5617 11.2353 30.6881 11.2353 30.7784 11.2534C31.8259 11.3076 32.6024 11.8494 32.6024 12.7885C32.6024 13.529 32.0787 14.161 31.1035 14.2875V14.3236C32.169 14.3958 32.9817 14.9918 32.9817 15.9129C32.9817 16.9062 32.0787 17.5563 30.8867 17.5563H25.7938V24.2385H30.6158C32.4218 24.2385 33.9028 22.7756 33.9028 20.9516V4.5351H29.0988Z" fill="url(#paint0_linear_1156_254081)"/>
<path d="M27.4193 16.5088H29.3156C29.3427 16.5088 29.3879 16.5043 29.433 16.4998C29.4782 16.4953 29.5233 16.4908 29.5504 16.4908C29.9116 16.4185 30.2186 16.0935 30.2186 15.642C30.2186 15.2085 29.9116 14.8835 29.5504 14.7932C29.4962 14.7751 29.3879 14.7751 29.3156 14.7751H27.4193V16.5088Z" fill="url(#paint1_linear_1156_254081)"/>
<path d="M29.3156 12.2287C29.6768 12.2828 29.9839 12.5718 29.9839 13.0052C29.9839 13.4387 29.6768 13.7276 29.3156 13.7818C29.2976 13.7999 29.1892 13.7999 29.1351 13.7999H27.4193V12.2106H29.135C29.1649 12.2106 29.2056 12.2161 29.2423 12.221C29.2722 12.225 29.2994 12.2287 29.3156 12.2287Z" fill="url(#paint2_linear_1156_254081)"/>
<path d="M10.9304 4.5351C9.12438 4.5351 7.64346 5.99795 7.64346 7.82201V15.9309C8.56452 16.3824 9.5217 16.6714 10.4789 16.6714C11.6167 16.6714 12.2307 15.9851 12.2307 15.046V11.2173H15.0481V15.0279C15.0481 16.5088 14.127 17.7189 11.0026 17.7189C9.10632 17.7189 7.6254 17.3035 7.6254 17.3035V24.2204H12.4474C14.2534 24.2204 15.7343 22.7576 15.7343 20.9335V4.5351H10.9304Z" fill="url(#paint3_linear_1156_254081)"/>
<path d="M20.0145 4.5351C18.2085 4.5351 16.7276 5.99795 16.7276 7.82201V12.1203C17.5584 11.4159 19.0032 10.9644 21.3329 11.0728C22.579 11.127 23.9155 11.4701 23.9155 11.4701V12.8607C23.2473 12.5176 22.4526 12.2106 21.4232 12.1383C19.6533 12.0119 18.5878 12.8788 18.5878 14.3958C18.5878 15.9309 19.6533 16.7978 21.4232 16.6533C22.4526 16.5811 23.2473 16.256 23.9155 15.9309V17.3215C23.9155 17.3215 22.5971 17.6647 21.3329 17.7189C19.0032 17.8272 17.5584 17.3757 16.7276 16.6714V24.2566H21.5496C23.3556 24.2566 24.8365 22.7937 24.8365 20.9697V4.5351H20.0145Z" fill="url(#paint4_linear_1156_254081)"/>
<defs>
<linearGradient id="paint0_linear_1156_254081" x1="25.8088" y1="13.003" x2="33.9248" y2="13.003" gradientUnits="userSpaceOnUse">
<stop stop-color="#007940"/>
<stop offset="0.2285" stop-color="#00873F"/>
<stop offset="0.7433" stop-color="#40A737"/>
<stop offset="1" stop-color="#5CB531"/>
</linearGradient>
<linearGradient id="paint1_linear_1156_254081" x1="25.8088" y1="13.003" x2="33.9248" y2="13.003" gradientUnits="userSpaceOnUse">
<stop stop-color="#007940"/>
<stop offset="0.2285" stop-color="#00873F"/>
<stop offset="0.7433" stop-color="#40A737"/>
<stop offset="1" stop-color="#5CB531"/>
</linearGradient>
<linearGradient id="paint2_linear_1156_254081" x1="25.8088" y1="13.003" x2="33.9248" y2="13.003" gradientUnits="userSpaceOnUse">
<stop stop-color="#007940"/>
<stop offset="0.2285" stop-color="#00873F"/>
<stop offset="0.7433" stop-color="#40A737"/>
<stop offset="1" stop-color="#5CB531"/>
</linearGradient>
<linearGradient id="paint3_linear_1156_254081" x1="7.63963" y1="14.3789" x2="15.881" y2="14.3789" gradientUnits="userSpaceOnUse">
<stop stop-color="#1F286F"/>
<stop offset="0.4751" stop-color="#004E94"/>
<stop offset="0.8261" stop-color="#0066B1"/>
<stop offset="1" stop-color="#006FBC"/>
</linearGradient>
<linearGradient id="paint4_linear_1156_254081" x1="16.6809" y1="14.3789" x2="24.6851" y2="14.3789" gradientUnits="userSpaceOnUse">
<stop stop-color="#6C2C2F"/>
<stop offset="0.1735" stop-color="#882730"/>
<stop offset="0.5731" stop-color="#BE1833"/>
<stop offset="0.8585" stop-color="#DC0436"/>
<stop offset="1" stop-color="#E60039"/>
</linearGradient>
</defs>
</svg>
