<svg width="42" height="29" viewBox="0 0 42 29" fill="none" xmlns="http://www.w3.org/2000/svg">
<rect x="0.25" y="0.25" width="41.5" height="28.5" rx="1.75" fill="white" stroke="#F3F3F3" stroke-width="0.5"/>
<path fill-rule="evenodd" clip-rule="evenodd" d="M6.39574 17.5484C6.39574 16.9797 6.09898 17.0171 5.81509 17.0111V16.8467C6.06125 16.8587 6.31365 16.8587 6.56045 16.8587C6.8256 16.8587 7.1856 16.8467 7.65332 16.8467C9.28898 16.8467 10.1799 17.9403 10.1799 19.0601C10.1799 19.6868 9.81356 21.2611 7.57734 21.2611C7.25547 21.2611 6.95818 21.2486 6.66141 21.2486C6.3774 21.2486 6.09898 21.2544 5.81509 21.2611V21.0965C6.19369 21.0583 6.3774 21.0459 6.39574 20.6159V17.5484ZM7.01477 20.5144C7.01477 21.0016 7.36254 21.0583 7.67193 21.0583C9.03671 21.0583 9.48453 20.0277 9.48453 19.0855C9.48453 17.9029 8.72668 17.0493 7.50774 17.0493C7.24818 17.0493 7.12875 17.0678 7.01477 17.0746V20.5144Z" fill="#1A1919"/>
<path fill-rule="evenodd" clip-rule="evenodd" d="M10.4012 21.0966H10.5209C10.6977 21.0966 10.8242 21.0966 10.8242 20.8874V19.1737C10.8242 18.8958 10.7296 18.8574 10.4956 18.7313V18.6304C10.7925 18.541 11.1465 18.4217 11.1715 18.4027C11.2159 18.3773 11.2533 18.3705 11.2854 18.3705C11.3164 18.3705 11.3294 18.4085 11.3294 18.4596V20.8874C11.3294 21.0966 11.4686 21.0966 11.6457 21.0966H11.7526V21.2611C11.5378 21.2611 11.3164 21.2486 11.0897 21.2486C10.8623 21.2486 10.6348 21.2544 10.4012 21.2611V21.0966ZM11.077 17.397C10.9124 17.397 10.7675 17.2452 10.7675 17.0808C10.7675 16.9224 10.9193 16.7767 11.077 16.7767C11.2409 16.7767 11.3866 16.9099 11.3866 17.0808C11.3866 17.2519 11.2473 17.397 11.077 17.397Z" fill="#1A1919"/>
<path fill-rule="evenodd" clip-rule="evenodd" d="M12.3529 19.2117C12.3529 18.9781 12.2832 18.915 11.9868 18.7946V18.6745C12.2579 18.5861 12.5167 18.5035 12.8203 18.3705C12.8394 18.3705 12.8577 18.3831 12.8577 18.4337V18.8449C13.2184 18.5861 13.5279 18.3705 13.9518 18.3705C14.4879 18.3705 14.6774 18.7627 14.6774 19.256V20.8873C14.6774 21.0965 14.8167 21.0965 14.9934 21.0965H15.1073V21.261C14.8855 21.261 14.6647 21.2485 14.4376 21.2485C14.21 21.2485 13.9825 21.2544 13.7551 21.261V21.0965H13.869C14.046 21.0965 14.1718 21.0965 14.1718 20.8873V19.2501C14.1718 18.8892 13.9518 18.7123 13.5913 18.7123C13.3889 18.7123 13.0668 18.8764 12.8577 19.0162V20.8873C12.8577 21.0965 12.9973 21.0965 13.1743 21.0965H13.2877V21.261C13.0668 21.261 12.8456 21.2485 12.6178 21.2485C12.3909 21.2485 12.1632 21.2544 11.9361 21.261V21.0965H12.05C12.2267 21.0965 12.3529 21.0965 12.3529 20.8873V19.2117Z" fill="#1A1919"/>
<path fill-rule="evenodd" clip-rule="evenodd" d="M15.5874 19.5157C15.5745 19.5726 15.5745 19.6673 15.5874 19.8825C15.6246 20.4831 16.0108 20.9762 16.5156 20.9762C16.8635 20.9762 17.1353 20.7864 17.3685 20.5528L17.4568 20.6414C17.1661 21.0271 16.8062 21.3561 16.2887 21.3561C15.284 21.3561 15.082 20.3817 15.082 19.9772C15.082 18.7376 15.9155 18.3705 16.3572 18.3705C16.8695 18.3705 17.4194 18.693 17.4253 19.3636C17.4253 19.402 17.4253 19.4395 17.4194 19.4776L17.3623 19.5157H15.5874ZM16.7059 19.3132C16.8635 19.3132 16.882 19.2308 16.882 19.1546C16.882 18.8326 16.6863 18.5733 16.3324 18.5733C15.9474 18.5733 15.682 18.8574 15.6063 19.3132H16.7059Z" fill="#1A1919"/>
<path fill-rule="evenodd" clip-rule="evenodd" d="M17.5709 21.0965H17.7416C17.9177 21.0965 18.0442 21.0965 18.0442 20.8873V19.1106C18.0442 18.915 17.8106 18.8764 17.7158 18.8259V18.7313C18.1769 18.5351 18.4297 18.3705 18.4874 18.3705C18.5244 18.3705 18.5434 18.3895 18.5434 18.4531V19.0223H18.5567C18.7141 18.7757 18.9799 18.3705 19.365 18.3705C19.5228 18.3705 19.7247 18.4779 19.7247 18.7058C19.7247 18.8764 19.6053 19.0289 19.4285 19.0289C19.232 19.0289 19.232 18.8764 19.0107 18.8764C18.9035 18.8764 18.5498 19.0223 18.5498 19.402V20.8873C18.5498 21.0965 18.676 21.0965 18.8529 21.0965H19.2063V21.261C18.8589 21.2544 18.5945 21.2485 18.3226 21.2485C18.0636 21.2485 17.7981 21.2544 17.5709 21.261V21.0965Z" fill="#1A1919"/>
<path fill-rule="evenodd" clip-rule="evenodd" d="M20.0025 20.3817C20.0848 20.799 20.337 21.1537 20.799 21.1537C21.1711 21.1537 21.3099 20.9258 21.3099 20.7046C21.3099 19.9579 19.9333 20.1985 19.9333 19.1804C19.9333 18.8259 20.2177 18.3706 20.9126 18.3706C21.1144 18.3706 21.3859 18.4279 21.632 18.5545L21.6764 19.199H21.5312C21.4681 18.8008 21.2473 18.5733 20.8426 18.5733C20.5899 18.5733 20.3501 18.7185 20.3501 18.9905C20.3501 19.7309 21.8152 19.5028 21.8152 20.4958C21.8152 20.9129 21.4809 21.3561 20.7289 21.3561C20.4765 21.3561 20.179 21.2674 19.9586 21.1409L19.8888 20.4136L20.0025 20.3817Z" fill="#1A1919"/>
<path fill-rule="evenodd" clip-rule="evenodd" d="M27.5191 17.9911H27.3615C27.2413 17.2519 26.717 16.9542 26.01 16.9542C25.2827 16.9542 24.2283 17.4409 24.2283 18.9586C24.2283 20.2366 25.1382 21.1537 26.1107 21.1537C26.7355 21.1537 27.2546 20.7235 27.3807 20.0591L27.526 20.0968L27.3807 21.0205C27.1154 21.1851 26.4014 21.3562 25.984 21.3562C24.5065 21.3562 23.5717 20.401 23.5717 18.9782C23.5717 17.6813 24.7277 16.7514 25.9658 16.7514C26.4772 16.7514 26.9698 16.9163 27.4562 17.0872L27.5191 17.9911Z" fill="#1A1919"/>
<path fill-rule="evenodd" clip-rule="evenodd" d="M27.7472 21.0965H27.8667C28.0442 21.0965 28.1703 21.0965 28.1703 20.8873V17.3657C28.1703 16.9542 28.0757 16.9417 27.8354 16.872V16.7706C28.0879 16.6886 28.3534 16.575 28.4864 16.4985C28.555 16.4611 28.606 16.4288 28.6246 16.4288C28.6632 16.4288 28.6757 16.4673 28.6757 16.5181V20.8873C28.6757 21.0965 28.8148 21.0965 28.9915 21.0965H29.0984V21.261C28.8843 21.261 28.6632 21.2485 28.4357 21.2485C28.2084 21.2485 27.9812 21.2544 27.7472 21.261V21.0965Z" fill="#1A1919"/>
<path fill-rule="evenodd" clip-rule="evenodd" d="M31.8029 20.9129C31.8029 21.0271 31.872 21.0331 31.979 21.0331C32.0553 21.0331 32.1496 21.0271 32.2323 21.0271V21.1602C31.9606 21.1852 31.4424 21.3181 31.3221 21.3561L31.2907 21.3368V20.8245C30.9121 21.1343 30.6211 21.3561 30.172 21.3561C29.831 21.3561 29.4775 21.1343 29.4775 20.6038V18.9842C29.4775 18.8196 29.4524 18.6615 29.0992 18.6303V18.5098C29.3267 18.5036 29.831 18.4658 29.9134 18.4658C29.9835 18.4658 29.9835 18.5098 29.9835 18.6492V20.2807C29.9835 20.4706 29.9835 21.0139 30.5329 21.0139C30.7473 21.0139 31.0316 20.8499 31.2968 20.6289V18.9272C31.2968 18.8008 30.9938 18.7313 30.7667 18.6684V18.5547C31.3346 18.5161 31.6888 18.4658 31.7519 18.4658C31.8029 18.4658 31.8029 18.5098 31.8029 18.5797V20.9129Z" fill="#1A1919"/>
<path fill-rule="evenodd" clip-rule="evenodd" d="M33.0595 18.8258C33.3121 18.6113 33.6533 18.3705 34.0007 18.3705C34.7336 18.3705 35.1758 19.0099 35.1758 19.6991C35.1758 20.5273 34.5691 21.3561 33.6654 21.3561C33.1985 21.3561 32.9521 21.2038 32.7875 21.1343L32.5986 21.2798L32.4661 21.2105C32.5226 20.8374 32.5545 20.4706 32.5545 20.0847V17.3657C32.5545 16.9542 32.4594 16.9417 32.2193 16.872V16.7706C32.4723 16.6886 32.7373 16.575 32.8699 16.4985C32.9396 16.4611 32.9899 16.4288 33.0092 16.4288C33.0468 16.4288 33.0595 16.4674 33.0595 16.5181V18.8258ZM33.0595 20.5462C33.0595 20.7864 33.2871 21.1915 33.7102 21.1915C34.386 21.1915 34.6701 20.5273 34.6701 19.9642C34.6701 19.2814 34.1527 18.7123 33.6601 18.7123C33.4254 18.7123 33.23 18.8643 33.0595 19.0099V20.5462Z" fill="#1A1919"/>
<path fill-rule="evenodd" clip-rule="evenodd" d="M9.21769 24.3634L9.22458 24.3567V23.0666C9.22458 22.7842 9.02839 22.7429 8.92534 22.7429H8.84962V22.6396C9.01147 22.6396 9.16955 22.6533 9.33088 22.6533C9.47178 22.6533 9.61333 22.6396 9.75371 22.6396V22.7429H9.70258C9.55778 22.7429 9.39619 22.7704 9.39619 23.1799V24.7456C9.39619 24.8662 9.39957 24.9866 9.41649 25.0934H9.28586L7.51606 23.1178V24.5359C7.51606 24.8355 7.57422 24.9383 7.83885 24.9383H7.8974V25.0417C7.7496 25.0417 7.60193 25.0283 7.45413 25.0283C7.29983 25.0283 7.14149 25.0417 6.98667 25.0417V24.9383H7.03494C7.27199 24.9383 7.3442 24.7765 7.3442 24.502V23.0521C7.3442 22.8596 7.1856 22.7429 7.03156 22.7429H6.98667V22.6396C7.11704 22.6396 7.2513 22.6533 7.38167 22.6533C7.4851 22.6533 7.58476 22.6396 7.6878 22.6396L9.21769 24.3634Z" fill="#1A1919"/>
<path fill-rule="evenodd" clip-rule="evenodd" d="M9.41648 25.1079L9.27493 25.1031L7.53063 23.1566V24.5359C7.5348 24.8351 7.5802 24.9202 7.83898 24.9234H7.91262V25.0564H7.89739C7.74869 25.0564 7.60076 25.0426 7.45413 25.0426C7.30022 25.0426 7.14227 25.0564 6.98654 25.0564H6.97145V24.9234H7.03494C7.2621 24.9221 7.32702 24.776 7.32949 24.5019V23.0527C7.32884 22.8694 7.1787 22.7579 7.03168 22.7579H6.97145V22.6246H6.98654C7.11794 22.6246 7.25247 22.6381 7.3814 22.6381C7.48392 22.6381 7.58319 22.6246 7.69912 22.63L9.20962 24.3323V23.0666C9.20793 22.7933 9.02552 22.7601 8.92547 22.7579H8.83453V22.6246H8.84975C9.01212 22.6246 9.17033 22.6381 9.33087 22.6381C9.47074 22.6381 9.61164 22.6246 9.75371 22.6246H9.7688V22.7579H9.70258C9.56064 22.7615 9.41505 22.774 9.41089 23.1799V24.7456C9.41089 24.8661 9.41466 24.9862 9.43118 25.0907L9.43431 25.1079H9.41648ZM9.28599 25.0779H9.3997C9.38434 24.9744 9.38161 24.8601 9.38161 24.7456V23.1799C9.38161 22.7669 9.55452 22.7279 9.70258 22.7277H9.73875V22.6545C9.60331 22.6555 9.46761 22.668 9.33087 22.668C9.17345 22.668 9.02044 22.6555 8.8651 22.6545L8.86471 22.7277H8.92547C9.03111 22.7279 9.23941 22.7749 9.23941 23.0666L9.23486 24.3675L9.22809 24.3741L9.21638 24.3852L7.68779 22.6545C7.58566 22.6545 7.48626 22.668 7.3814 22.668C7.25546 22.668 7.1264 22.6555 7.00176 22.6545L7.00111 22.7277H7.03168C7.19288 22.7279 7.35876 22.8512 7.35876 23.0527V24.5019C7.35876 24.7773 7.28213 24.9531 7.03494 24.954L7.00176 24.9531V25.027C7.1506 25.0258 7.30399 25.0132 7.45413 25.0132C7.5975 25.0132 7.74062 25.0258 7.88243 25.027V24.954H7.83897C7.56849 24.9531 7.50149 24.8351 7.50123 24.5359V23.0792L9.28599 25.0779ZM9.21781 24.3635L9.22861 24.3536L9.21781 24.3635ZM9.20962 24.3567V24.3554L9.20689 24.3532L9.20962 24.3567Z" fill="#1A1919"/>
<path fill-rule="evenodd" clip-rule="evenodd" d="M10.2688 22.8117C10.0107 22.8117 10.0007 22.8739 9.94913 23.1248H9.84596C9.85949 23.0284 9.87653 22.9321 9.8872 22.8324C9.90099 22.7356 9.90789 22.6396 9.90789 22.5401H9.99024C10.018 22.6434 10.1038 22.6396 10.1971 22.6396H11.9699C12.0632 22.6396 12.1489 22.6362 12.1559 22.5329L12.238 22.547C12.2248 22.6396 12.2107 22.7326 12.2007 22.8257C12.1939 22.9186 12.1939 23.0112 12.1939 23.1041L12.0906 23.1424C12.0836 23.0152 12.0666 22.8117 11.8363 22.8117H11.2725V24.6424C11.2725 24.9079 11.393 24.9382 11.5577 24.9382H11.6233V25.0417C11.4892 25.0417 11.2485 25.0284 11.0632 25.0284C10.8567 25.0284 10.6159 25.0417 10.4818 25.0417V24.9382H10.5473C10.7368 24.9382 10.8325 24.9213 10.8325 24.6496V22.8117H10.2688Z" fill="#1A1919"/>
<path fill-rule="evenodd" clip-rule="evenodd" d="M11.6236 25.0564C11.4881 25.0564 11.2477 25.0427 11.0632 25.0427C10.857 25.0427 10.6166 25.0564 10.4818 25.0564H10.4671V24.9234H10.5473C10.7368 24.919 10.8129 24.9165 10.8172 24.6496V22.8264H10.2688V22.7963H10.847V24.6496C10.847 24.9259 10.7357 24.9537 10.5473 24.954H10.4965V25.0267C10.632 25.0258 10.8636 25.0131 11.0632 25.0131C11.2421 25.0131 11.4717 25.0258 11.608 25.0267V24.954H11.5577C11.3915 24.9537 11.2577 24.9128 11.2577 24.6424V22.7963H11.8363C12.0668 22.7972 12.0974 22.9934 12.1046 23.1214L12.179 23.0939C12.179 23.004 12.1794 22.914 12.1855 22.8236C12.1956 22.7347 12.2081 22.6473 12.221 22.5591L12.1688 22.5504C12.1528 22.6505 12.0559 22.6559 11.9698 22.6546H10.1792C10.0982 22.6547 10.0101 22.6508 9.97918 22.5548H9.92246C9.92194 22.6499 9.91543 22.7422 9.90242 22.8339C9.89215 22.9285 9.8764 23.0193 9.86391 23.1105H9.93729C9.98244 22.8704 10.0118 22.7929 10.2688 22.7963V22.8264C10.0142 22.8314 10.0198 22.874 9.9637 23.1283L9.96123 23.14H9.82878L9.83061 23.1222C9.84466 23.0262 9.86209 22.9295 9.87211 22.8296C9.88642 22.7341 9.89293 22.6387 9.89293 22.5401V22.5248H10.0021L10.0047 22.5356C10.0278 22.6224 10.0915 22.623 10.1792 22.6246H11.9698C12.0655 22.623 12.1353 22.6217 12.1411 22.5317L12.1423 22.5154L12.1579 22.5186L12.2551 22.5339L12.2526 22.5492C12.239 22.6415 12.2256 22.7341 12.2151 22.8264C12.2088 22.9186 12.2088 23.0111 12.2088 23.1041V23.1145L12.1988 23.1185L12.0771 23.1631L12.0763 23.1432C12.0668 23.0137 12.0536 22.8264 11.8363 22.8264H11.2876V24.6424C11.291 24.9019 11.3938 24.9201 11.5577 24.9234H11.6381V25.0564H11.6236Z" fill="#1A1919"/>
<path fill-rule="evenodd" clip-rule="evenodd" d="M12.3478 24.9383H12.3962C12.5196 24.9383 12.6506 24.9213 12.6506 24.7422V22.9394C12.6506 22.7601 12.5196 22.743 12.3962 22.743H12.3478V22.6396C12.5568 22.6396 12.9151 22.6533 13.2033 22.6533C13.4925 22.6533 13.8495 22.6396 14.0832 22.6396C14.0772 22.7876 14.0804 23.0153 14.0906 23.1664L13.987 23.1937C13.9705 22.9699 13.9293 22.7915 13.5682 22.7915H13.091V23.6925H13.4993C13.7055 23.6925 13.7504 23.5759 13.7708 23.3899H13.8738C13.8669 23.5243 13.8633 23.6585 13.8633 23.7925C13.8633 23.9235 13.8669 24.0542 13.8738 24.1847L13.7708 24.2053C13.7504 23.9991 13.7401 23.8649 13.5026 23.8649H13.091V24.6663C13.091 24.8903 13.2895 24.8903 13.5097 24.8903C13.9222 24.8903 14.1042 24.8626 14.2074 24.4708L14.3033 24.4945C14.2587 24.6772 14.2177 24.8591 14.1869 25.0417C13.9666 25.0417 13.5713 25.0284 13.2626 25.0284C12.9526 25.0284 12.5439 25.0417 12.3478 25.0417V24.9383Z" fill="#1A1919"/>
<path fill-rule="evenodd" clip-rule="evenodd" d="M14.1866 25.0564C13.9661 25.0564 13.5706 25.0421 13.2622 25.0421C12.9526 25.0421 12.544 25.0564 12.3477 25.0564H12.3333V24.9234H12.3961C12.5205 24.9213 12.6337 24.9104 12.6352 24.7422V22.9395C12.6337 22.7713 12.5205 22.7601 12.3961 22.7579H12.3333V22.6246H12.3477C12.5577 22.6246 12.9152 22.6381 13.2033 22.6381C13.4922 22.6381 13.8491 22.6246 14.0832 22.6246H14.0984L14.0979 22.6405C14.0957 22.692 14.0942 22.7532 14.0942 22.8179C14.0942 22.9369 14.0979 23.0673 14.1046 23.1652L14.1053 23.1774L14.0937 23.181L13.9728 23.2126L13.9723 23.1949C13.952 22.9716 13.9221 22.8092 13.5682 22.8058H13.1049L13.1047 23.6774H13.4991C13.6973 23.6753 13.7327 23.574 13.7561 23.3883L13.7569 23.3745H13.8891L13.8888 23.3903C13.8822 23.5247 13.8781 23.6585 13.8781 23.7925C13.8781 23.9227 13.8822 24.0533 13.8888 24.1841L13.8891 24.1966L13.8766 24.1995L13.7569 24.2233L13.7561 24.2071C13.7323 23.997 13.7307 23.8819 13.5026 23.8794H13.1049V24.6663C13.1054 24.8755 13.2855 24.8743 13.5095 24.8755C13.9234 24.873 14.0892 24.8527 14.1927 24.4667L14.1962 24.4528L14.2107 24.4552L14.3209 24.4838L14.3177 24.498C14.2731 24.6801 14.2321 24.8621 14.201 25.0442L14.1984 25.0564H14.1866ZM14.1738 25.0267C14.2039 24.8527 14.2431 24.6789 14.2852 24.5057L14.2176 24.4886C14.1147 24.8735 13.9152 24.9079 13.5095 24.9053C13.2929 24.9053 13.0764 24.9053 13.0753 24.6663V23.85H13.5026C13.7427 23.8475 13.7669 23.9923 13.7841 24.1881L13.8582 24.1729C13.8516 24.046 13.8482 23.9186 13.8482 23.7925C13.8482 23.6633 13.8516 23.5344 13.8582 23.4045H13.7841C13.7647 23.5842 13.7086 23.7097 13.4991 23.7075H13.0753V22.776H13.5682C13.9256 22.7731 13.9848 22.9584 14.0004 23.1748L14.0745 23.1547C14.0685 23.0576 14.0644 22.9328 14.0644 22.8179C14.0644 22.7591 14.066 22.7032 14.0679 22.6545C13.8344 22.6555 13.4859 22.668 13.2033 22.668C12.9208 22.668 12.5732 22.6555 12.3628 22.6545V22.7277H12.3961C12.5184 22.7279 12.6646 22.7492 12.6654 22.9395V24.7422C12.6646 24.9322 12.5184 24.9531 12.3961 24.954H12.3628V25.0267C12.5629 25.0261 12.9602 25.0132 13.2622 25.0132C13.5656 25.0132 13.9523 25.0261 14.1738 25.0267Z" fill="#1A1919"/>
<path fill-rule="evenodd" clip-rule="evenodd" d="M14.7675 23.0041C14.7675 22.7532 14.6299 22.7429 14.5232 22.7429H14.4611V22.6396C14.5712 22.6396 14.7843 22.6533 14.9942 22.6533C15.2 22.6533 15.3652 22.6396 15.5474 22.6396C15.9798 22.6396 16.3656 22.7564 16.3656 23.2454C16.3656 23.5549 16.1592 23.7439 15.8878 23.8513L16.4753 24.7317C16.5718 24.8773 16.64 24.9181 16.8088 24.9383V25.0417C16.6951 25.0417 16.5852 25.0284 16.4721 25.0284C16.3656 25.0284 16.2551 25.0417 16.1491 25.0417C15.8842 24.6943 15.6572 24.3228 15.4339 23.9264H15.2074V24.6633C15.2074 24.9282 15.3309 24.9383 15.4884 24.9383H15.5507V25.0417C15.3544 25.0417 15.1559 25.0284 14.9595 25.0284C14.7946 25.0284 14.633 25.0417 14.4611 25.0417V24.9383H14.5232C14.6508 24.9383 14.7675 24.88 14.7675 24.7529V23.0041ZM15.2074 23.8023H15.3754C15.7195 23.8023 15.9048 23.6719 15.9048 23.2656C15.9048 22.9596 15.7088 22.7635 15.4026 22.7635C15.2994 22.7635 15.2554 22.774 15.2074 22.7774V23.8023Z" fill="#1A1919"/>
<path fill-rule="evenodd" clip-rule="evenodd" d="M16.8088 25.0564C16.6936 25.0564 16.5843 25.0426 16.4712 25.0426C16.3665 25.0426 16.2565 25.0564 16.1369 25.0507C15.8731 24.7042 15.6471 24.3348 15.4252 23.9419H15.2221V24.6627C15.2259 24.9217 15.3296 24.9198 15.4884 24.9234H15.5656V25.0564H15.5503C15.3539 25.0564 15.1542 25.0426 14.9594 25.0426C14.7952 25.0426 14.6338 25.0564 14.4611 25.0564H14.4462V24.9234H14.5232C14.6468 24.9225 14.7513 24.8686 14.7518 24.7529V23.0041C14.7492 22.7601 14.6299 22.7613 14.5232 22.7579H14.4462V22.6246H14.4611C14.5724 22.6246 14.7846 22.6381 14.9942 22.6381C15.1993 22.6381 15.3642 22.6246 15.5474 22.6246C15.9807 22.6255 16.3795 22.745 16.3805 23.2449C16.3805 23.5555 16.1755 23.7495 15.9105 23.8578L16.4876 24.7235C16.5838 24.8662 16.6436 24.9019 16.8108 24.9234L16.8233 24.9254V25.0564H16.8088ZM15.2073 23.9116H15.4421L15.4464 23.9193C15.6702 24.3146 15.896 24.6862 16.1491 25.027C16.2537 25.027 16.3641 25.0132 16.4712 25.0132C16.5809 25.0132 16.6871 25.0252 16.7937 25.0267V24.9512C16.6327 24.9315 16.557 24.8828 16.4632 24.7402L15.8648 23.8444L15.8817 23.8375C16.1509 23.7313 16.3504 23.5475 16.3505 23.2449C16.3504 22.7675 15.9794 22.6568 15.5474 22.6545C15.3664 22.6545 15.2011 22.6684 14.9942 22.6684C14.7922 22.6684 14.5882 22.6555 14.4758 22.6545V22.7277H14.5232C14.6299 22.7279 14.7817 22.7456 14.7817 23.0041V24.7529C14.7817 24.891 14.6525 24.9538 14.5232 24.954H14.4758V25.0267C14.6411 25.0261 14.798 25.0132 14.9594 25.0132C15.1513 25.0132 15.3454 25.0261 15.5355 25.0267V24.954H15.4884C15.3319 24.9538 15.192 24.9344 15.192 24.6627V23.9116H15.2073ZM15.2073 23.8171H15.192V22.7635L15.2052 22.7624C15.2523 22.7587 15.2986 22.7492 15.4025 22.7492C15.7156 22.7492 15.9195 22.9528 15.9197 23.2665C15.9188 23.6774 15.7221 23.817 15.3754 23.8171H15.2073ZM15.3754 23.7878C15.7156 23.7845 15.8871 23.6663 15.8904 23.2665C15.8884 22.9659 15.7019 22.7794 15.4025 22.7781C15.3098 22.7781 15.2659 22.7867 15.2221 22.791V23.7878H15.3754Z" fill="#1A1919"/>
<path fill-rule="evenodd" clip-rule="evenodd" d="M19.1424 24.3634L19.1484 24.3567V23.0666C19.1484 22.7842 18.9531 22.7429 18.8499 22.7429H18.7746V22.6396C18.9362 22.6396 19.0937 22.6533 19.2557 22.6533C19.397 22.6533 19.5368 22.6396 19.6788 22.6396V22.7429H19.627C19.4826 22.7429 19.3211 22.7704 19.3211 23.1799V24.7456C19.3211 24.8662 19.3245 24.9866 19.3414 25.0934H19.2113L17.4414 23.1178V24.5359C17.4414 24.8355 17.4994 24.9383 17.7641 24.9383H17.8226V25.0417C17.6749 25.0417 17.5269 25.0283 17.3792 25.0283C17.224 25.0283 17.0662 25.0417 16.9116 25.0417V24.9383H16.9594C17.1967 24.9383 17.2693 24.7765 17.2693 24.502V23.0521C17.2693 22.8596 17.1109 22.7429 16.9564 22.7429H16.9116V22.6396C17.0417 22.6396 17.1768 22.6533 17.3071 22.6533C17.4093 22.6533 17.5094 22.6396 17.6127 22.6396L19.1424 24.3634Z" fill="#1A1919"/>
<path fill-rule="evenodd" clip-rule="evenodd" d="M19.3413 25.1079L19.2001 25.1031L17.4556 23.1569V24.5358C17.4596 24.8355 17.5049 24.9202 17.7641 24.9234H17.8369V25.0564H17.822C17.6734 25.0564 17.5258 25.0421 17.3786 25.0421C17.2252 25.0421 17.0663 25.0564 16.9115 25.0564H16.8961V24.9234H16.9594C17.1864 24.9225 17.2514 24.776 17.2537 24.5011V23.0521C17.2533 22.8687 17.1034 22.7579 16.9564 22.7579H16.8961V22.6246H16.9115C17.0428 22.6246 17.1773 22.6381 17.307 22.6381C17.408 22.6381 17.5075 22.6246 17.6228 22.6291L19.1338 24.3323V23.0666C19.1329 22.7933 18.9498 22.7595 18.8499 22.7579H18.7592V22.6246H18.7742C18.9366 22.6246 19.095 22.6381 19.2557 22.6381C19.3957 22.6381 19.5365 22.6246 19.6781 22.6246H19.6934V22.7579H19.627C19.4852 22.7613 19.3391 22.774 19.3357 23.1799V24.7456C19.3357 24.8661 19.3387 24.9854 19.3563 25.0909L19.358 25.1079H19.3413ZM19.2112 25.0779H19.3239C19.3088 24.975 19.3058 24.8601 19.3058 24.7456V23.1799C19.306 22.7669 19.4799 22.7286 19.627 22.7277H19.6632V22.6545C19.5279 22.6555 19.392 22.668 19.2557 22.668C19.0977 22.668 18.9446 22.6555 18.7891 22.6545V22.7277H18.8499C18.9558 22.7286 19.164 22.7749 19.164 23.0666L19.159 24.3675L19.1528 24.3741L19.142 24.3855L17.6127 22.6545C17.5105 22.6545 17.4108 22.668 17.307 22.668C17.1795 22.668 17.0511 22.6555 16.9262 22.6545V22.7277H16.9564C17.1181 22.7286 17.2835 22.8506 17.2835 23.0521V24.5011C17.2835 24.7773 17.2058 24.9531 16.9594 24.954L16.9262 24.9538V25.0269C17.0746 25.0258 17.2278 25.0132 17.3786 25.0132C17.5227 25.0132 17.6656 25.0258 17.8076 25.0269V24.954H17.7641C17.4936 24.9538 17.4262 24.8355 17.4254 24.5358V23.0798L19.2112 25.0779ZM19.142 24.3635L19.1532 24.3536L19.142 24.3635ZM19.1338 24.3567V24.3558L19.1313 24.3532L19.1338 24.3567Z" fill="#1A1919"/>
<path fill-rule="evenodd" clip-rule="evenodd" d="M20.2313 24.5497C20.1967 24.6663 20.1552 24.7567 20.1552 24.8178C20.1552 24.9213 20.3 24.9384 20.4131 24.9384H20.4515V25.0417C20.3134 25.0342 20.1732 25.0284 20.0349 25.0284C19.9112 25.0284 19.7881 25.0342 19.664 25.0417V24.9384H19.6849C19.8187 24.9384 19.9325 24.859 19.9835 24.7145L20.5334 23.1355C20.5783 23.0078 20.6403 22.8359 20.6612 22.7082C20.7705 22.6706 20.9085 22.6022 20.9736 22.5604C20.9843 22.5569 20.9906 22.5533 21.001 22.5533C21.0114 22.5533 21.0178 22.5533 21.0254 22.5642C21.0355 22.5914 21.0455 22.6224 21.0562 22.6499L21.6889 24.4499C21.7301 24.57 21.771 24.6973 21.815 24.8011C21.8569 24.8976 21.9291 24.9384 22.0429 24.9384H22.0635V25.0417C21.9086 25.0342 21.7536 25.0284 21.5894 25.0284C21.4209 25.0284 21.2485 25.0342 21.0732 25.0417V24.9384H21.1111C21.1897 24.9384 21.3246 24.9247 21.3246 24.8386C21.3246 24.7942 21.2935 24.7012 21.2551 24.5906L21.1213 24.1916H20.3412L20.2313 24.5497ZM20.7332 23.0251H20.726L20.4066 23.9991H21.0488L20.7332 23.0251Z" fill="#1A1919"/>
<path fill-rule="evenodd" clip-rule="evenodd" d="M22.0624 25.0564C21.908 25.0498 21.753 25.0421 21.5894 25.0421C21.4209 25.0421 21.2494 25.0498 21.074 25.0564L21.0582 25.0572V24.9228H21.1111C21.1907 24.9228 21.3089 24.9049 21.3091 24.8386C21.3099 24.7994 21.2791 24.7051 21.2412 24.5957L21.1103 24.2063H20.3522L20.2453 24.5541C20.2107 24.6711 20.1689 24.762 20.1695 24.818C20.1707 24.9021 20.299 24.9228 20.4131 24.9228H20.4659V25.0572L20.4503 25.0564C20.3129 25.0498 20.1727 25.0421 20.0351 25.0421C19.9125 25.0421 19.7882 25.0498 19.6651 25.0564L19.6491 25.0572V24.9228H19.6848C19.8125 24.9225 19.9192 24.8494 19.9689 24.7097L20.5194 23.1301C20.5638 23.0028 20.6262 22.8316 20.6559 22.694C20.7637 22.6574 20.902 22.588 20.968 22.5465C20.9776 22.5431 20.9871 22.5386 21.0009 22.5386C21.0094 22.5381 21.0278 22.5403 21.039 22.5583C21.0488 22.5866 21.0597 22.6174 21.0701 22.6452L21.7029 24.445C21.7434 24.5655 21.7845 24.6926 21.8295 24.7946C21.8693 24.8863 21.9324 24.9225 22.0429 24.9228H22.0776V25.0572L22.0624 25.0564ZM21.0882 25.0258C21.2582 25.0198 21.4252 25.0132 21.5894 25.0132C21.7487 25.0132 21.8986 25.0198 22.048 25.0258V24.9538H22.0429C21.925 24.9545 21.844 24.9082 21.8018 24.8067C21.7571 24.7028 21.7153 24.575 21.6747 24.4545L21.0419 22.6546C21.0315 22.6271 21.0217 22.5963 21.0127 22.5719C21.0094 22.5685 21.0101 22.5685 21.0074 22.5685H21.0009C20.994 22.5685 20.9898 22.5706 20.981 22.5728C20.9149 22.6158 20.7771 22.6836 20.6749 22.7105C20.6539 22.8408 20.592 23.0128 20.5474 23.1403L19.9974 24.7194C19.9451 24.869 19.8242 24.954 19.6848 24.9538H19.6791V25.0258C19.7969 25.0198 19.9158 25.0132 20.0351 25.0132C20.1681 25.0132 20.3037 25.0198 20.4352 25.0258V24.9538H20.4131C20.3008 24.9522 20.1444 24.94 20.1405 24.818C20.1408 24.7498 20.1829 24.6617 20.2166 24.5454L20.2312 24.5497L20.2166 24.545L20.3298 24.1773H21.1313L21.2689 24.5859C21.3076 24.6966 21.3388 24.7883 21.3388 24.8386C21.3337 24.944 21.189 24.9518 21.1111 24.9538H21.0882V25.0258ZM20.3856 24.0139L20.7147 23.0099H20.7332V23.0252L20.7295 23.0262L20.7332 23.0252V23.0099H20.7434L21.0701 24.0139H20.3856ZM20.4268 23.9839H21.0285L20.7294 23.0618L20.4268 23.9839ZM20.7182 23.0296L20.7261 23.0271L20.7182 23.0296Z" fill="#1A1919"/>
<path fill-rule="evenodd" clip-rule="evenodd" d="M22.2145 22.8117C21.9568 22.8117 21.9464 22.8739 21.8946 23.1248H21.7913C21.8048 23.0284 21.8224 22.9321 21.833 22.8324C21.8464 22.7356 21.8531 22.6396 21.8531 22.5401H21.9362C21.9631 22.6434 22.0493 22.6396 22.142 22.6396H23.9159C24.0082 22.6396 24.0941 22.6362 24.1009 22.5329L24.1831 22.547C24.1704 22.6396 24.1567 22.7326 24.1459 22.8257C24.1383 22.9186 24.1383 23.0112 24.1383 23.1041L24.0357 23.1424C24.0296 23.0152 24.0123 22.8117 23.7815 22.8117H23.2179V24.6424C23.2179 24.9079 23.3383 24.9382 23.5031 24.9382H23.5688V25.0417C23.4345 25.0417 23.1943 25.0284 23.0083 25.0284C22.8024 25.0284 22.5612 25.0417 22.4272 25.0417V24.9382H22.4927C22.6821 24.9382 22.778 24.9213 22.778 24.6496V22.8117H22.2145Z" fill="#1A1919"/>
<path fill-rule="evenodd" clip-rule="evenodd" d="M23.5688 25.0564C23.4337 25.0564 23.1928 25.0427 23.008 25.0427C22.8027 25.0427 22.562 25.0564 22.4274 25.0564H22.4121V24.9234H22.4927C22.6822 24.919 22.7582 24.9165 22.7628 24.6496L22.7625 22.8264H22.2145V22.7963H22.7928V24.6496C22.7928 24.9259 22.6814 24.9531 22.4927 24.9537H22.4421V25.027C22.5779 25.0258 22.8088 25.0131 23.008 25.0131C23.1877 25.0131 23.4177 25.0258 23.5534 25.027V24.9537H23.5029C23.3373 24.9531 23.2034 24.9132 23.2032 24.6424V22.7963H23.7815C24.0124 22.7972 24.0425 22.9934 24.0491 23.1214L24.1238 23.0939C24.1238 23.004 24.1243 22.914 24.1313 22.824C24.1406 22.7353 24.1536 22.6473 24.1661 22.5595L24.1141 22.5504C24.0984 22.6505 24.0013 22.6561 23.9159 22.6546H22.1245C22.0434 22.6555 21.9557 22.6508 21.9245 22.5545H21.8683C21.8675 22.6497 21.8608 22.7422 21.8472 22.8339C21.8379 22.9289 21.8213 23.0199 21.8082 23.1105H21.8821C21.9272 22.8704 21.957 22.7925 22.2145 22.7963V22.8264C21.9596 22.8308 21.9652 22.874 21.9092 23.1283L21.9067 23.14H21.774L21.7761 23.123C21.7905 23.0262 21.8074 22.9295 21.8174 22.8304C21.8315 22.7341 21.8379 22.6387 21.8379 22.5401V22.5248H21.947L21.9499 22.5356C21.9739 22.6224 22.0365 22.623 22.1245 22.6246H23.9159C24.011 22.623 24.0803 22.6217 24.0864 22.532L24.087 22.5154L24.103 22.5186L24.2005 22.5339L24.1982 22.5492C24.184 22.6415 24.171 22.7341 24.1606 22.8264C24.1536 22.9186 24.1536 23.0112 24.1536 23.1041V23.1145L24.1436 23.1185L24.0219 23.1631L24.0214 23.1432C24.0124 23.0137 23.9987 22.8264 23.7815 22.8264H23.2327V24.6424C23.2362 24.9019 23.3391 24.9201 23.5029 24.9234H23.5831V25.0564H23.5688Z" fill="#1A1919"/>
<path fill-rule="evenodd" clip-rule="evenodd" d="M24.3103 24.9383H24.3585C24.4823 24.9383 24.6124 24.9213 24.6124 24.7422V22.9394C24.6124 22.7601 24.4823 22.743 24.3585 22.743H24.3103V22.6396C24.4445 22.6396 24.6503 22.6533 24.8185 22.6533C24.9908 22.6533 25.1971 22.6396 25.359 22.6396V22.743H25.3107C25.1865 22.743 25.0558 22.7601 25.0558 22.9394V24.7422C25.0558 24.9213 25.1865 24.9383 25.3107 24.9383H25.359V25.0417C25.1939 25.0417 24.9874 25.0284 24.8158 25.0284C24.6471 25.0284 24.4445 25.0417 24.3103 25.0417V24.9383Z" fill="#1A1919"/>
<path fill-rule="evenodd" clip-rule="evenodd" d="M25.359 25.0564C25.1928 25.0564 24.9873 25.0421 24.8158 25.0421C24.6476 25.0421 24.4446 25.0564 24.3103 25.0564H24.2956V24.9234H24.3586C24.4825 24.9213 24.5967 24.9104 24.5975 24.7422V22.9395C24.5967 22.7713 24.4825 22.7601 24.3586 22.7579H24.2956V22.6246H24.3103C24.4446 22.6246 24.6513 22.6381 24.8185 22.6381C24.9899 22.6381 25.1961 22.6246 25.359 22.6246H25.3733V22.7579H25.3108C25.185 22.7601 25.072 22.7713 25.0708 22.9395V24.7422C25.072 24.9104 25.185 24.9213 25.3108 24.9234H25.3733V25.0564H25.359ZM25.3434 25.0267V24.9538H25.3108C25.1875 24.9538 25.0417 24.9322 25.0417 24.7422V22.9395C25.0417 22.7492 25.1875 22.7279 25.3108 22.7277H25.3434V22.6545C25.1849 22.6555 24.9858 22.668 24.8185 22.668C24.6554 22.668 24.4587 22.6555 24.3253 22.6545V22.7277H24.3586C24.4806 22.7279 24.6271 22.7492 24.6275 22.9395V24.7422C24.6271 24.9322 24.4806 24.9538 24.3586 24.9538H24.3253V25.0267C24.4577 25.0252 24.6521 25.0132 24.8158 25.0132C24.9825 25.0132 25.1813 25.0258 25.3434 25.0267Z" fill="#1A1919"/>
<path fill-rule="evenodd" clip-rule="evenodd" d="M26.7295 22.588C27.4622 22.588 28.0463 23.0427 28.0463 23.7757C28.0463 24.5673 27.479 25.0934 26.7472 25.0934C26.0182 25.0934 25.4616 24.5978 25.4616 23.8578C25.4616 23.1424 26.0148 22.588 26.7295 22.588ZM26.7814 24.9419C27.4484 24.9419 27.5648 24.353 27.5648 23.8513C27.5648 23.3483 27.2939 22.7395 26.723 22.7395C26.1216 22.7395 25.9428 23.2764 25.9428 23.7372C25.9428 24.353 26.2248 24.9419 26.7814 24.9419Z" fill="#1A1919"/>
<path fill-rule="evenodd" clip-rule="evenodd" d="M25.4463 23.8577C25.4477 23.134 26.0073 22.5742 26.7294 22.573V22.6031C26.0228 22.6031 25.4762 23.1499 25.4754 23.8577C25.4769 24.5894 26.0254 25.0776 26.7473 25.0779C27.4717 25.0776 28.0308 24.559 28.0317 23.7752C28.031 23.0513 27.4563 22.6037 26.7294 22.6031V22.573C27.4673 22.5738 28.0597 23.0329 28.061 23.7752C28.0602 24.5749 27.4862 25.1065 26.7473 25.1078C26.0121 25.1065 25.4477 24.6059 25.4463 23.8577ZM25.9277 23.7371C25.9287 23.274 26.1092 22.7241 26.7229 22.7241C27.3065 22.7254 27.5787 23.3456 27.5798 23.8512C27.5787 24.353 27.4608 24.9559 26.7815 24.9559V24.9268C27.435 24.9262 27.5486 24.353 27.5497 23.8512C27.5497 23.3527 27.2815 22.7554 26.7229 22.7544C26.1332 22.7551 25.959 23.2787 25.9575 23.7371C25.9577 24.3501 26.2372 24.9259 26.7815 24.9268V24.9559C26.211 24.9554 25.9287 24.3566 25.9277 23.7371Z" fill="#1A1919"/>
<path fill-rule="evenodd" clip-rule="evenodd" d="M30.3624 24.3634L30.3695 24.3567V23.0666C30.3695 22.7842 30.1729 22.7429 30.0699 22.7429H29.9951V22.6396C30.1562 22.6396 30.3146 22.6533 30.4757 22.6533C30.617 22.6533 30.7579 22.6396 30.8989 22.6396V22.7429H30.8473C30.7032 22.7429 30.541 22.7704 30.541 23.1799V24.7456C30.541 24.8662 30.5446 24.9866 30.5621 25.0934H30.4313L28.6609 23.1178V24.5359C28.6609 24.8355 28.7196 24.9383 28.9837 24.9383H29.0426V25.0417C28.8947 25.0417 28.7471 25.0283 28.5993 25.0283C28.4445 25.0283 28.2863 25.0417 28.1316 25.0417V24.9383H28.1799C28.4175 24.9383 28.4891 24.7765 28.4891 24.502V23.0521C28.4891 22.8596 28.3316 22.7429 28.1761 22.7429H28.1316V22.6396C28.2622 22.6396 28.3961 22.6533 28.527 22.6533C28.6299 22.6533 28.7291 22.6396 28.8326 22.6396L30.3624 24.3634Z" fill="#1A1919"/>
<path fill-rule="evenodd" clip-rule="evenodd" d="M30.5622 25.1079L30.42 25.1031L28.6757 23.1569V24.5359C28.6797 24.8355 28.7252 24.9198 28.9833 24.9228H29.0573V25.0564H29.0427C28.8939 25.0564 28.7464 25.0426 28.5993 25.0426C28.4453 25.0426 28.2871 25.0564 28.1312 25.0564H28.1172V24.9228H28.1798C28.4063 24.9221 28.4716 24.776 28.4743 24.5019V23.0521C28.4742 22.8687 28.3239 22.7579 28.1762 22.7579H28.1172V22.6246H28.1312C28.263 22.6246 28.397 22.6381 28.5269 22.6381C28.6289 22.6381 28.7276 22.6246 28.8442 22.63L30.3544 24.3323V23.0666C30.3533 22.7933 30.1702 22.7601 30.0699 22.7579H29.9793V22.6246H29.9951C30.1565 22.6246 30.3151 22.6381 30.4753 22.6381C30.6159 22.6381 30.7562 22.6246 30.8991 22.6246H30.9135V22.7579H30.8471C30.7055 22.7615 30.5592 22.7746 30.5564 23.1799V24.7456C30.5564 24.8661 30.5591 24.9862 30.5757 25.0909L30.5787 25.1079H30.5622ZM30.4313 25.0779H30.544C30.5294 24.9744 30.526 24.8601 30.526 24.7456V23.1799C30.526 22.7662 30.6996 22.7286 30.8471 22.7277H30.8843V22.6545C30.7479 22.6555 30.6127 22.668 30.4753 22.668C30.3188 22.668 30.1651 22.6555 30.0095 22.6545V22.7277H30.0699C30.1761 22.7286 30.3836 22.7756 30.3836 23.0666L30.3799 24.3675L30.3733 24.3741L30.3624 24.3855L28.8327 22.6545C28.731 22.6545 28.631 22.668 28.5269 22.668C28.4002 22.668 28.2711 22.6555 28.1461 22.6545V22.7277H28.1762C28.3378 22.7286 28.5038 22.8506 28.5038 23.0521V24.5019C28.5038 24.7773 28.4271 24.9531 28.1798 24.954L28.1461 24.9538V25.0269C28.2953 25.0258 28.4483 25.0132 28.5993 25.0132C28.7427 25.0132 28.8852 25.0258 29.0276 25.0269V24.954H28.9833C28.7136 24.9538 28.6459 24.8355 28.6459 24.5359V23.0792L30.4313 25.0779ZM30.3624 24.3635L30.3733 24.3536L30.3624 24.3635ZM30.3544 24.3567V24.3558L30.3517 24.3532L30.3544 24.3567Z" fill="#1A1919"/>
<path fill-rule="evenodd" clip-rule="evenodd" d="M31.4511 24.5497C31.4174 24.6663 31.3759 24.7567 31.3759 24.8178C31.3759 24.9213 31.5207 24.9384 31.6334 24.9384H31.6717V25.0417C31.5341 25.0342 31.3931 25.0284 31.2554 25.0284C31.1317 25.0284 31.0081 25.0342 30.8849 25.0417V24.9384H30.9044C31.0392 24.9384 31.153 24.859 31.2032 24.7145L31.7544 23.1355C31.7987 23.0078 31.8609 22.8359 31.8807 22.7082C31.9911 22.6706 32.1283 22.6022 32.1945 22.5604C32.2041 22.5569 32.211 22.5533 32.2217 22.5533C32.2317 22.5533 32.2382 22.5533 32.2452 22.5642C32.2556 22.5914 32.2659 22.6224 32.2763 22.6499L32.9088 24.4499C32.9497 24.57 32.9912 24.6973 33.0361 24.8011C33.0774 24.8976 33.1495 24.9384 33.2628 24.9384H33.284V25.0417C33.129 25.0342 32.9742 25.0284 32.8091 25.0284C32.641 25.0284 32.4689 25.0342 32.2934 25.0417V24.9384H32.3315C32.4101 24.9384 32.5449 24.9247 32.5449 24.8386C32.5449 24.7942 32.514 24.7012 32.4756 24.5906L32.3416 24.1916H31.5615L31.4511 24.5497ZM31.9537 23.0251H31.9468L31.6263 23.9991H32.2701L31.9537 23.0251Z" fill="#1A1919"/>
<path fill-rule="evenodd" clip-rule="evenodd" d="M33.2824 25.0564C33.1275 25.0503 32.9732 25.0426 32.8092 25.0426C32.6415 25.0426 32.4693 25.0503 32.2942 25.0564L32.2789 25.0572V24.9234H32.3312C32.4111 24.9234 32.5295 24.9049 32.5296 24.8386C32.5306 24.7994 32.4995 24.7055 32.4608 24.5957L32.3305 24.2063H31.5717L31.4655 24.5541C31.4309 24.672 31.3903 24.762 31.3907 24.8178C31.3907 24.902 31.5196 24.9234 31.6332 24.9234H31.6858V25.0572L31.6703 25.0564C31.533 25.0503 31.3923 25.0426 31.2554 25.0426C31.1322 25.0426 31.0089 25.0503 30.8849 25.0564L30.8699 25.0572V24.9234H30.9044C31.0325 24.9227 31.1397 24.8493 31.1901 24.7096L31.7398 23.1301C31.7839 23.0027 31.8459 22.8316 31.8761 22.6945C31.9841 22.657 32.1222 22.588 32.189 22.5464C32.1979 22.5431 32.2075 22.5389 32.2216 22.5389C32.2304 22.5381 32.2485 22.5403 32.259 22.5591C32.2694 22.5862 32.2796 22.6174 32.2908 22.6452L32.9228 24.445C32.9642 24.5655 33.0052 24.6926 33.0498 24.7952C33.0903 24.8863 33.1524 24.9225 33.2624 24.9234H33.2979V25.0572L33.2824 25.0564ZM32.3081 25.026C32.4781 25.0198 32.6453 25.0131 32.8092 25.0131C32.969 25.0131 33.1185 25.0198 33.2685 25.0258L33.2681 24.9537H33.2624C33.1459 24.954 33.0649 24.9082 33.022 24.8067C32.9767 24.7027 32.9358 24.575 32.8946 24.4549L32.2622 22.6546C32.252 22.6271 32.2411 22.5963 32.233 22.5725C32.2301 22.5685 32.2304 22.5685 32.2283 22.5685H32.2216C32.2141 22.5685 32.2104 22.5708 32.2022 22.5731C32.1349 22.6152 31.9974 22.6843 31.8959 22.7104C31.8746 22.8408 31.8121 23.0125 31.7679 23.1403L31.2174 24.7194C31.1651 24.8689 31.045 24.954 30.9044 24.9537H30.8993V25.0258C31.0177 25.0198 31.1358 25.0131 31.2554 25.0131C31.3885 25.0131 31.5245 25.0198 31.6565 25.0258V24.9537H31.6332C31.5215 24.9522 31.3648 24.9403 31.3604 24.8178C31.3613 24.7498 31.4036 24.662 31.4373 24.5454L31.4511 24.5497L31.4373 24.545L31.5504 24.1773H32.3515L32.4896 24.5859C32.5274 24.6966 32.5588 24.7883 32.5588 24.8386C32.5538 24.944 32.4093 24.9518 32.3312 24.9537H32.3081V25.026ZM31.6058 24.0138L31.9359 23.0099H31.9537V23.0251L31.9498 23.0262L31.9537 23.0251V23.0099H31.9641L32.2891 24.0138H31.6058ZM31.6473 23.9838H32.2486L31.9496 23.0623L31.6473 23.9838ZM31.9394 23.0296L31.9461 23.0271L31.9394 23.0296Z" fill="#1A1919"/>
<path fill-rule="evenodd" clip-rule="evenodd" d="M34.1497 24.7042C34.1497 24.8425 34.2452 24.8833 34.3555 24.8976C34.4961 24.9079 34.651 24.9079 34.8096 24.8903C34.9537 24.873 35.0775 24.7909 35.1391 24.7042C35.1938 24.6286 35.2247 24.5322 35.2458 24.4567H35.3452C35.3073 24.6529 35.2593 24.8458 35.2181 25.0417C34.9163 25.0417 34.6129 25.0284 34.3109 25.0284C34.0081 25.0284 33.7059 25.0417 33.4035 25.0417V24.9383H33.4512C33.5751 24.9383 33.7097 24.9213 33.7097 24.708V22.9394C33.7097 22.7601 33.5751 22.7429 33.4512 22.7429H33.4035V22.6396C33.5854 22.6396 33.7644 22.6533 33.9463 22.6533C34.122 22.6533 34.2934 22.6396 34.4692 22.6396V22.7429H34.3828C34.2522 22.7429 34.1497 22.7465 34.1497 22.9289V24.7042Z" fill="#1A1919"/>
<path fill-rule="evenodd" clip-rule="evenodd" d="M35.2182 25.0564C34.9151 25.0564 34.6123 25.0426 34.3109 25.0426C34.0085 25.0426 33.706 25.0564 33.4029 25.0564H33.3885V24.9234H33.4512C33.5754 24.9204 33.6934 24.9117 33.6948 24.708V22.9388C33.6934 22.7713 33.5759 22.7601 33.4512 22.7579H33.3885V22.6246H33.4029C33.5859 22.6246 33.7648 22.6381 33.9461 22.6381C34.1211 22.6381 34.2923 22.6246 34.4692 22.6246H34.483V22.7579H34.3828C34.2495 22.7613 34.1667 22.7553 34.1637 22.9289V24.7042C34.1646 24.8329 34.2488 24.8673 34.3563 24.8827C34.4168 24.8868 34.4808 24.889 34.5469 24.889C34.6309 24.889 34.7182 24.8851 34.8071 24.8758C34.9471 24.8591 35.0676 24.7781 35.127 24.696C35.1801 24.6224 35.21 24.5281 35.2308 24.4532L35.2337 24.4419H35.3633L35.3603 24.46C35.3214 24.6567 35.274 24.8487 35.2324 25.0448L35.2297 25.0564H35.2182ZM35.2056 25.0267C35.2454 24.8398 35.2903 24.6571 35.3275 24.4714H35.2566C35.2355 24.5463 35.2048 24.6387 35.151 24.7136C35.0867 24.8027 34.9594 24.8868 34.8103 24.9053C34.7204 24.9144 34.6311 24.9191 34.5469 24.9191C34.4803 24.9191 34.416 24.9161 34.3534 24.9117C34.2417 24.8995 34.1336 24.8514 34.1337 24.7042V22.9289C34.1337 22.7376 34.2545 22.7277 34.3828 22.7277H34.4536V22.6545C34.2843 22.6555 34.1172 22.6684 33.9461 22.6684C33.7685 22.6684 33.5943 22.6555 33.4184 22.6545V22.7277H33.4512C33.5737 22.7277 33.7237 22.7492 33.7237 22.9388V24.708C33.7237 24.9307 33.5744 24.9538 33.4512 24.9538H33.4184V25.0267C33.7153 25.0261 34.0124 25.0132 34.3109 25.0132C34.6097 25.0132 34.9081 25.0261 35.2056 25.0267Z" fill="#1A1919"/>
<path fill-rule="evenodd" clip-rule="evenodd" d="M13.8355 10.4907C13.8355 7.27193 16.4417 4.6626 19.6565 4.6626C22.8715 4.6626 25.4778 7.27193 25.4778 10.4907C25.4778 13.7096 22.8715 16.319 19.6565 16.319C16.4417 16.319 13.8355 13.7096 13.8355 10.4907Z" fill="#FFFFFE"/>
<path fill-rule="evenodd" clip-rule="evenodd" d="M23.177 10.376C23.1747 8.88349 22.2429 7.6106 20.9299 7.1065V13.6452C22.2429 13.1405 23.1747 11.8688 23.177 10.376ZM18.4251 13.6439V7.10716C17.1133 7.61282 16.1829 8.88388 16.1794 10.376C16.1829 11.8677 17.1133 13.1386 18.4251 13.6439ZM19.6781 4.84926C16.6296 4.85043 14.1597 7.32377 14.1591 10.376C14.1597 13.4278 16.6296 15.9008 19.6781 15.9013C22.7267 15.9008 25.1971 13.4278 25.1979 10.376C25.1971 7.32377 22.7267 4.85043 19.6781 4.84926ZM19.6646 16.4228C16.3286 16.4387 13.5829 13.7329 13.5829 10.439C13.5829 6.83921 16.3286 4.34932 19.6646 4.34998H21.2279C24.5245 4.34932 27.5331 6.83804 27.5331 10.439C27.5331 13.7317 24.5245 16.4228 21.2279 16.4228H19.6646Z" fill="#0069AA"/>
<path fill-rule="evenodd" clip-rule="evenodd" d="M5.80806 24.9383H5.85633C5.97993 24.9383 6.11055 24.9213 6.11055 24.7422V22.9394C6.11055 22.7601 5.97993 22.743 5.85633 22.743H5.80806V22.6396C5.94207 22.6396 6.14828 22.6533 6.31716 22.6533C6.4889 22.6533 6.69485 22.6396 6.85644 22.6396V22.743H6.80791C6.68483 22.743 6.55395 22.7601 6.55395 22.9394V24.7422C6.55395 24.9213 6.68483 24.9383 6.80791 24.9383H6.85644V25.0417C6.6916 25.0417 6.48486 25.0284 6.31365 25.0284C6.1449 25.0284 5.94207 25.0417 5.80806 25.0417V24.9383Z" fill="#1A1919"/>
<path fill-rule="evenodd" clip-rule="evenodd" d="M6.85644 25.0564C6.69017 25.0564 6.48447 25.0426 6.31339 25.0426C6.14516 25.0426 5.94298 25.0564 5.80806 25.0564H5.7931V24.9234H5.85607C5.98084 24.9204 6.09429 24.9104 6.09533 24.7422V22.9395C6.09429 22.771 5.98084 22.7601 5.85607 22.7579H5.7931V22.6246H5.80806C5.94298 22.6246 6.14907 22.6381 6.31716 22.6381C6.48812 22.6381 6.69394 22.6246 6.85644 22.6246H6.87179V22.7579H6.80856C6.68366 22.7601 6.56956 22.771 6.56891 22.9395V24.7422C6.56956 24.9104 6.68366 24.9204 6.80856 24.9234H6.87179V25.0564H6.85644ZM6.84161 25.027L6.84174 24.9538H6.80856C6.68561 24.9538 6.53951 24.9322 6.53873 24.7422V22.9395C6.53951 22.7492 6.68561 22.7279 6.80856 22.7279H6.84161V22.6545C6.68301 22.6546 6.48382 22.6684 6.31716 22.6684C6.15388 22.6684 5.95625 22.6555 5.82316 22.6545V22.7279H5.85607C5.97863 22.7279 6.125 22.7492 6.125 22.9395V24.7422C6.125 24.9322 5.97863 24.9538 5.85607 24.9538H5.82316V25.027C5.95625 25.0258 6.15037 25.0132 6.31339 25.0132C6.48083 25.0132 6.6795 25.0261 6.84161 25.027Z" fill="#1A1919"/>
<path fill-rule="evenodd" clip-rule="evenodd" d="M35.3033 22.542C35.5107 22.542 35.6654 22.7014 35.6654 22.9052C35.6654 23.1087 35.5107 23.2665 35.3033 23.2665C35.0964 23.2665 34.9415 23.1087 34.9415 22.9052C34.9415 22.7014 35.0964 22.542 35.3033 22.542ZM35.3033 23.1991C35.4657 23.1991 35.5897 23.0609 35.5897 22.9052C35.5897 22.7491 35.4671 22.6099 35.3033 22.6099C35.1404 22.6099 35.0166 22.7491 35.0166 22.9052C35.0166 23.0609 35.1404 23.1991 35.3033 23.1991ZM35.1234 23.0962V23.0787C35.1676 23.0723 35.1759 23.0734 35.1759 23.0464V22.7778C35.1759 22.74 35.1722 22.727 35.1248 22.729V22.7105H35.3101C35.3737 22.7105 35.4324 22.741 35.4324 22.8069C35.4324 22.8607 35.397 22.9007 35.3468 22.9162L35.4064 22.9993C35.4341 23.0368 35.4657 23.0723 35.486 23.0848V23.0962H35.4156C35.3818 23.0962 35.3518 23.0251 35.2855 22.9296H35.2454V23.0497C35.2454 23.0734 35.2537 23.0723 35.2982 23.0787V23.0962H35.1234ZM35.2454 22.9052H35.2881C35.3348 22.9052 35.3564 22.8699 35.3564 22.8127C35.3564 22.7551 35.3231 22.7346 35.2857 22.7346H35.2454V22.9052Z" fill="#1A1919"/>
</svg>
