<svg width="32" height="32" viewBox="0 0 32 32" fill="none" xmlns="http://www.w3.org/2000/svg">
<g transform="translate(0.409, 1.333)">
<path d="M8 24C9.47276 24 10.6667 25.1939 10.6667 26.6667C10.6667 28.1394 9.47276 29.3333 8 29.3333C6.52724 29.3333 5.33333 28.1394 5.33333 26.6667C5.33333 25.1939 6.52724 24 8 24Z" fill="#0A0A0A"/>
<path d="M26.6667 24C28.1394 24 29.3333 25.1939 29.3333 26.6667C29.3333 28.1394 28.1394 29.3333 26.6667 29.3333C25.1939 29.3333 24 28.1394 24 26.6667C24 25.1939 25.1939 24 26.6667 24Z" fill="#0A0A0A"/>
<path fill-rule="evenodd" clip-rule="evenodd" d="M7.07943 2.66667H31.1823L26.2943 17.3333H10.3737L9.70703 20H29.3333V22.6667H6.29167L7.95443 16.0156L4.3138 2.66667H0V0H6.35156L7.07943 2.66667ZM10.3516 14.6667H24.3711L27.4831 5.33333H7.80599L10.3516 14.6667Z" fill="#0A0A0A"/>
</g>
</svg>
